<svg xmlns="http://www.w3.org/2000/svg" width="170.467" height="286.67" viewBox="0 0 170.467 286.67">
  <g id="Group_7678" data-name="Group 7678" transform="translate(-2372.01 -840.326)">
    <path id="Path_13570" data-name="Path 13570" d="M2479.767,1061.089l1.082,4.866-7.908,2.2-1.02-3.738,8.166-5.129Z" transform="translate(13.936 30.542)" fill="#fde5dc"/>
    <path id="Path_13571" data-name="Path 13571" d="M2451.026,1068.117l-.685,4.93-8.183,0,.373-5.987,8.494-1.917Z" transform="translate(9.785 31.359)" fill="#fde5dc"/>
    <path id="Path_13572" data-name="Path 13572" d="M2458.389,1082.325c31.838,0,69.534,2.444,69.534,5.458s-37.7,5.457-69.534,5.457-57.646-2.443-57.646-5.457,25.809-5.458,57.646-5.458" transform="translate(4.008 33.756)" fill="#2f3d5b" opacity="0.2"/>
    <rect id="Rectangle_4415" data-name="Rectangle 4415" width="36.337" height="33.634" transform="translate(2390.251 979.063) rotate(-84.645)" fill="#ffeb3b"/>
    <path id="Path_13573" data-name="Path 13573" d="M2434.637,964.889l-17.232,4.984,3.392-36.179,17.232-4.984Z" transform="translate(6.332 12.329)" fill="#fbc02d"/>
    <path id="Path_13574" data-name="Path 13574" d="M2424.482,934.061,2391,930.922l17.344-4.84,33.367,3.065Z" transform="translate(2.648 11.962)" fill="#fbc02d"/>
    <path id="Path_13575" data-name="Path 13575" d="M2403.612,968.6l-1.83-.172,1.945-36.315,15.825-5.027,3.832.359-15.105,5.095Z" transform="translate(4.153 12.102)" fill="#01579b"/>
    <path id="Path_13576" data-name="Path 13576" d="M2430.62,967l-1.792.518,1.8-35.69-33.342-3.135,3.428-.957,33.927,2.948Z" transform="translate(3.525 12.193)" fill="#01579b"/>
    <path id="Path_13577" data-name="Path 13577" d="M2426.74,923.75a2.871,2.871,0,0,1-1.371,3.9,36.92,36.92,0,0,1-10.29,1.523,36.094,36.094,0,0,1,7.631-6.776,3.074,3.074,0,0,1,1.6-.28,3.012,3.012,0,0,1,2.432,1.633m-13.955,7.573c10.524.262,13.227-.784,13.662-1A5.857,5.857,0,1,0,2421.3,919.8c-2.513,1.23-8.651,8.884-9.344,9.752l-1.364,1.714Z" transform="translate(5.383 11.003)" fill="#01579b"/>
    <path id="Path_13578" data-name="Path 13578" d="M2403.918,920.291a3.062,3.062,0,0,1,1.518.573,36.085,36.085,0,0,1,6.24,8.077,36.911,36.911,0,0,1-9.828-3.409,2.871,2.871,0,0,1-.622-4.087,3.012,3.012,0,0,1,2.693-1.153m11.773,11.541-1.022-1.937c-.518-.982-5.128-9.645-7.369-11.319a5.856,5.856,0,0,0-7.009,9.384c.389.289,2.85,1.821,13.24,3.519Z" transform="translate(3.618 10.752)" fill="#01579b"/>
    <path id="Path_13579" data-name="Path 13579" d="M2446.134,856.432c-5.719-.461-13.111,1.919-13.125,11.377-.011,6.627.558,18.023,4.861,18.764,1.909.327,8.693-1.463,8.693-1.463l-.16,7.9,12.627-2.126-3.917-10.622s9.866-22.307-8.98-23.831" transform="translate(8.509 2.239)" fill="#c89682"/>
    <path id="Path_13580" data-name="Path 13580" d="M2435.392,859.952l10.347,10.79c1.005-3,3.352-2.651,4.894-.619,1.9,2.5-.954,5.386-.491,6.259s3.9,4.421,4.639,4.4,13.4-8.565,4.45-23.207c-4.126-6.747-17.042-7.186-23.839,2.374" transform="translate(8.841 1.716)" fill="#333"/>
    <path id="Path_13581" data-name="Path 13581" d="M2441.444,847.976c-.28,4.523,2.369,7.521,6.485,7.776s6.176-2.582,6.454-7.1-1.678-8.053-5.792-8.309-6.865,3.115-7.147,7.637" transform="translate(9.682 0)" fill="#333"/>
    <path id="Path_13582" data-name="Path 13582" d="M2443.029,972.349s14.449,54.984,18.194,63.307c2.515,5.586,10.325,26.871,14.728,43.272l7.885-3.327c1.025-8.138-.872-17.451-3.872-27.533-6.329-21.271-9.937-28.587-10.851-45.727s5.771-35.138,2.676-44.834-28.761,14.843-28.761,14.843" transform="translate(9.907 16.029)" fill="#333"/>
    <path id="Path_13583" data-name="Path 13583" d="M2483.013,1073.365l-3.678,4.626-5.168-3.875-1.351-6.781,7.908-2.2Z" transform="translate(14.061 31.358)" fill="#bdbdbd"/>
    <path id="Path_13584" data-name="Path 13584" d="M2471.736,956.828s-13.924,61.9-14.478,67.175,2.945,15.425.022,33.61c-1.461,9.1-3.549,18.733-5.272,26.1l-8.547.43c-.435-15.847-1.189-43.643-1.292-50.09-.145-9.147-7.053-64.047-7.053-64.047s31.384-25.865,36.621-13.176" transform="translate(8.802 15.762)" fill="#333"/>
    <path id="Path_13585" data-name="Path 13585" d="M2449.8,1080.669l-6.166,3.731-2.4-6.054,1.048-6.831,8.183.641Z" transform="translate(9.656 32.248)" fill="#bdbdbd"/>
    <path id="Path_13586" data-name="Path 13586" d="M2442.548,888.559l39.53-9.688s8.026,25.04-11.868,26.212-27.662-16.524-27.662-16.524" transform="translate(9.839 5.377)" fill="#fff"/>
    <path id="Path_13587" data-name="Path 13587" d="M2455.155,886.28c5.686.352,10.932,6.284,14.6,17.021,2.811,19.362,12.885,91.66,12.885,91.66l-53.057-4.722s2.73-94.16,12.894-102.013a27.832,27.832,0,0,1,12.682-1.946" transform="translate(8.03 6.401)" fill="#fff"/>
    <path id="Path_13588" data-name="Path 13588" d="M2452.269,1078.765c.56.153,2.073,10.038,1.171,10.552s-26.142.918-27.606-.517c-.768-.754.049-4.087.579-4.234a58.56,58.56,0,0,0,16.821-7.853s2.494.893,2.2,2.227l-.3.562a4.867,4.867,0,0,0,3.094,1.325c1.521-.144,2.619-2.448,4.036-2.06" transform="translate(7.464 32.973)" fill="#fff"/>
    <path id="Path_13589" data-name="Path 13589" d="M2484.346,1070.541c.576-.075,5.779,8.464,5.145,9.288s-23.772,10.916-25.675,10.154c-1-.4-1.528-3.79-1.1-4.131a58.511,58.511,0,0,0,12.5-13.726s2.645-.135,2.891,1.207l-.06.634a4.866,4.866,0,0,0,3.366.031c1.348-.718,1.474-3.268,2.932-3.456" transform="translate(12.632 32.112)" fill="#fff"/>
    <path id="Path_13590" data-name="Path 13590" d="M2483.845,854.5a10.065,10.065,0,0,1-4.72,5.8l1.552,3.218a13.618,13.618,0,0,0,6.6-8.021Z" transform="translate(14.941 1.977)" fill="#fff"/>
    <path id="Path_13591" data-name="Path 13591" d="M2421.526,898.886a10.07,10.07,0,0,1-4.721,5.8l1.553,3.217a13.611,13.611,0,0,0,6.6-8.02Z" transform="translate(6.249 8.169)" fill="#ffed00"/>
    <path id="Path_13592" data-name="Path 13592" d="M2492.3,874.461a10.07,10.07,0,0,1,6.769-3.174l0-3.573a13.618,13.618,0,0,0-9.426,4.364Z" transform="translate(16.408 3.82)" fill="#fff"/>
    <path id="Path_13593" data-name="Path 13593" d="M2496.714,906.521a10.082,10.082,0,0,1-6.282-4.05l-3.026,1.9a13.621,13.621,0,0,0,8.7,5.671Z" transform="translate(16.096 8.669)" fill="#01579b"/>
    <path id="Path_13594" data-name="Path 13594" d="M2402.784,883.823a10.079,10.079,0,0,1-6.282-4.05l-3.026,1.9a13.621,13.621,0,0,0,8.7,5.671Z" transform="translate(2.994 5.502)" fill="#ffed00"/>
    <path id="Path_13595" data-name="Path 13595" d="M2415.365,872.81a7.365,7.365,0,0,0,2.612-.417,4.188,4.188,0,0,0,2.13-1.682c1.525-2.413-.1-5.6-.292-5.953l-3.148,1.688,0-.007c.364.694.7,1.93.422,2.366-.149.235-.8.487-2.128.423l-.168,3.569c.2.009.39.014.576.014" transform="translate(5.967 3.408)" fill="#01579b"/>
    <path id="Path_13596" data-name="Path 13596" d="M2395.2,855.431a7.355,7.355,0,0,0-1.5,2.18,4.2,4.2,0,0,0-.252,2.7c.7,2.768,4.121,3.789,4.509,3.9l.953-3.443.008,0c-.754-.216-1.881-.825-2-1.328-.067-.27.2-.913,1.161-1.832l-2.465-2.584q-.215.205-.409.408" transform="translate(2.974 2.05)" fill="#00b0ff"/>
    <path id="Path_13597" data-name="Path 13597" d="M2494.249,926.426a7.293,7.293,0,0,0-2.6-.46,4.185,4.185,0,0,0-2.564.889c-2.231,1.78-1.739,5.321-1.676,5.719l3.529-.562v.009c-.116-.776-.029-2.054.375-2.375.219-.173.913-.2,2.15.3l1.33-3.317q-.275-.109-.54-.2" transform="translate(16.084 11.945)" fill="#fff"/>
    <path id="Path_13598" data-name="Path 13598" d="M2514.858,855.508a7.352,7.352,0,0,0-1.9-1.84,4.179,4.179,0,0,0-2.622-.7c-2.844.226-4.419,3.437-4.589,3.8l3.237,1.509,0,.007c.337-.706,1.126-1.717,1.641-1.756.277-.02.866.345,1.615,1.449l2.956-2q-.166-.246-.333-.471" transform="translate(18.655 1.762)" fill="#ffed00"/>
    <path id="Path_13599" data-name="Path 13599" d="M2474.934,883.164a6.5,6.5,0,0,1-5.738-2.427,8.478,8.478,0,0,1-1.5-2.663l3.283-1.023,0-.013a5.174,5.174,0,0,0,.919,1.567,3.1,3.1,0,0,0,2.748,1.131Z" transform="translate(13.348 5.121)" fill="#ffed00"/>
    <path id="Path_13600" data-name="Path 13600" d="M2379.286,907.294c.172-.032,1.207-.3,4.645-2.4,1.89-1.158,3.547-2.286,3.564-2.3l1.938,2.842c-.071.048-1.735,1.181-3.694,2.382-3.737,2.288-5.119,2.726-5.834,2.858Z" transform="translate(1.015 8.686)" fill="#00b0ff"/>
    <path id="Path_13601" data-name="Path 13601" d="M2462.8,920.358c.171-.031,1.208-.3,4.644-2.4,1.89-1.158,3.548-2.286,3.564-2.3l1.938,2.841c-.07.048-1.734,1.182-3.694,2.381-3.735,2.289-5.117,2.727-5.834,2.858Z" transform="translate(12.664 10.509)" fill="#00b0ff"/>
    <path id="Path_13602" data-name="Path 13602" d="M2456.823,960.113c.172-.031,1.207-.3,4.645-2.4,1.891-1.158,3.547-2.286,3.564-2.3l1.937,2.842c-.071.048-1.734,1.18-3.694,2.381-3.735,2.288-5.118,2.726-5.833,2.858Z" transform="translate(11.831 16.054)" fill="#ffed00"/>
    <path id="Path_13603" data-name="Path 13603" d="M2372.01,927.279c.172-.032,1.207-.3,4.645-2.4,1.891-1.158,3.547-2.286,3.564-2.3l1.938,2.841c-.071.048-1.735,1.182-3.7,2.381-3.735,2.289-5.118,2.727-5.833,2.858Z" transform="translate(0 11.474)" fill="#01579b"/>
    <path id="Path_13604" data-name="Path 13604" d="M2485.64,937.937c.124.124.927.828,4.6,2.474,2.023.9,3.891,1.633,3.911,1.641l-1.249,3.205c-.08-.031-1.954-.762-4.053-1.7-4-1.787-5.142-2.68-5.654-3.2Z" transform="translate(15.51 13.616)" fill="#01579b"/>
    <path id="Path_13605" data-name="Path 13605" d="M2511.084,881.768c.523,1.758-.189,3.793-.662,5.14-.029.086-.058.168-.085.244a11.938,11.938,0,0,0,1.277,2.009c.663.9,1.289,1.642,1.3,1.65l-2.626,2.22c-.038-.042-.887-1.051-1.709-2.206-1.516-2.122-1.958-3.3-1.632-4.359.064-.21.147-.447.235-.7a7.149,7.149,0,0,0,.611-3.022Z" transform="translate(18.808 5.781)" fill="#00b0ff"/>
    <path id="Path_13606" data-name="Path 13606" d="M2497.7,848.438c-1.436,1.142-3.592,1.237-5.016,1.3l-.259.013a11.91,11.91,0,0,0-1.388,1.934c-.588.951-1.044,1.81-1.048,1.817l-3.039-1.61c.026-.049.645-1.214,1.41-2.409,1.406-2.2,2.337-3.047,3.438-3.139.217-.017.467-.029.731-.041a7.137,7.137,0,0,0,3.032-.558Z" transform="translate(16.033 0.756)" fill="#00b0ff"/>
    <path id="Path_13607" data-name="Path 13607" d="M2451.791,946.062c-1.437,1.142-3.592,1.239-5.016,1.3-.091,0-.178.007-.259.011a11.882,11.882,0,0,0-1.388,1.934c-.588.951-1.044,1.808-1.048,1.818l-3.04-1.611c.027-.049.646-1.214,1.41-2.408,1.406-2.2,2.338-3.047,3.438-3.139.219-.017.469-.03.732-.041a7.154,7.154,0,0,0,3.033-.558Z" transform="translate(9.629 14.373)" fill="#01579b"/>
    <path id="Path_13608" data-name="Path 13608" d="M2471.979,847.679c-1.741-.579-3-2.33-3.833-3.489l-.151-.208a11.814,11.814,0,0,0-2.379-.1c-1.119.026-2.084.115-2.094.115l-.313-3.425c.056,0,1.368-.123,2.786-.137,2.608-.024,3.83.291,4.508,1.161.135.173.281.376.435.591.469.651,1.443,2.005,2.126,2.233Z" transform="translate(12.721 0.014)" fill="#01579b"/>
    <path id="Path_13609" data-name="Path 13609" d="M2522.425,936.5c-.373,1.8-1.965,3.251-3.018,4.214l-.191.174a12,12,0,0,0,.174,2.376c.157,1.106.358,2.056.359,2.065l-3.365.712c-.012-.055-.282-1.346-.461-2.752-.328-2.588-.157-3.838.628-4.614.156-.153.34-.321.535-.5.593-.54,1.824-1.666,1.971-2.371Z" transform="translate(20.052 13.319)" fill="#ffed00"/>
    <path id="Path_13610" data-name="Path 13610" d="M2414.251,946.558a38.276,38.276,0,0,1-3.081-2.538,20.783,20.783,0,0,0-3.316-1.658c-.44-.13-2.537-.983-2.667-.621a3.143,3.143,0,0,0,2.02,2.383c1.3.415,2.124,1.217,2.045,1.71s-1.242,1.372-3.186,1.579a17.926,17.926,0,0,1-4.273-.207c-.932-.079-4.195.076-4.013.958s2.486.828,2.849.88a29.637,29.637,0,0,1,4.169.57c.207.234.44.725.051.855s-3.262.856-4.273,1.141-2.941.906-2.8,1.838,1.562.466,2.442.13,2.15-.466,2.745-.647,2.1-.622,2.384-.26-.13.622-.545.881a34.193,34.193,0,0,1-3.782,1.943c-.646.18-1.113.517-1.061.881s.362.8,1.632.362a17.923,17.923,0,0,0,3.238-1.088c.673-.466,2.149-1.579,2.409-1.32s.053,1.087-.441,1.579-2.149,2.2-2.538,2.564-.207.7,0,.8a3.791,3.791,0,0,0,2.643-1.244,12.791,12.791,0,0,1,2.771-2.719c.674-.312,5.257-2.616,6.346-2.771a19.352,19.352,0,0,1,3.184.025l1.348-5.827s-5.362.363-6.295-.181" transform="translate(3.592 14.134)" fill="#c89682"/>
    <path id="Path_13611" data-name="Path 13611" d="M2415.29,945.469l-1.356,8.3,29.267,4.119-3.593-16.233Z" transform="translate(5.848 14.134)" fill="#fff"/>
  </g>
</svg>
