<svg xmlns="http://www.w3.org/2000/svg" width="650.622" height="249.262" viewBox="0 0 650.622 249.262">
  <g id="Group_7681" data-name="Group 7681" transform="translate(-73 -2189.779)">
    <g id="Group_7069" data-name="Group 7069" transform="translate(245.824 2189.78)">
      <path id="Path_12043" data-name="Path 12043" d="M176.425,523.125h-.951v-131.1a32.65,32.65,0,0,1,49.092-28.2l-.48.821a31.7,31.7,0,0,0-47.661,27.378Z" transform="translate(-175.474 -359.382)" fill="#191919"/>
      <path id="Path_12044" data-name="Path 12044" d="M433.874,363.232l-2.615,3.563L428,363.687v-.9Z" transform="translate(-389.711 -362.267)" fill="#191919"/>
      <path id="Path_12045" data-name="Path 12045" d="M456.937,388.3c1.6,1.337,6.559-1.96,11.085-7.363s6.9-10.867,5.307-12.2-21.612-10.828-26.138-5.425S455.342,386.96,456.937,388.3Z" transform="translate(-405.17 -361.311)" fill="#fff"/>
      <path id="Path_12046" data-name="Path 12046" d="M508.046,421.747c.265-2.565,2.65-6.789,6.21-10.9a35.159,35.159,0,0,1,7.111-6.427,10.327,10.327,0,0,1,3.076-1.443,4.327,4.327,0,0,1,1.176.686c-.8-.168-2.178.325-3.842,1.394a34.409,34.409,0,0,0-6.947,6.285c-4.376,5.053-6.2,9.292-6.039,11.092a1.869,1.869,0,0,0,.058.336A8.019,8.019,0,0,1,508.046,421.747Z" transform="translate(-457.622 -396.368)" fill="#e9e3e3"/>
    </g>
    <g id="Group_7070" data-name="Group 7070" transform="translate(420.283 2212.272)">
      <rect id="Rectangle_3968" data-name="Rectangle 3968" width="117.995" height="73.786" fill="#424242"/>
      <path id="Path_12047" data-name="Path 12047" d="M1721.094,523.253,1672.4,592.332h63.334V523.253Z" transform="translate(-1619.897 -520.899)" fill="#fff" opacity="0.05"/>
    </g>
    <g id="Group_7071" data-name="Group 7071" transform="translate(517.857 2237.351)">
      <g id="Group_7071-2" data-name="Group 7071" transform="translate(18.784)">
        <path id="Path_12048" data-name="Path 12048" d="M2114.437,734.143c-2.874,26.85-6.839,37.073-13.164,36.4s-9.534-13.395-6.66-40.245,18.385-57.824,24.709-57.147S2117.311,707.293,2114.437,734.143Z" transform="translate(-2093.552 -673.136)" fill="#008c3a"/>
        <path id="Path_12049" data-name="Path 12049" d="M2134.219,862.045a235.571,235.571,0,0,1-.646-40.365,191.54,191.54,0,0,1,4.463-29.774c3.006-12.79,6.791-21.8,8.372-24.783l1.072.569c-1.561,2.944-5.3,11.863-8.276,24.546a190.462,190.462,0,0,0-4.424,29.57,234.32,234.32,0,0,0,.646,40.116Z" transform="translate(-2127.014 -752.874)" fill="#005021"/>
      </g>
      <g id="Group_7072" data-name="Group 7072" transform="translate(32.826 44.706)">
        <path id="Path_12050" data-name="Path 12050" d="M2186.166,1024.45c0,30.44,5.85,52.56,13.084,52.56s4.645-22.119,4.645-52.56,7.236-56.455,0-56.455S2186.166,994.009,2186.166,1024.45Z" transform="translate(-2186.166 -967.995)" fill="#00c853"/>
        <path id="Path_12051" data-name="Path 12051" d="M2237.354,1157.571a208.937,208.937,0,0,1-5.372-38.26,191.462,191.462,0,0,1,.944-29.958,133.753,133.753,0,0,1,5.406-26.562l1.141.41a132.651,132.651,0,0,0-5.347,26.333,190.23,190.23,0,0,0-.931,29.754,207.844,207.844,0,0,0,5.34,38.006Z" transform="translate(-2224.86 -1048.417)" fill="#008c3a"/>
      </g>
      <g id="Group_7073" data-name="Group 7073" transform="translate(0 29.073)">
        <path id="Path_12052" data-name="Path 12052" d="M1997.573,918.306c4.3,30.136,1.63,52.86-5.532,53.881s-7.723-21.241-12.021-51.377-15.134-54.867-7.972-55.889S1993.274,888.171,1997.573,918.306Z" transform="translate(-1969.662 -864.89)" fill="#00c853"/>
        <path id="Path_12053" data-name="Path 12053" d="M2039.028,1058.66l-1.2-.193a186.1,186.1,0,0,0,1.843-40.467,235.343,235.343,0,0,0-4.728-34.693,220.289,220.289,0,0,0-9.649-33.361l1.123-.459a221.515,221.515,0,0,1,9.707,33.541,236.594,236.594,0,0,1,4.757,34.883A187.35,187.35,0,0,1,2039.028,1058.66Z" transform="translate(-2016.862 -936.661)" fill="#008c3a"/>
      </g>
    </g>
    <g id="neck" transform="translate(310.918 2289.419)">
      <path id="Path_12054" data-name="Path 12054" d="M604.8,1040.092l12.084,8.32h9.263l-1.63-28.759-16.9-3.106Z" transform="translate(-604.796 -1016.548)" fill="#e0c3af"/>
    </g>
    <g id="head" transform="translate(301.633 2247.581)">
      <g id="face">
        <path id="Path_12055" data-name="Path 12055" d="M631.823,805.812c1.556-10.362,10.431-15.742,19.912-15.747s14.205,6.219,14.211,15.729c0,0,0,.739-.01,1.861-.007,1.416-.632,3.44-.641,5.36-.014,2.727.558,4.5.576,6,.075,6.093-6.138,20.008-12.986,20.012-7.9,0-21.382-10.507-21.385-17.355C631.5,821.088,631.234,809.736,631.823,805.812Z" transform="translate(-618.114 -782.566)" fill="#e0c3af"/>
        <path id="hair" d="M543.554,761.082c0,8.066,4.738,20.547,11.8,26.428,0,0,8.162,2.488,21.446-14.923.306-2.668,4.751-18.811,10.764-20.489-3.776-6.637-11.887-11.494-21.3-11.494a22.552,22.552,0,0,0-17.984,8.282C544.167,750.3,543.554,756.367,543.554,761.082Z" transform="translate(-543.554 -740.605)" fill="#42454a"/>
        <path id="Path_12056" data-name="Path 12056" d="M730.67,917.331c-.468-1.146-2.116-2.394-4.926-.514s-4.425,11.753.624,13.336S731.949,920.462,730.67,917.331Z" transform="translate(-695.876 -889.281)" fill="#e0c3af"/>
        <path id="Path_12057" data-name="Path 12057" d="M738.45,1081.218l.314,3.834a16.036,16.036,0,0,0,5.15.989Z" transform="translate(-708.9 -1029.575)" fill="#b29583"/>
      </g>
      <g id="eyebrows" transform="translate(45.193 24.149)">
        <path id="Path_12058" data-name="Path 12058" d="M841.684,900.122a14.776,14.776,0,0,1,2.576-.24c1.186-.008,1.14,3-.015,3a5.921,5.921,0,0,1-1.607-.142C841.279,902.249,841.684,900.122,841.684,900.122Z" transform="translate(-841.627 -899.882)" fill="#42454a"/>
      </g>
    </g>
    <g id="hair-2" data-name="hair" transform="translate(298.133 2238.532)">
      <path id="Path_12059" data-name="Path 12059" d="M574.314,704.052c5.17-9.983,28.305-19.276,37.513-15.391.91,4.362-5.174,9.426-5.007,10.013,2.248-.306,4.5-3.679,5.917-5.651,11.724,15.152-8.272,18.28-8.272,18.28l-18.148,2.363S573.183,705.086,574.314,704.052Z" transform="translate(-566.092 -686.721)" fill="#42454a"/>
      <path id="Path_12060" data-name="Path 12060" d="M592,695.425l-.519-.325a30.961,30.961,0,0,1,14.427-11.707,36.463,36.463,0,0,1,8.624-2.463l.073.608a35.879,35.879,0,0,0-8.479,2.427A30.349,30.349,0,0,0,592,695.425Z" transform="translate(-580.716 -680.929)" fill="#42454a"/>
      <path id="Path_12061" data-name="Path 12061" d="M520.62,794.821l-.148-.6a30.961,30.961,0,0,1,18.513,1.56,36.486,36.486,0,0,1,7.924,4.2l-.369.49a35.893,35.893,0,0,0-7.795-4.128A30.355,30.355,0,0,0,520.62,794.821Z" transform="translate(-520.472 -776.377)" fill="#42454a"/>
    </g>
    <g id="neck-2" data-name="neck" transform="translate(370.032 2319.62)">
      <path id="Path_12062" data-name="Path 12062" d="M997.246,1238.716l12.311,6.689,7.516-10.338-5.215-19.327-17.179,0Z" transform="translate(-994.68 -1215.739)" fill="#e4837a"/>
    </g>
    <path id="Path_12064" data-name="Path 12064" d="M982.808,984.619c-.345-10.473,7.41-17.37,16.733-19.092s15.1,3.545,16.824,12.9c0,0,.13.727.327,1.832.249,1.393,0,3.5.34,5.388.479,2.685,1.363,4.325,1.653,5.8,1.177,5.979-2.415,20.789-9.149,22.032-7.771,1.434-22.931-6.463-24.173-13.2C985.255,999.7,982.939,988.584,982.808,984.619Z" transform="translate(-614.567 1316.431)" fill="#a88e74"/>
    <path id="hair-3" data-name="hair" d="M892.665,953.358c1.46,7.933,7.776,19.461,15.784,23.967,0,0,10.056,2.153,18.107-18.4.979-2.5,5.587-9.945,7.161-22.255-4.916-5.844-13.772-9.152-23.031-7.448C898.742,931.418,890.485,941.514,892.665,953.358Z" transform="translate(-537.804 1347.339)" fill="#424242"/>
    <path id="Path_12065" data-name="Path 12065" d="M1089.4,1093.145c-.668-1.043-2.515-1.972-4.938.386s-2.224,12.36,3.027,13S1091.223,1095.992,1089.4,1093.145Z" transform="translate(-699.549 1208.812)" fill="#a88e74"/>
    <path id="Path_12066" data-name="Path 12066" d="M1119.529,1258.54l1,3.715a16.04,16.04,0,0,0,5.245.04Z" transform="translate(-730.568 1067.569)" fill="#826c5d"/>
    <g id="eyebrows-2" data-name="eyebrows" transform="translate(399.469 2295.75)">
      <path id="Path_12067" data-name="Path 12067" d="M1188.832,1059.016a14.843,14.843,0,0,1,2.49-.7c1.166-.222,1.664,2.744.529,2.953a5.916,5.916,0,0,1-1.606.151C1188.819,1061.181,1188.832,1059.016,1188.832,1059.016Z" transform="translate(-1188.832 -1058.301)" fill="#424242"/>
    </g>
    <g id="hair-4" data-name="hair" transform="translate(351.829 2254.092)">
      <g id="_05" data-name="05">
        <g id="head-2" data-name="head">
          <g id="Group_7078" data-name="Group 7078">
            <path id="Path_12068" data-name="Path 12068" d="M885.288,799.914c1.215,8.113,7.046,12.415,14.424,11.31s9.951-6.909,8.734-15.019-6.02-13.616-13.4-12.511S884.074,791.8,885.288,799.914Z" transform="translate(-883.474 -783.553)" fill="#424242"/>
            <path id="Path_12069" data-name="Path 12069" d="M888.8,814.444a11.846,11.846,0,0,1-9.215-2.132,13.234,13.234,0,0,1-4.741-8.8,16.192,16.192,0,0,1,1.509-10.176,10.555,10.555,0,0,1,7.544-5.415c.135-.025.272-.048.409-.068a9.889,9.889,0,0,1,8.751,2.722,16.375,16.375,0,0,1,4.23,9.347c1.221,8.137-1.623,13.266-8.008,14.441C889.121,814.393,888.961,814.42,888.8,814.444Zm-12.023-20.871a15.7,15.7,0,0,0-1.453,9.869,12.752,12.752,0,0,0,4.557,8.485,11.373,11.373,0,0,0,8.848,2.038c3.375-.507,5.773-2.08,7.11-4.672,1.215-2.355,1.542-5.483.969-9.3a15.887,15.887,0,0,0-4.092-9.074,9.424,9.424,0,0,0-8.339-2.588c-.132.02-.263.042-.393.066A10.084,10.084,0,0,0,876.776,793.573Z" transform="translate(-874.623 -787.087)" fill="#424242"/>
          </g>
        </g>
      </g>
    </g>
    <rect id="sofa" width="650.622" height="92.58" transform="translate(73 2346.462)" fill="#d8d8d8"/>
    <path id="Path_12033" data-name="Path 12033" d="M1204.613,1303.738s14.394-7.51,21.286-5.786c8.7,2.178,25.544,14.76,25.544,14.76l-27.544,4.9Z" transform="translate(-802.752 1034.351)" fill="#4c9fea"/>
    <g id="Group_7073-2" data-name="Group 7073" transform="translate(255.029 2309.974)">
      <path id="Path_12071" data-name="Path 12071" d="M306.293,1160.182l-14.221-8.062s-28.677,10.138-38.225,15.949-17.663,20.539-17.663,20.539h73.355Z" transform="translate(-236.183 -1152.12)" fill="#1f87e5"/>
      <path id="Path_12072" data-name="Path 12072" d="M604.8,1152.12s26.448.844,36,2.92,72.221,29.635,72.221,29.635l53.8-4.981,1.245,8.915s-48.976,24.627-60.185,27.119-86.972-27.119-86.972-27.119Z" transform="translate(-548.908 -1152.12)" fill="#1f87e5"/>
      <path id="Path_12073" data-name="Path 12073" d="M1674.606,1342.9l-1.245-8.915s17.732.72,19.927.83,15.776,8.084,15.776,8.084Z" transform="translate(-1455.458 -1306.409)" fill="#e0c3af"/>
    </g>
  </g>
</svg>
