<svg xmlns="http://www.w3.org/2000/svg" xmlns:xlink="http://www.w3.org/1999/xlink" width="480.571" height="365.531" viewBox="0 0 480.571 365.531">
  <defs>
    <clipPath id="clip-path">
      <path id="Path_9882" data-name="Path 9882" d="M114.492-79.4a24.741,24.741,0,0,0,12.639-3.581h0v-1.542a30.439,30.439,0,0,1-5.989.919h0l-.34.019h0a48.225,48.225,0,0,1-5.365.305h0a43.828,43.828,0,0,1-22.39-6.033h0c8.015,7.55,15.374,9.913,21.445,9.913" transform="translate(-93.047 89.314)" fill="none"/>
    </clipPath>
  </defs>
  <g id="Group_7018" data-name="Group 7018" transform="translate(-749.427 -214.614)">
    <g id="Group_6078" data-name="Group 6078" transform="translate(749.427 546.478)">
      <path id="Path_9832" data-name="Path 9832" d="M183.867,0C66.421,0-84.327,7.538-84.327,16.834S66.421,33.668,183.867,33.668,396.244,26.13,396.244,16.834,301.316,0,183.867,0" transform="translate(84.327)" fill="#fafafa"/>
    </g>
    <g id="Group_6083" data-name="Group 6083" transform="translate(778.669 467.472)">
      <path id="Path_9834" data-name="Path 9834" d="M5.362,66.446H-2.459l21.6-96.92h7.821Z" transform="translate(2.459 30.474)" fill="#f5f5f5"/>
    </g>
    <path id="Path_9835" data-name="Path 9835" d="M53.5,61.493H45.678v-96.92H53.5Z" transform="translate(849.025 502.899)" fill="#f5f5f5"/>
    <g id="Group_6084" data-name="Group 6084" transform="translate(768.435 342.689)">
      <path id="Path_9836" data-name="Path 9836" d="M29.9,84.168,8.156-15.84A35.935,35.935,0,0,0-13.712-38.6L17.09,91.012Z" transform="translate(13.712 38.602)" fill="#fff200"/>
    </g>
    <path id="Path_9838" data-name="Path 9838" d="M119.158-24.526H15.661V-38.211h103.5Z" transform="translate(783.576 496.829)" fill="#fff200"/>
    <g id="Group_6086" data-name="Group 6086" transform="translate(918.175 340.073)">
      <path id="Path_9839" data-name="Path 9839" d="M0,4.716,8-2.163l4.306,4.494-7.544,9.7Z" transform="translate(0 2.163)" fill="#f9dbc6"/>
    </g>
    <g id="Group_6087" data-name="Group 6087" transform="translate(863.957 343.847)">
      <path id="Path_9840" data-name="Path 9840" d="M38.693,0l7.022,7.83L6.288,40.235l-24.034-8.259,4.79-13.469Z" transform="translate(17.746)" fill="#dfdfdf"/>
    </g>
    <g id="Group_6088" data-name="Group 6088" transform="translate(923.603 328.041)">
      <path id="Path_9841" data-name="Path 9841" d="M10.078,9.106C5.9,13.549-.484,15.661-3.372,12.948S-3.788,4.8.388.36,8.53-5.514,11.417-2.8,14.251,4.66,10.078,9.106" transform="translate(4.622 4.176)" fill="#f9dbc6"/>
    </g>
    <g id="Group_6089" data-name="Group 6089" transform="translate(830.9 246.67)">
      <path id="Path_9842" data-name="Path 9842" d="M9.637.5c8.1-2.048,19.3-.413,21.608,13.17C32.863,23.192,34.8,39.7,28.8,41.81c-2.662.932-12.846,0-12.846,0L18.1,53.123H-.563L2.5,36.915S-17.079,7.249,9.637.5" transform="translate(4.42 0.229)" fill="#f9dbc6"/>
    </g>
    <g id="Group_6090" data-name="Group 6090" transform="translate(823.361 241.672)">
      <path id="Path_9843" data-name="Path 9843" d="M25.553,5.152,13.3,23.16c-2.172-4.068-5.454-3-7.181.3C4,27.5,8.789,30.961,8.338,32.329s-4.542,7.3-5.6,7.452S-18.6,30.713-9.275,7.512c4.3-10.7,22.753-14.449,34.829-2.36" transform="translate(11.719 2.363)" fill="#42454a"/>
    </g>
    <g id="Group_6091" data-name="Group 6091" transform="translate(828.506 221.678)">
      <path id="Path_9844" data-name="Path 9844" d="M12.966,6.515c1.5,6.431-1.587,11.379-7.436,12.744s-9.5-2.217-10.995-8.648S-5-1.366.845-2.731,11.471.087,12.966,6.515" transform="translate(5.947 2.988)" fill="#42454a"/>
    </g>
    <g id="Group_6092" data-name="Group 6092" transform="translate(823.074 422.793)">
      <path id="Path_9845" data-name="Path 9845" d="M58.521,21.35c3.657,6.812,5.073,2.379,15.018,27.3C78.984,62.3,90.57,78.416,96.953,87.4l12.162-4.545C100.979,61.239,82.094,9.8,77.142,1.517,70.3-9.923,10.783-1.937,10.783-1.937s-22.2-14.4-37.468-4.2C-30.96-3.285,54.864,14.538,58.521,21.35" transform="translate(26.84 9.792)" fill="#1975d1"/>
    </g>
    <g id="Group_6094" data-name="Group 6094" transform="translate(954.125 528.692)">
      <path id="Path_9847" data-name="Path 9847" d="M27.015,5.846-8.745,19.817-12.39,6.847,1.477-2.681,24.789-.429Z" transform="translate(12.39 2.681)" fill="#42454a"/>
    </g>
    <g id="Group_6095" data-name="Group 6095" transform="translate(950.087 521.335)">
      <path id="Path_9848" data-name="Path 9848" d="M3.469,11.129,14.1,3.766,9.337-5.1-1.591-.241Z" transform="translate(1.591 5.104)" fill="#fff"/>
    </g>
    <g id="Group_6096" data-name="Group 6096" transform="translate(946.866 515.656)">
      <path id="Path_9849" data-name="Path 9849" d="M9.7,3.894-1.23,8.757-4.449,2.543,7.163-1.786Z" transform="translate(4.449 1.786)" fill="#f9dbc6"/>
    </g>
    <g id="Group_6097" data-name="Group 6097" transform="translate(812.017 415.935)">
      <path id="Path_9850" data-name="Path 9850" d="M.134,18.865c1.743,28.846,78.8,8.632,81.32,15.943s.935,10.766,5.232,33.445c2.5,13.186,9.84,32.078,14.7,41.969l12.012-2.385c-4.564-22.644-10.187-76.889-12.149-86.074C98.462,8.729,39.815,3.688,39.815,3.688S20.571-14.4,3.864-6.779C-.814-4.644-.13,14.5.134,18.865" transform="translate(0.061 8.652)" fill="#1e87e5"/>
    </g>
    <g id="Group_6099" data-name="Group 6099" transform="translate(912.815 546.894)">
      <path id="Path_9852" data-name="Path 9852" d="M26.309,11.386l-38.375,1.154L-11.141-.9,5.115-5.222l21.2,9.948Z" transform="translate(12.066 5.222)" fill="#42454a"/>
    </g>
    <g id="Group_6100" data-name="Group 6100" transform="translate(913.973 537.623)">
      <path id="Path_9853" data-name="Path 9853" d="M.65,9.132,14.179,5.5,12.195-4.188-.3-3.278Z" transform="translate(0.298 4.188)" fill="#fff"/>
    </g>
    <g id="Group_6101" data-name="Group 6101" transform="translate(913.462 532.423)">
      <path id="Path_9854" data-name="Path 9854" d="M8.913,3.565l-12.493.91L-4.088.753,7.924-1.635Z" transform="translate(4.088 1.635)" fill="#f9dbc6"/>
    </g>
    <g id="Group_6102" data-name="Group 6102" transform="translate(796.7 281.587)">
      <path id="Path_9855" data-name="Path 9855" d="M41.089,9.679l-57.6-14.118S-28.209,32.05.78,33.754,41.089,9.679,41.089,9.679" transform="translate(18.845 4.439)" fill="#f5f5f5"/>
    </g>
    <g id="Group_6103" data-name="Group 6103" transform="translate(808.093 293.655)">
      <path id="Path_9856" data-name="Path 9856" d="M22.491.152C14.206.667,6.061,2.667.721,18.315-6.893,39.856-10.118,77.407-10.315,148.657l67.234-13.65C49.954,98.486,51.006,13.681,38.224,1.98,32.91-.255,29.535-.287,22.491.152" transform="translate(10.315 0.07)" fill="#f5f5f5"/>
    </g>
    <g id="Group_6104" data-name="Group 6104" transform="translate(836.667 317.636)">
      <path id="Path_9857" data-name="Path 9857" d="M18.919.256,34.436,49.307l51.828,4.376-.948,11.981s-30.09,5.5-56.465,5.448a113,113,0,0,1-37.242-6.8C-11.724,62.14,15.156-5.723,18.919.256" transform="translate(8.677 0.117)" fill="#f5f5f5"/>
    </g>
    <g id="Group_6105" data-name="Group 6105" transform="translate(936.307 372.524)">
      <path id="Path_9858" data-name="Path 9858" d="M8.761.028c6.784.436,12.063,4.2,11.793,8.419a5.15,5.15,0,0,1-.913,2.579L-2.484,10.95A5.676,5.676,0,0,1-4.008,6.879C-3.738,2.662,1.981-.407,8.761.028" transform="translate(4.018 0.013)" fill="#f9dbc6"/>
    </g>
    <g id="Group_6107" data-name="Group 6107" transform="translate(930.481 375.196)">
      <path id="Path_9860" data-name="Path 9860" d="M.693,0l9.338,1.632L8.969,8.285-.318,8.269Z" transform="translate(0.318)" fill="#f9dbc6"/>
    </g>
    <g id="Group_6108" data-name="Group 6108" transform="translate(1152.727 386.875)">
      <path id="Path_9861" data-name="Path 9861" d="M22.469,122.148H16.7l-27-178.169H.865Z" transform="translate(10.305 56.021)" fill="#42454a"/>
    </g>
    <g id="Group_6109" data-name="Group 6109" transform="translate(909.79 386.875)">
      <path id="Path_9862" data-name="Path 9862" d="M0,122.148H5.769l27-178.169H21.6Z" transform="translate(0 56.021)" fill="#42454a"/>
    </g>
    <path id="Path_9863" data-name="Path 9863" d="M335.207-54.663H49.2v-7.245H335.207Z" transform="translate(856.704 445.16)" fill="#42454a"/>
    <g id="Group_6110" data-name="Group 6110" transform="translate(1022 221.007)">
      <path id="Path_9864" data-name="Path 9864" d="M17.424.309C8.595-1.923-4.117,4.326-6.114,14.656S-9.991,43.009-3.449,45.3c2.9,1.018,13.991,0,13.991,0L8.21,57.63H28.533L25.2,39.975S46.521,7.659,17.424.309" transform="translate(7.991 0.142)" fill="#c69682"/>
    </g>
    <g id="Group_6111" data-name="Group 6111" transform="translate(1019.122 214.614)">
      <path id="Path_9865" data-name="Path 9865" d="M5.13,10.285S-4.061,1.491-2.07-1.273C-.852-2.968,4.7,2.254,6.055.661,7.143-.621.8-3.744,2.417-4.218,10.11-6.485,36.078-.653,36.8,5.73S5.13,10.285,5.13,10.285" transform="translate(2.353 4.717)" fill="#42454a"/>
    </g>
    <g id="Group_6112" data-name="Group 6112" transform="translate(1039.951 349.392)">
      <path id="Path_9866" data-name="Path 9866" d="M33.382,6.839s-4.717,50.432-6.459,96.983a466.121,466.121,0,0,1-.3,76.26l-19.7.035C6.759,169.924,4.564,139,.245,105.807-6.1,57.054-15.31,3.414-15.31,3.414s40.6-16.808,48.692,3.425" transform="translate(15.31 3.137)" fill="#42454a"/>
    </g>
    <g id="Group_6114" data-name="Group 6114" transform="translate(1064.203 540.405)">
      <path id="Path_9868" data-name="Path 9868" d="M.748,12.13,14.048,8.5,13.737-5.563l-14.08,0Z" transform="translate(0.343 5.563)" fill="#fff"/>
    </g>
    <g id="Group_6115" data-name="Group 6115" transform="translate(1063.564 532.646)">
      <path id="Path_9869" data-name="Path 9869" d="M10.091,5.32l-14.08,0L-4.628-2.44H10.091Z" transform="translate(4.628 2.44)" fill="#c69682"/>
    </g>
    <g id="Group_6116" data-name="Group 6116" transform="translate(1062.188 550.739)">
      <path id="Path_9870" data-name="Path 9870" d="M0,14.273H23.052V8.831L16.77-6.546H2.395L0,8.831Z" transform="translate(0 6.546)" fill="#42454a"/>
    </g>
    <g id="Group_6117" data-name="Group 6117" transform="translate(995.225 424.811)">
      <path id="Path_9871" data-name="Path 9871" d="M2.762,24.93A466.312,466.312,0,0,0,23,98.457l19.019-5.12c-2.5-9.881-8.476-40.305-12.989-73.47C22.4-28.848-13.067-15.652,2.762,24.93" transform="translate(1.267 11.434)" fill="#42454a"/>
    </g>
    <g id="Group_6119" data-name="Group 6119" transform="translate(1025.004 537.602)">
      <path id="Path_9873" data-name="Path 9873" d="M11.768,11.9l-13.787-.022L-5.4-1.778,8.2-5.458Z" transform="translate(5.397 5.458)" fill="#fff"/>
    </g>
    <g id="Group_6120" data-name="Group 6120" transform="translate(1022.976 529.94)">
      <path id="Path_9874" data-name="Path 9874" d="M1.391,7.775,14.981,4.1,13.569-3.566-.638.285Z" transform="translate(0.638 3.566)" fill="#c69682"/>
    </g>
    <g id="Group_6121" data-name="Group 6121" transform="translate(1025.016 547.671)">
      <path id="Path_9875" data-name="Path 9875" d="M16.229,13.346l-22.247,6.03-1.425-5.254L-5.4-2.362,8.472-6.121,14.807,8.1Z" transform="translate(7.443 6.121)" fill="#42454a"/>
    </g>
    <g id="Group_6122" data-name="Group 6122" transform="translate(1004.438 273.931)">
      <path id="Path_9876" data-name="Path 9876" d="M32.667.11c9.026.56,20.689-2.417,26.509,14.627C63.638,45.469,71.267,177.17,71.267,177.17l-86.249.639S-7.161,50.886,3.636,5.314C6.972-.093,25-.367,32.667.11" transform="translate(14.982 0.051)" fill="#1e87e5"/>
    </g>
    <g id="Group_6123" data-name="Group 6123" transform="translate(985.04 286.496)">
      <path id="Path_9877" data-name="Path 9877" d="M26.494,0S-5.736,6.762-11.82,81.2c-4.033,49.322,30.163,68.566,30.163,68.566l24.445-5.187S26.2,80.96,28.7,50.346C29.884,35.875,26.494,0,26.494,0" transform="translate(12.151)" fill="#1e87e5"/>
    </g>
    <g id="Group_6124" data-name="Group 6124" transform="translate(1029.544 260.195)">
      <path id="Path_9878" data-name="Path 9878" d="M0,10.54,62.74-4.834s12.744,39.742-18.834,41.6S0,10.54,0,10.54" transform="translate(0 4.834)" fill="#1e87e5"/>
    </g>
    <g id="Group_6125" data-name="Group 6125" transform="translate(1079.439 292.743)">
      <path id="Path_9879" data-name="Path 9879" d="M0,0S40.646,63.945,36.68,83.276,0,120.454,0,120.454Z" fill="#1e87e5"/>
    </g>
    <g id="Group_6127" data-name="Group 6127" transform="translate(1045.355 296.089)" clip-path="url(#clip-path)">
      <path id="Path_9881" data-name="Path 9881" d="M93.047-79.4h34.084v-9.916H93.047Z" transform="translate(-93.047 89.314)" fill="#1c72bf"/>
    </g>
    <g id="Group_6128" data-name="Group 6128" transform="translate(1073.11 299.371)">
      <path id="Path_9883" data-name="Path 9883" d="M4.339.887A47.385,47.385,0,0,1-1.99,2.039l.34-.019A30.212,30.212,0,0,0,4.339,1.1ZM8.429-.407v0h0v0" transform="translate(1.99 0.407)" fill="#1c72bf"/>
    </g>
    <g id="Group_6129" data-name="Group 6129" transform="translate(1079.438 299.373)">
      <path id="Path_9884" data-name="Path 9884" d="M2.8,0a31.668,31.668,0,0,1-4.09,1.291V3.047A22.18,22.18,0,0,0,2.8,0Z" transform="translate(1.286)" fill="#1c72bf"/>
    </g>
    <g id="Group_6130" data-name="Group 6130" transform="translate(1019.762 220.065)">
      <path id="Path_9885" data-name="Path 9885" d="M.671,24.849C.957,20.686.8,20.5,5.814,20.48s6.415,6.424,9.14,6.122c1.593-.175,7.34-12.833,2.913-21.417C15.352.306,6.536-1.847,6.536-1.847c3.9-14.7,31.12-10.8,36.123.712,5.321,12.27-6.38,30.958-7.534,30.8s-5.607-6.631-6.1-8.116,4.729-5.254,2.417-9.665c-1.88-3.587-5.454-4.755-7.824-.324a21.439,21.439,0,0,1-1.32,2.214c-.7,6.265.321,16.723-1.11,19.505C18.761,37.969,1.749,35.233.3,34.954s.1-6.132.369-10.1" transform="translate(0.308 11.397)" fill="#42454a"/>
    </g>
    <path id="Path_9887" data-name="Path 9887" d="M110.122,66.386h7.334V-33.956h-7.334Z" transform="translate(989.539 506.106)" fill="#f5f5f5"/>
    <path id="Path_9888" data-name="Path 9888" d="M80.274,72.31H87.6V-36.673H80.274Z" transform="translate(924.458 500.182)" fill="#f5f5f5"/>
    <g id="Group_6132" data-name="Group 6132" transform="translate(991.848 458.617)">
      <path id="Path_9889" data-name="Path 9889" d="M54.085,5.68a5.4,5.4,0,0,1-5.4,5.4H-19.4a5.4,5.4,0,0,1-5.4-5.4V2.8a5.4,5.4,0,0,1,5.4-5.4H48.685a5.4,5.4,0,0,1,5.4,5.4Z" transform="translate(24.805 2.605)" fill="#fff200"/>
    </g>
    <g id="Group_6134" data-name="Group 6134" transform="translate(1004.549 342.689)">
      <path id="Path_9891" data-name="Path 9891" d="M70.492,88.86H-32.33L-19.825-40.754H57.987Z" transform="translate(32.33 40.754)" fill="#fff200"/>
    </g>
  </g>
</svg>
