<svg xmlns="http://www.w3.org/2000/svg" xmlns:xlink="http://www.w3.org/1999/xlink" width="478" height="236" viewBox="0 0 478 236">
  <defs>
    <clipPath id="clip-path">
      <rect id="Rectangle_4393" data-name="Rectangle 4393" width="478" height="236" transform="translate(683 997)" fill="#f5f5f5"/>
    </clipPath>
  </defs>
  <g id="Mask_Group_69" data-name="Mask Group 69" transform="translate(-683 -997)" clip-path="url(#clip-path)">
    <g id="Group_7679" data-name="Group 7679" transform="translate(-6805.57 5007.906)">
      <path id="sleeve" d="M8572.912-2836.588s43.629-34.64,54.512-38.246,48.281-22.388,48.281-22.388l-36.67,39.44-47.773,22.154Z" transform="translate(-822.67 -915.674)" fill="#ccb200"/>
      <path id="Path_13354" data-name="Path 13354" d="M8250.12-3654.3s34.346.891,43.239,9.8,45.076,75.262,45.076,75.262Z" transform="translate(-557.209 -293.062)" fill="#e3bb94"/>
      <path id="Path_13355" data-name="Path 13355" d="M7901.8-3220.792s1.927,24.58,2.481,30.181,25.831.68,25.171-15.048c-.376-8.909-9.853-31.753-16.927-32.52C7908.614-3238.6,7901.8-3220.792,7901.8-3220.792Z" transform="translate(-270.755 -635.27)" fill="#d4a87f"/>
      <path id="Path_13356" data-name="Path 13356" d="M7802.985-3332.618s.661,14.957,2,22.038,20.15,10.15,23.62-12.369-10.062-34.83-10.062-34.83Z" transform="translate(-189.49 -536.919)" fill="#e3bb94"/>
      <path id="Path_13357" data-name="Path 13357" d="M7597.622-3694.469s-20.526,1.818-23.752,1.913-3.308,28.389,34.985,22.311S7597.622-3694.469,7597.622-3694.469Z" transform="translate(0 -260.029)" fill="#efcaa6"/>
      <path id="Path_13358" data-name="Path 13358" d="M7726.786-3425.81s-15.363,6.356-18.842,13.052-6.491,16.135-9,21.134,15.363,22.09,32.014-12.115S7726.786-3425.81,7726.786-3425.81Z" transform="translate(-103.736 -479.252)" fill="#efcaa6"/>
      <path id="Path_13359" data-name="Path 13359" d="M8166.986-3393.127s28.83,47.971,74.936,42.039c0,0,8.247,30.617,14.462,49.45,1.4,4.23,85.784-34.195,85.784-34.195s-17.308-26.029-25.132-43.1c-17.742-38.7-82.826-98.269-82.826-98.269Z" transform="translate(-488.841 -438.707)" fill="#efcaa6"/>
      <path id="Path_13360" data-name="Path 13360" d="M7803.545-3275.333l-.482-.571a58.935,58.935,0,0,0,5.6-5.633c2.7-3.1,6.22-7.806,7.64-12.658l.716.21C7814.237-3284.461,7803.653-3275.423,7803.545-3275.333Z" transform="translate(-189.555 -589.21)" fill="#d4a87f"/>
      <path id="Path_13361" data-name="Path 13361" d="M7905.913-3163.5l-.5-.557c.1-.087,9.8-8.875,9.759-18.451l.748,0c.021,5.194-2.7,10.089-5,13.282A39,39,0,0,1,7905.913-3163.5Z" transform="translate(-273.727 -681.056)" fill="#d4a87f"/>
      <g id="phone" transform="translate(7584.958 -4010.656)">
        <g id="Group_7567" data-name="Group 7567" transform="translate(0 0)">
          <g id="Group_7566" data-name="Group 7566">
            <path id="Path_13362" data-name="Path 13362" d="M7665.762-3966.982c-6.737,3.125-9.606,12.892-6.481,19.631l71.18,153.5c3.124,6.737,12.855,10.46,19.594,7.334l60.737-28.164c6.739-3.125,10.43-12.868,7.3-19.607l-71.333-153.831c-3.124-6.739-12.354-10.693-19.094-7.568Z" transform="translate(-7655.229 3999.24)" fill="#eceded"/>
            <path id="Path_13363" data-name="Path 13363" d="M7799.169-3824.026l-61.115,28.34a17.169,17.169,0,0,1-22.772-8.344l-71.376-153.921a17.167,17.167,0,0,1,8.345-22.774l61.114-28.341a17.171,17.171,0,0,1,22.772,8.344l71.377,153.923A17.171,17.171,0,0,1,7799.169-3824.026ZM7653.8-3977.388a13.488,13.488,0,0,0-6.556,17.889l71.376,153.922a13.487,13.487,0,0,0,17.889,6.554l61.114-28.34a13.484,13.484,0,0,0,6.553-17.888L7732.8-3999.174a13.488,13.488,0,0,0-17.889-6.554Z" transform="translate(-7642.315 4010.656)" fill="#333"/>
            <rect id="Rectangle_4355" data-name="Rectangle 4355" width="3.977" height="16.553" transform="translate(108.014 46.661) rotate(-24.878)" fill="#333"/>
            <g id="Group_7565" data-name="Group 7565" transform="translate(14.526 82.257)">
              <rect id="Rectangle_4356" data-name="Rectangle 4356" width="3.977" height="11.771" transform="translate(0 1.673) rotate(-24.878)" fill="#333"/>
              <rect id="Rectangle_4357" data-name="Rectangle 4357" width="3.977" height="11.771" transform="translate(6.654 16.024) rotate(-24.878)" fill="#333"/>
            </g>
          </g>
        </g>
      </g>
      <path id="Path_13364" data-name="Path 13364" d="M8656.147-2879.024l12.045-13.177,26.693-8.491-22.813,14.283Z" transform="translate(-891.122 -912.822)" fill="#d4a87f"/>
      <g id="interface" transform="translate(7596.101 -4001.624)">
        <g id="Group_7570" data-name="Group 7570" transform="translate(0 0)">
          <g id="Group_7568" data-name="Group 7568" transform="translate(30.213 13.388)">
            <path id="Path_13365" data-name="Path 13365" d="M7875.215-3869.717a.89.89,0,0,1,.5-.544.88.88,0,0,1,1.044.147,2.213,2.213,0,0,1,.485.717,2.485,2.485,0,0,1,.243.834.918.918,0,0,1-.559.981.943.943,0,0,1-.6.07.744.744,0,0,1-.495-.377l.5-.233a.341.341,0,0,0,.183.14.323.323,0,0,0,.241-.025.4.4,0,0,0,.222-.44,1.7,1.7,0,0,0-.135-.477.65.65,0,0,1-.087.2.731.731,0,0,1-.31.247.87.87,0,0,1-.642.041.851.851,0,0,1-.522-.5A1.037,1.037,0,0,1,7875.215-3869.717Zm1.324.627a.46.46,0,0,0,0-.461.6.6,0,0,0-.263-.3.374.374,0,0,0-.339,0,.384.384,0,0,0-.188.176.512.512,0,0,0,.032.452.6.6,0,0,0,.253.3.387.387,0,0,0,.341-.018A.392.392,0,0,0,7876.539-3869.09Z" transform="translate(-7875.169 3872.864)" fill="#333"/>
            <path id="Path_13366" data-name="Path 13366" d="M7888.419-3870.609l.537-.25.247.531-.536.25Zm.616,1.329.539-.25.246.531-.538.249Z" transform="translate(-7886.065 3873.267)" fill="#333"/>
            <path id="Path_13367" data-name="Path 13367" d="M7897.718-3877.8l-.29.135.255.554-.495.229-.254-.554-1.021.473-.2-.442.222-2,.566-.263.747,1.608.292-.135Zm-.969-.031-.514-1.108-.128,1.406Z" transform="translate(-7892.061 3880.513)" fill="#333"/>
            <path id="Path_13368" data-name="Path 13368" d="M7905.2-3883.1l-.159-.343a2.521,2.521,0,0,0,.321-.187.516.516,0,0,0,.184-.25.477.477,0,0,0,.013-.231.515.515,0,0,0-.026-.111l.42-.2,1.195,2.574-.52.24-.822-1.774Z" transform="translate(-7899.73 3884.423)" fill="#333"/>
          </g>
          <g id="Group_7569" data-name="Group 7569" transform="translate(0 29.42)">
            <rect id="Rectangle_4358" data-name="Rectangle 4358" width="0.661" height="1.321" transform="translate(0 3.144) rotate(-24.878)" fill="#333"/>
            <rect id="Rectangle_4359" data-name="Rectangle 4359" width="0.661" height="1.762" transform="translate(1.013 2.189) rotate(-24.878)" fill="#333"/>
            <rect id="Rectangle_4360" data-name="Rectangle 4360" width="0.661" height="2.202" transform="translate(2.027 1.233) rotate(-24.878)" fill="#333"/>
            <rect id="Rectangle_4361" data-name="Rectangle 4361" width="0.661" height="2.643" transform="translate(3.04 0.278) rotate(-24.878)" fill="#333"/>
          </g>
          <rect id="Rectangle_4362" data-name="Rectangle 4362" width="4.872" height="2.118" rx="1.059" transform="translate(63.286 2.05) rotate(-24.878)" fill="#333"/>
          <rect id="Rectangle_4363" data-name="Rectangle 4363" width="1.271" height="0.635" rx="0.318" transform="matrix(0.907, -0.421, 0.421, 0.907, 67.262, 1.023)" fill="#333"/>
        </g>
        <g id="Group_7571" data-name="Group 7571" transform="translate(70.893 164.927)">
          <path id="Path_13369" data-name="Path 13369" d="M8107.854-2892.574a3.644,3.644,0,0,1-3.309-2.109,3.645,3.645,0,0,1,1.771-4.835,3.646,3.646,0,0,1,4.835,1.772h0a3.611,3.611,0,0,1,.116,2.784,3.624,3.624,0,0,1-1.886,2.051A3.62,3.62,0,0,1,8107.854-2892.574Zm-.01-6.535a2.868,2.868,0,0,0-1.212.268,2.9,2.9,0,0,0-1.409,3.843,2.9,2.9,0,0,0,3.844,1.408,2.867,2.867,0,0,0,1.5-1.63,2.876,2.876,0,0,0-.09-2.213A2.9,2.9,0,0,0,8107.844-2899.109Z" transform="translate(-8104.207 2923.188)" fill="#bcbcbc"/>
          <path id="Path_13370" data-name="Path 13370" d="M8202.281-2936.363a3.644,3.644,0,0,1-3.31-2.109,3.645,3.645,0,0,1,1.772-4.835,3.646,3.646,0,0,1,4.835,1.772h0a3.644,3.644,0,0,1-1.771,4.835A3.62,3.62,0,0,1,8202.281-2936.363Zm-.011-6.535a2.869,2.869,0,0,0-1.213.269,2.9,2.9,0,0,0-1.408,3.843,2.9,2.9,0,0,0,3.842,1.408,2.9,2.9,0,0,0,1.409-3.843A2.9,2.9,0,0,0,8202.271-2942.9Z" transform="translate(-8181.863 2959.2)" fill="#bcbcbc"/>
          <path id="Path_13371" data-name="Path 13371" d="M8296.7-2980.148a3.647,3.647,0,0,1-1.255-.224,3.617,3.617,0,0,1-2.049-1.887,3.645,3.645,0,0,1,1.771-4.835,3.646,3.646,0,0,1,4.836,1.771h0a3.628,3.628,0,0,1,.116,2.784,3.615,3.615,0,0,1-1.889,2.051A3.626,3.626,0,0,1,8296.7-2980.148Zm0-6.539a2.892,2.892,0,0,0-1.216.27,2.9,2.9,0,0,0-1.409,3.844,2.868,2.868,0,0,0,1.631,1.5,2.878,2.878,0,0,0,2.215-.092,2.867,2.867,0,0,0,1.5-1.631,2.858,2.858,0,0,0-.092-2.213,2.868,2.868,0,0,0-1.629-1.5A2.907,2.907,0,0,0,8296.7-2986.687Z" transform="translate(-8259.521 2995.209)" fill="#333"/>
          <path id="Path_13372" data-name="Path 13372" d="M8391.132-3023.935a3.619,3.619,0,0,1-1.255-.225,3.61,3.61,0,0,1-2.05-1.886,3.643,3.643,0,0,1,1.77-4.836,3.649,3.649,0,0,1,4.838,1.772h0a3.647,3.647,0,0,1-1.772,4.834A3.617,3.617,0,0,1,8391.132-3023.935Zm-.009-6.537a2.891,2.891,0,0,0-1.212.268,2.9,2.9,0,0,0-1.407,3.844,2.888,2.888,0,0,0,1.629,1.5,2.879,2.879,0,0,0,2.215-.092,2.9,2.9,0,0,0,1.407-3.844A2.9,2.9,0,0,0,8391.123-3030.472Z" transform="translate(-8337.175 3031.219)" fill="#bcbcbc"/>
        </g>
        <g id="Group_7573" data-name="Group 7573" transform="translate(0.131 8.801)">
          <rect id="Rectangle_4364" data-name="Rectangle 4364" width="84.965" height="11.017" rx="5.509" transform="translate(0 35.743) rotate(-24.878)" fill="#fff"/>
          <g id="Group_7572" data-name="Group 7572" transform="translate(4.062 36.806)">
            <path id="Path_13373" data-name="Path 13373" d="M7729.93-3702.822a2.171,2.171,0,0,0-1.057,2.883c.64,1.379,3.158,1.648,3.158,1.648s1.421-2.1.781-3.474A2.169,2.169,0,0,0,7729.93-3702.822Zm1.294,2.794a.909.909,0,0,1-1.206-.442.911.911,0,0,1,.441-1.206.91.91,0,0,1,1.207.442A.908.908,0,0,1,7731.225-3700.028Z" transform="translate(-7728.671 3703.024)" fill="#bcbcbc"/>
          </g>
        </g>
        <g id="Group_7583" data-name="Group 7583" transform="translate(7.83 25.403)">
          <rect id="Rectangle_4365" data-name="Rectangle 4365" width="84.965" height="58.262" rx="4" transform="translate(0 35.743) rotate(-24.878)" fill="#009cdf"/>
          <rect id="Rectangle_4366" data-name="Rectangle 4366" width="84.965" height="56.394" rx="4" transform="translate(15.083 68.27) rotate(-24.878)" fill="#fdd835"/>
          <g id="Group_7582" data-name="Group 7582" transform="translate(8.709 4.184)">
            <rect id="Rectangle_4367" data-name="Rectangle 4367" width="12.449" height="12.449" rx="2" transform="translate(85.495 70.657) rotate(-24.878)" fill="#fff" opacity="0.57"/>
            <rect id="Rectangle_4368" data-name="Rectangle 4368" width="12.449" height="12.449" rx="2" transform="translate(26.427 98.047) rotate(-24.878)" fill="#fff" opacity="0.57"/>
            <rect id="Rectangle_4369" data-name="Rectangle 4369" width="17.74" height="1.307" transform="translate(42.057 94.985) rotate(-24.878)" fill="#333"/>
            <rect id="Rectangle_4370" data-name="Rectangle 4370" width="42.576" height="2.241" transform="translate(43.431 97.948) rotate(-24.875)" fill="#333"/>
            <g id="Group_7574" data-name="Group 7574" transform="translate(22.007 76.461)">
              <path id="Path_13374" data-name="Path 13374" d="M7923.1-3328.651a1.742,1.742,0,0,0-.847,2.313l1.519,3.276a1.742,1.742,0,0,0,2.314.848l10.785-5-2.985-6.438Z" transform="translate(-7922.09 3338.817)" fill="#fff" opacity="0.57"/>
              <path id="Path_13375" data-name="Path 13375" d="M8003.122-3358.441l-1.518-3.276a1.743,1.743,0,0,0-2.313-.848l-10.788,5,2.985,6.438,10.787-5A1.741,1.741,0,0,0,8003.122-3358.441Z" transform="translate(-7976.708 3362.727)" fill="#fff"/>
            </g>
            <rect id="Rectangle_4371" data-name="Rectangle 4371" width="4.295" height="0.747" transform="translate(26.445 87.507) rotate(-24.887)" fill="#333"/>
            <rect id="Rectangle_4372" data-name="Rectangle 4372" width="7.283" height="0.747" transform="translate(25.993 90.084) rotate(-24.887)" fill="#333"/>
            <g id="Group_7575" data-name="Group 7575" transform="translate(48.096 64.363)">
              <path id="Path_13376" data-name="Path 13376" d="M8069.987-3396.766a1.741,1.741,0,0,0-.849,2.313l1.52,3.276a1.742,1.742,0,0,0,2.313.848l10.787-5-2.986-6.437Z" transform="translate(-8068.977 3406.931)" fill="#fff" opacity="0.57"/>
              <path id="Path_13377" data-name="Path 13377" d="M8150.011-3426.555l-1.521-3.277a1.74,1.74,0,0,0-2.312-.848l-10.787,5,2.987,6.439,10.785-5A1.743,1.743,0,0,0,8150.011-3426.555Z" transform="translate(-8123.595 3430.841)" fill="#fff"/>
            </g>
            <rect id="Rectangle_4373" data-name="Rectangle 4373" width="7.283" height="0.747" transform="translate(51.179 76.038) rotate(-24.887)" fill="#333"/>
            <rect id="Rectangle_4374" data-name="Rectangle 4374" width="4.295" height="0.747" transform="translate(53.437 77.358) rotate(-24.887)" fill="#333"/>
            <rect id="Rectangle_4375" data-name="Rectangle 4375" width="21.101" height="21.101" rx="2" transform="translate(62.627 41.912) rotate(-24.878)" fill="#fff" opacity="0.57"/>
            <path id="Path_13378" data-name="Path 13378" d="M7883.04-3406.708l-1.658-4.874-3.078,1.427,3.038-8.286,1.659,4.873,3.074-1.426Zm-1.219-5.9,1.246,3.659,1.689-4.607-2.195,1.017-1.246-3.658-1.688,4.608Z" transform="translate(-7864.072 3485.007)" fill="#333"/>
            <g id="Group_7576" data-name="Group 7576" transform="translate(25.036 59.33)">
              <path id="Path_13379" data-name="Path 13379" d="M7946.052-3422.495l.751,1.619-5.678,2.634-.752-1.62.693-.322-.56-1.209-.589.273-.684-1.472.59-.273-.409-.883a2.462,2.462,0,0,1,1.288-3.421,2.705,2.705,0,0,1,3.1.465l-1.073,1.519c-.39-.431-.743-.587-1.217-.368a.767.767,0,0,0-.384,1.1l.376.809,2.039-.945.683,1.472-2.041.946.561,1.209Z" transform="translate(-7939.138 3433.093)" fill="#333"/>
              <path id="Path_13380" data-name="Path 13380" d="M7975.672-3440.687a2.706,2.706,0,0,1-1.54,3.7,2.931,2.931,0,0,1-3.36-.359l1.061-1.515a1.19,1.19,0,0,0,1.537.232c.7-.322.83-.832.619-1.283a.906.906,0,0,0-1.325-.381l-2.3,1.068-1.655-4.369,4.258-1.975.734,1.577-2.683,1.244.394,1.043.6-.277A2.594,2.594,0,0,1,7975.672-3440.687Z" transform="translate(-7963.454 3447.982)" fill="#333"/>
              <path id="Path_13381" data-name="Path 13381" d="M8015.441-3413.35a.63.63,0,0,1,.307-.836.633.633,0,0,1,.835.306.634.634,0,0,1-.307.835A.633.633,0,0,1,8015.441-3413.35Z" transform="translate(-8001.841 3422.224)" fill="#333"/>
              <path id="Path_13382" data-name="Path 13382" d="M8019.813-3445.621a1.916,1.916,0,0,1-1.092,2.625,2.076,2.076,0,0,1-2.382-.253l.752-1.073a.846.846,0,0,0,1.092.164c.492-.227.587-.589.437-.909a.642.642,0,0,0-.94-.271l-1.631.757-1.174-3.1,3.019-1.4.519,1.119-1.9.881.28.74.423-.2A1.84,1.84,0,0,1,8019.813-3445.621Z" transform="translate(-8001.421 3450.872)" fill="#333"/>
              <path id="Path_13383" data-name="Path 13383" d="M8047.233-3455.975a1.994,1.994,0,0,1-1.084,2.74,1.989,1.989,0,0,1-2.793-.943,2.089,2.089,0,0,1-.186-1.2l.473-3.162,1.371-.636-.369,2.172A1.972,1.972,0,0,1,8047.233-3455.975Zm-1.194.552a.782.782,0,0,0-1.08-.377.772.772,0,0,0-.41,1.069.773.773,0,0,0,1.081.378A.783.783,0,0,0,8046.04-3455.423Z" transform="translate(-8024.675 3459.176)" fill="#333"/>
            </g>
            <rect id="Rectangle_4376" data-name="Rectangle 4376" width="21.101" height="21.101" rx="2" transform="translate(47.309 8.877) rotate(-24.878)" fill="#0a7eb5"/>
            <g id="Group_7577" data-name="Group 7577" transform="translate(9.717 24.524)">
              <path id="Path_13384" data-name="Path 13384" d="M7859.806-3608.49l.752,1.619-5.678,2.633-.751-1.619.694-.322-.561-1.209-.59.273-.681-1.472.587-.274-.408-.883a2.461,2.461,0,0,1,1.289-3.421,2.7,2.7,0,0,1,3.1.465l-1.071,1.519c-.393-.432-.745-.587-1.218-.367a.766.766,0,0,0-.386,1.1l.375.809,2.041-.946.682,1.473-2.041.946.562,1.21Z" transform="translate(-7852.892 3620.86)" fill="#eceded"/>
              <path id="Path_13385" data-name="Path 13385" d="M7883.5-3627.522l3.413,7.362-1.681.78-2.589-5.584-1.139.962-1.078-1.25,1.6-1.586Z" transform="translate(-7875.533 3632.428)" fill="#eceded"/>
              <path id="Path_13386" data-name="Path 13386" d="M7911.733-3638.041a2.7,2.7,0,0,1-1.541,3.7,2.9,2.9,0,0,1-3.307-.383l1.061-1.514a1.166,1.166,0,0,0,1.486.256c.694-.322.828-.831.618-1.283s-.685-.679-1.378-.356l-.347.16-1.085-.659.55-2.312-2.691,1.248-.733-1.577,4.733-2.195.634,1.367-.522,2.209A2.385,2.385,0,0,1,7911.733-3638.041Z" transform="translate(-7895.224 3645.118)" fill="#eceded"/>
              <path id="Path_13387" data-name="Path 13387" d="M7953.648-3610.683a.634.634,0,0,1,.306-.836.634.634,0,0,1,.836.305.634.634,0,0,1-.306.836A.634.634,0,0,1,7953.648-3610.683Z" transform="translate(-7935.706 3619.314)" fill="#eceded"/>
              <path id="Path_13388" data-name="Path 13388" d="M7958-3641.866l-.471,3.162-1.374.637.369-2.174a1.969,1.969,0,0,1-2.586-1.028,1.993,1.993,0,0,1,1.084-2.74,1.987,1.987,0,0,1,2.791.943A2.09,2.09,0,0,1,7958-3641.866Zm-1.789.421a.773.773,0,0,0,.411-1.069.774.774,0,0,0-1.08-.378.784.784,0,0,0-.411,1.07A.782.782,0,0,0,7956.209-3641.445Z" transform="translate(-7935.822 3646.182)" fill="#eceded"/>
              <path id="Path_13389" data-name="Path 13389" d="M7981.5-3652.765l-.47,3.163-1.373.636.37-2.173a1.971,1.971,0,0,1-2.588-1.029,1.992,1.992,0,0,1,1.084-2.74,1.987,1.987,0,0,1,2.792.943A2.09,2.09,0,0,1,7981.5-3652.765Zm-1.788.421a.774.774,0,0,0,.411-1.069.775.775,0,0,0-1.082-.377.784.784,0,0,0-.409,1.07A.782.782,0,0,0,7979.711-3652.343Z" transform="translate(-7955.149 3655.145)" fill="#eceded"/>
            </g>
            <g id="Group_7578" data-name="Group 7578" transform="translate(91.074 70.674)">
              <path id="Path_13390" data-name="Path 13390" d="M8316.252-3391.5l.576,1.241-4.352,2.017-.577-1.241.535-.247-.432-.927-.45.209-.521-1.128.449-.209-.314-.676a1.887,1.887,0,0,1,.988-2.621,2.07,2.07,0,0,1,2.376.355l-.821,1.164c-.3-.33-.569-.45-.932-.281a.587.587,0,0,0-.3.841l.289.62,1.563-.725.521,1.128-1.562.725.429.927Z" transform="translate(-8310.955 3395.306)" fill="#333"/>
            </g>
            <g id="Group_7579" data-name="Group 7579" transform="translate(0 35.389)">
              <path id="Path_13391" data-name="Path 13391" d="M7801.657-3584.193a3.48,3.48,0,0,1-3.186-2.136,4.739,4.739,0,0,1-.14-2.863,11.9,11.9,0,0,0,.022-4.259l-.095-.523.525.088c3.257.552,5.781,2.609,6.592,4.354h0a3.491,3.491,0,0,1-1.444,4.658l-.294.172.041.026-.211.074-.193.114.007-.048-.321.113A3.906,3.906,0,0,1,7801.657-3584.193Zm-.24-4.827a4.312,4.312,0,0,0,.281,2.317,3.735,3.735,0,0,0,1.34,1.615l.29.186.044-.341a3.742,3.742,0,0,0-.367-2.066A4.306,4.306,0,0,0,7801.417-3589.02Zm-2.244-4.024a12.783,12.783,0,0,1-.1,3.963,4.094,4.094,0,0,0,.081,2.437,2.756,2.756,0,0,0,2.858,1.681,4.772,4.772,0,0,1-.987-1.426,5.312,5.312,0,0,1-.232-3.314l.119-.421.4.182a5.3,5.3,0,0,1,2.38,2.318,4.857,4.857,0,0,1,.452,1.673,2.753,2.753,0,0,0,.562-3.267h0C7803.82-3591.111,7801.3-3592.541,7799.174-3593.044Z" transform="translate(-7798.181 3593.974)" fill="#fff"/>
            </g>
            <g id="Group_7580" data-name="Group 7580" transform="translate(67.95 42.218)">
              <rect id="Rectangle_4377" data-name="Rectangle 4377" width="12.138" height="1.494" transform="translate(0 7.62) rotate(-24.878)" fill="#333"/>
              <rect id="Rectangle_4378" data-name="Rectangle 4378" width="3.921" height="1.494" transform="translate(12.875 1.65) rotate(-24.878)" fill="#333"/>
            </g>
            <g id="Group_7581" data-name="Group 7581" transform="translate(52.631 9.184)">
              <rect id="Rectangle_4379" data-name="Rectangle 4379" width="12.138" height="1.494" transform="translate(0 7.62) rotate(-24.878)" fill="#eceded"/>
              <rect id="Rectangle_4380" data-name="Rectangle 4380" width="3.921" height="1.494" transform="translate(12.875 1.65) rotate(-24.878)" fill="#eceded"/>
            </g>
          </g>
        </g>
        <g id="Group_7598" data-name="Group 7598" transform="translate(49.701 115.698)">
          <rect id="Rectangle_4381" data-name="Rectangle 4381" width="84.965" height="31.932" rx="4" transform="translate(0 35.743) rotate(-24.878)" fill="#fff"/>
          <g id="Group_7597" data-name="Group 7597" transform="translate(6.814 10.857)">
            <g id="Group_7584" data-name="Group 7584" transform="translate(37.457 10.467)">
              <path id="Path_13392" data-name="Path 13392" d="M8238.735-3148.726a4.606,4.606,0,0,1-4.169-2.644,4.578,4.578,0,0,1,2.224-6.07c.121-.054.245-.106.373-.152a4.6,4.6,0,0,1,2.592-3.435,4.592,4.592,0,0,1,5.381,1.157,3.933,3.933,0,0,1,4.4.788,2.608,2.608,0,0,1,1.989-.073,2.606,2.606,0,0,1,1.485,1.365,2.633,2.633,0,0,1,.086,2.015,2.631,2.631,0,0,1-1.368,1.483l-11.761,5.454-.025-.055A4.461,4.461,0,0,1,8238.735-3148.726Zm2.933-11.974a3.811,3.811,0,0,0-1.6.351,3.849,3.849,0,0,0-2.194,3.076l-.025.247-.235.073a3.538,3.538,0,0,0-.506.191,3.831,3.831,0,0,0-1.862,5.078,3.846,3.846,0,0,0,4.769,1.986l.17-.061,11.231-5.209a1.877,1.877,0,0,0,.979-1.063,1.867,1.867,0,0,0-.062-1.444,1.861,1.861,0,0,0-1.062-.979,1.878,1.878,0,0,0-1.444.06h0c-.059.028-.116.059-.18.1l-.269.162-.207-.24a3.178,3.178,0,0,0-3.735-.81c-.073.035-.145.075-.217.115l-.284.159-.2-.261A3.825,3.825,0,0,0,8241.668-3160.7Z" transform="translate(-8234.143 3166.221)" fill="#333"/>
              <path id="Path_13393" data-name="Path 13393" d="M8288.055-3183.2a2.554,2.554,0,0,1-.881-.158,2.531,2.531,0,0,1-1.442-1.328,2.538,2.538,0,0,1-.083-1.96,2.553,2.553,0,0,1,1.328-1.444,2.564,2.564,0,0,1,3.4,1.247h0a2.564,2.564,0,0,1-1.247,3.4A2.547,2.547,0,0,1,8288.055-3183.2Zm0-4.381a1.8,1.8,0,0,0-.76.169,1.824,1.824,0,0,0-.943,1.023,1.818,1.818,0,0,0,.059,1.389,1.808,1.808,0,0,0,1.025.942,1.806,1.806,0,0,0,1.389-.058,1.819,1.819,0,0,0,.883-2.412A1.822,1.822,0,0,0,8288.051-3187.583Z" transform="translate(-8276.372 3188.33)" fill="#333"/>
            </g>
            <g id="Group_7588" data-name="Group 7588" transform="translate(0 20.192)">
              <g id="Group_7587" data-name="Group 7587" transform="translate(0 4.876)">
                <g id="Group_7585" data-name="Group 7585" transform="translate(0 2.431)">
                  <path id="Path_13394" data-name="Path 13394" d="M8029.184-3089.114l4.077,8.792-.666.309-3.739-8.063-1.736,1.584-.433-.5,1.932-1.857Z" transform="translate(-8026.077 3089.703)" fill="#333"/>
                  <path id="Path_13395" data-name="Path 13395" d="M8029.553-3082.154l-3.671-7.917-1.629,1.484-1-1.167,2.286-2.2,1.036-.48,4.451,9.6Z" transform="translate(-8023.252 3092.433)" fill="#333"/>
                </g>
                <g id="Group_7586" data-name="Group 7586" transform="translate(5.358)">
                  <path id="Path_13396" data-name="Path 13396" d="M8063.679-3098.061c.739,1.595-.115,3.075-1.761,3.838s-3.326.458-4.068-1.137a2.581,2.581,0,0,1,.551-2.925,2.429,2.429,0,0,1-2.212-1.415,2.642,2.642,0,0,1,1.525-3.591,2.641,2.641,0,0,1,3.725,1.156,2.433,2.433,0,0,1-.349,2.6A2.574,2.574,0,0,1,8063.679-3098.061Zm-4.066-1.135a1.939,1.939,0,0,0,1.162-2.629,1.917,1.917,0,0,0-2.763-.825,1.917,1.917,0,0,0-1.156,2.641A1.939,1.939,0,0,0,8059.613-3099.2Zm3.389,1.449c-.537-1.156-1.718-1.431-3.086-.8s-1.922,1.715-1.386,2.87,1.723,1.445,3.092.81S8063.543-3096.579,8063-3097.747Z" transform="translate(-8055.483 3104.066)" fill="#333"/>
                  <path id="Path_13397" data-name="Path 13397" d="M8058.181-3095.433a2.972,2.972,0,0,1-2.793-1.794,2.929,2.929,0,0,1,.15-2.786,2.8,2.8,0,0,1-1.813-1.555,2.863,2.863,0,0,1-.023-2.518,3.589,3.589,0,0,1,1.764-1.662,3.611,3.611,0,0,1,2.409-.273,2.867,2.867,0,0,1,1.905,1.646,2.8,2.8,0,0,1,.016,2.389,2.922,2.922,0,0,1,2.223,1.684h0c.8,1.728.011,3.507-1.974,4.428A4.459,4.459,0,0,1,8058.181-3095.433Zm1.028-5.053a2.9,2.9,0,0,0-1.169.291c-.552.255-1.769.989-1.17,2.28s1.951.849,2.5.593,1.768-.99,1.163-2.293A1.376,1.376,0,0,0,8059.209-3100.486Zm-2.145-4.04a2.223,2.223,0,0,0-.928.224,1.518,1.518,0,0,0-.939,2.052,1.513,1.513,0,0,0,2.166.6,1.952,1.952,0,0,0,.968-.887,1.327,1.327,0,0,0-.022-1.152,1.331,1.331,0,0,0-.874-.786A1.413,1.413,0,0,0,8057.064-3104.526Z" transform="translate(-8053.421 3106.121)" fill="#333"/>
                </g>
              </g>
              <path id="Path_13398" data-name="Path 13398" d="M8125.677-3128.815a2.385,2.385,0,0,1-2.166-1.379,2.385,2.385,0,0,1,1.16-3.162,2.388,2.388,0,0,1,2.355.2l-.522.758a1.468,1.468,0,0,0-1.446-.124,1.44,1.44,0,0,0-.756.822,1.455,1.455,0,0,0,.045,1.116,1.463,1.463,0,0,0,1.938.71,1.458,1.458,0,0,0,.845-1.375l.922-.031a2.379,2.379,0,0,1-1.38,2.242A2.363,2.363,0,0,1,8125.677-3128.815Z" transform="translate(-8105.523 3133.576)" fill="#333"/>
              <rect id="Rectangle_4382" data-name="Rectangle 4382" width="11.017" height="1.494" transform="translate(7.552 20.675) rotate(-24.881)" fill="#333"/>
              <rect id="Rectangle_4383" data-name="Rectangle 4383" width="28.197" height="1.494" transform="translate(8.888 23.555) rotate(-24.881)" fill="#dbdbdb"/>
              <path id="Path_13399" data-name="Path 13399" d="M8107.866-3123.359a1.077,1.077,0,0,1-.364-.064,1.05,1.05,0,0,1-.6-.549,1.059,1.059,0,0,1,.514-1.407,1.054,1.054,0,0,1,.811-.033,1.052,1.052,0,0,1,.6.549,1.054,1.054,0,0,1,.032.81,1.047,1.047,0,0,1-.547.6A1.066,1.066,0,0,1,8107.866-3123.359Zm0-1.559a.506.506,0,0,0-.211.047.5.5,0,0,0-.241.662.487.487,0,0,0,.279.259.5.5,0,0,0,.382-.016.488.488,0,0,0,.259-.282.482.482,0,0,0-.017-.381h0a.486.486,0,0,0-.279-.258A.507.507,0,0,0,8107.866-3124.917Z" transform="translate(-8091.965 3126.916)" fill="#333"/>
            </g>
            <g id="Group_7596" data-name="Group 7596" transform="translate(58.367)">
              <g id="Group_7591" data-name="Group 7591">
                <g id="Group_7589" data-name="Group 7589" transform="translate(0 1.864)">
                  <path id="Path_13400" data-name="Path 13400" d="M8360.518-3229.776a2.117,2.117,0,0,1-1.186,2.876,2.247,2.247,0,0,1-2.559-.266l.286-.417a1.739,1.739,0,0,0,2.061.224,1.6,1.6,0,0,0,.922-2.2,1.605,1.605,0,0,0-2.292-.706l-.136.063-.352-.219.546-2.992-3.072,1.424-.209-.449,3.622-1.679.208.449-.506,2.865A2.033,2.033,0,0,1,8360.518-3229.776Z" transform="translate(-8354.056 3234.583)" fill="#333"/>
                  <path id="Path_13401" data-name="Path 13401" d="M8355.987-3228.46a2.349,2.349,0,0,1-1.643-.633l-.219-.208.7-1.018.3.3a1.433,1.433,0,0,0,1.659.155,1.56,1.56,0,0,0,.788-.739,1.178,1.178,0,0,0-.036-.986,1.166,1.166,0,0,0-.731-.664,1.555,1.555,0,0,0-1.09.131l-.308.143-.72-.447.462-2.556-2.771,1.286-.509-1.094,4.266-1.978.4.873-.429,2.438a2.336,2.336,0,0,1,2.548,1.348h0a2.478,2.478,0,0,1-1.363,3.348A3.134,3.134,0,0,1,8355.987-3228.46Z" transform="translate(-8351.872 3236.769)" fill="#333"/>
                </g>
                <g id="Group_7590" data-name="Group 7590" transform="translate(5.862)">
                  <path id="Path_13402" data-name="Path 13402" d="M8387.416-3240.682c-.9-1.941-.659-3.635.849-4.335s2.96.212,3.858,2.152.661,3.635-.849,4.335S8388.315-3238.742,8387.416-3240.682Zm4.223-1.958c-.816-1.761-1.993-2.46-3.16-1.918s-1.395,1.89-.578,3.651,1.993,2.46,3.161,1.919S8392.454-3240.879,8391.639-3242.64Z" transform="translate(-8386.533 3245.609)" fill="#333"/>
                  <path id="Path_13403" data-name="Path 13403" d="M8388.6-3239.594c-1.234,0-2.386-.916-3.164-2.594h0c-1.02-2.2-.628-4.041,1.023-4.806s3.308.125,4.328,2.325.63,4.041-1.021,4.806A2.772,2.772,0,0,1,8388.6-3239.594Zm-1-6.445a1.489,1.489,0,0,0-.631.147c-1.393.647-.746,2.439-.4,3.18a3.756,3.756,0,0,0,1.309,1.668,1.4,1.4,0,0,0,1.379.078c1.4-.647.748-2.44.4-3.18h0C8389.371-3244.77,8388.653-3246.039,8387.6-3246.039Z" transform="translate(-8384.879 3247.264)" fill="#333"/>
                </g>
              </g>
              <g id="Group_7595" data-name="Group 7595" transform="translate(4.129 8.151)">
                <g id="Group_7592" data-name="Group 7592" transform="translate(0 2.557)">
                  <path id="Path_13404" data-name="Path 13404" d="M8376.978-3184.22l.9,1.94,2.238-1.038.16.346-2.239,1.039,1.029,2.216-.367.171-2.248-4.85,2.686-1.247.163.346Z" transform="translate(-8376.213 3185.88)" fill="#bcbcbc"/>
                  <path id="Path_13405" data-name="Path 13405" d="M8377.521-3180.4l-2.4-5.172,3.011-1.4.31.669-2.319,1.076.75,1.617,2.237-1.037.311.668-2.24,1.038,1.03,2.216Zm-1.929-5,2.1,4.528.044-.021-1.026-2.217,2.235-1.038-.01-.024-2.237,1.038-1.051-2.262,2.324-1.076-.013-.025Z" transform="translate(-8375.121 3186.971)" fill="#bcbcbc"/>
                </g>
                <g id="Group_7593" data-name="Group 7593" transform="translate(3.589 1.164)">
                  <path id="Path_13406" data-name="Path 13406" d="M8399.881-3190.8l-1.531.711.922,1.988-.366.17-2.249-4.85,1.911-.887a1.585,1.585,0,0,1,2.1.77,1.579,1.579,0,0,1-.428,1.873l2.149,1.478-.421.2Zm-1.691.364,1.546-.717a1.184,1.184,0,0,0,.566-1.575,1.188,1.188,0,0,0-1.572-.593l-1.545.717Z" transform="translate(-8396.419 3193.99)" fill="#bcbcbc"/>
                  <path id="Path_13407" data-name="Path 13407" d="M8397.727-3188.516l-2.4-5.172,2.073-.962a1.762,1.762,0,0,1,2.335.856,1.764,1.764,0,0,1-.309,1.926l2.226,1.53-.8.37-2.087-1.449-1.277.593.922,1.988Zm-1.925-5,2.1,4.528.044-.021-.922-1.988,1.783-.828,2.089,1.448.047-.021-2.087-1.434.179-.149a1.406,1.406,0,0,0,.382-1.664,1.408,1.408,0,0,0-1.864-.683Zm1.21,2.494-1.155-2.491,1.705-.791a1.333,1.333,0,0,1,1.04-.038,1.382,1.382,0,0,1,.77.717,1.365,1.365,0,0,1,.047,1.043,1.34,1.34,0,0,1-.7.768Zm-.685-2.317.857,1.846,1.385-.642a.993.993,0,0,0,.516-.565,1.02,1.02,0,0,0-.037-.773,1.019,1.019,0,0,0-.568-.534.989.989,0,0,0-.768.026Z" transform="translate(-8395.33 3194.813)" fill="#bcbcbc"/>
                </g>
                <g id="Group_7594" data-name="Group 7594" transform="translate(7.836)">
                  <path id="Path_13408" data-name="Path 13408" d="M8420.936-3200.042l2.248,4.85-.366.17-2.249-4.85Z" transform="translate(-8420.331 3200.278)" fill="#bcbcbc"/>
                  <path id="Path_13409" data-name="Path 13409" d="M8421.64-3195.878l-2.4-5.172.689-.319,2.4,5.172Zm-1.925-5,2.1,4.528.043-.02-2.1-4.528Z" transform="translate(-8419.24 3201.369)" fill="#bcbcbc"/>
                </g>
              </g>
            </g>
          </g>
        </g>
      </g>
      <g id="Group_7599" data-name="Group 7599" transform="translate(7681.099 -3950.205)">
        <path id="hand" d="M8184.116-3666.557c.427-2.709,3.589-4.867,5.686-3.1,20.061,16.911,46.909,24,57.821,33.815,16.6,14.93,52.625,72.244,52.625,72.244s8.9,28.915-10.867,33.5-38.723-10.952-46.587-21.006c-18.2-23.261-10.912-56.9-21.9-67.65C8209.256-3630.136,8179.4-3636.766,8184.116-3666.557Z" transform="translate(-8183.616 3670.299)" fill="#efcaa6"/>
        <path id="Path_13410" data-name="Path 13410" d="M8572.912-2836.588s37.381-12.6,59.123-27.417,43.67-33.218,43.67-33.218l53.208,83.921-146.252.238Z" transform="translate(-8503.769 3034.53)" fill="#fdd835"/>
      </g>
    </g>
  </g>
</svg>
