<svg xmlns="http://www.w3.org/2000/svg" width="315.674" height="271.236" viewBox="0 0 315.674 271.236">
  <g id="Group_7693" data-name="Group 7693" transform="translate(-556.615 -268.58)">
    <path id="shadow" d="M872.288,1456.272c0,3.659-64.422,5.34-157.837,6.625-87.163,1.2-157.837-2.966-157.837-6.625s70.666-6.625,157.837-6.625S872.288,1452.614,872.288,1456.272Z" transform="translate(0 -923.291)" fill="#d7dadd"/>
    <g id="light" transform="translate(656.6 279.788)">
      <g id="Group_7608" data-name="Group 7608" transform="translate(22.175 66.603)">
        <path id="Path_13487" data-name="Path 13487" d="M1119.839,625.405c.06,4.17.008,8.339-.13,12.507-.1,3.141-.247,6.281-.263,9.423q-.014,2.81.115,5.618c.019.419.674.422.655,0-.149-3.22-.135-6.442-.038-9.663.1-3.405.253-6.809.309-10.216q.064-3.834.006-7.669a.328.328,0,0,0-.655,0Z" transform="translate(-1118.763 -625.089)" fill="#424242"/>
        <rect id="Rectangle_4395" data-name="Rectangle 4395" width="2.017" height="9.83" rx="1.009" transform="translate(0 21.435)" fill="#424242"/>
      </g>
      <path id="Path_13488" data-name="Path 13488" d="M1076.51,365.94l-8.72-42.431c0-1.977-9.927-3.579-22.173-3.579s-22.173,1.6-22.173,3.579l-8.72,42.431Z" transform="translate(-1014.723 -319.93)" fill="#fff"/>
      <ellipse id="Ellipse_235" data-name="Ellipse 235" cx="30.893" cy="4.987" rx="30.893" ry="4.987" transform="translate(0 41.023)" fill="#d6d7d8"/>
      <rect id="Rectangle_4396" data-name="Rectangle 4396" width="6.171" height="7.587" transform="translate(27.808 41.069)" fill="#424242"/>
      <g id="Group_7609" data-name="Group 7609" transform="translate(23.441 46.813)">
        <path id="Path_13489" data-name="Path 13489" d="M1129.027,534.732a13.873,13.873,0,0,1-2.4,6.166,52.224,52.224,0,0,0-3.532,6,11.106,11.106,0,0,0-.971,3.573c-.035.42.62.417.655,0a14.334,14.334,0,0,1,2.468-6.162,47.937,47.937,0,0,0,3.511-6,10.839,10.839,0,0,0,.924-3.577c.028-.421-.627-.419-.655,0Z" transform="translate(-1122.123 -534.417)" fill="#424242"/>
      </g>
      <path id="Path_13490" data-name="Path 13490" d="M1087.767,1431.806c0-1.72-11.879-3.115-26.533-3.115s-26.533,1.395-26.533,3.115h0v3.115c0,1.721,11.879,3.115,26.533,3.115s26.533-1.395,26.533-3.115v-3.115Z" transform="translate(-1030.341 -1186.697)" fill="#fff"/>
      <rect id="Rectangle_4397" data-name="Rectangle 4397" width="1.091" height="200.66" transform="translate(30.348 44.449)" fill="#424242"/>
      <rect id="Rectangle_4398" data-name="Rectangle 4398" width="2.619" height="35.366" transform="translate(29.584 209.743)" fill="#424242"/>
    </g>
    <g id="character" transform="translate(578.092 268.581)">
      <g id="legs" transform="translate(14.688 107.387)">
        <g id="Group_7610" data-name="Group 7610" transform="translate(17.921)">
          <path id="Path_13491" data-name="Path 13491" d="M836.1,841.562c.147-9.352-.3-37.58-.3-37.58s-26.025-54.355-31.379-41.379c0,0,14.017,63.289,14.585,68.685s-2.815,15.774.171,34.369c1.493,9.3,6.547,40.193,6.547,40.193l5.2,9.667,21.317-3.931-12.943-7.65a8.936,8.936,0,0,1-4.388-7.894C835.258,880.561,836.019,846.624,836.1,841.562Z" transform="translate(-804.424 -760.601)" fill="#917d70"/>
          <path id="Path_13492" data-name="Path 13492" d="M928.11,1427.524c-5.167-1.444-13.962-5.527-17.481-7.4a15.1,15.1,0,0,0-2.145,7.349c-1.6.193-6.367.366-7.791-.384-.7-.37-4.972-8.681-6.61-8.234-.646.176-2.394,11.6-1.352,12.2s33.7,1.06,35.393-.6C929.014,1429.581,928.722,1427.694,928.11,1427.524Z" transform="translate(-873.205 -1275.174)" fill="#424242"/>
        </g>
        <g id="Group_7611" data-name="Group 7611" transform="translate(0 13.342)">
          <path id="Path_13493" data-name="Path 13493" d="M722.313,829.6s3.178,21.82,4.279,50.091c.964,24.787-3.406,24.907,1.072,59.772l.583,12.91,9.792,3.487s3.037-39.246,12.346-132.206C750.385,823.657,727.524,816.568,722.313,829.6Z" transform="translate(-722.313 -821.733)" fill="#917d70"/>
          <path id="Path_13494" data-name="Path 13494" d="M754.709,1417.2l-2.031-9.327c-.518-3.181-2.7-5.57-5.324-5.57-2.673,0-4.894,2.488-5.353,5.767l-1.4,9.02a1.84,1.84,0,0,0,1.169,2.008c4.808,1.788,9.671.63,11.924-.115A1.533,1.533,0,0,0,754.709,1417.2Z" transform="translate(-736.594 -1275.587)" fill="#424242"/>
        </g>
      </g>
      <g id="head" transform="translate(24.647 0)">
        <path id="hair" d="M767.943,281.737c0,7.266,5.94,13.912,13.267,13.912s13.268-6.646,13.268-13.912a13.268,13.268,0,0,0-26.536,0Z" transform="translate(-767.943 -268.581)" fill="#424242"/>
        <g id="_02" data-name="02" transform="translate(7.717 22.921)">
          <g id="body">
            <g id="neck">
              <path id="Path_13495" data-name="Path 13495" d="M803.3,389.477c0,1.372,12.851,8.155,12.583,5.309L814,378.43l-8.825-4.83S803.648,385.693,803.3,389.477Z" transform="translate(-803.301 -373.6)" fill="#917d70"/>
              <path id="Path_13496" data-name="Path 13496" d="M816.237,385.065l7.909,2.025.857,8.037C818.656,394.385,816.237,387.589,816.237,385.065Z" transform="translate(-813.414 -382.563)" fill="#66544d"/>
            </g>
          </g>
        </g>
        <g id="_03" data-name="03" transform="translate(9.465 5.958)">
          <g id="head-2" data-name="head">
            <g id="face">
              <path id="Path_13497" data-name="Path 13497" d="M893.876,349.768c-.389-.052-.64-.571-.746-1.542a13.843,13.843,0,0,1,.1-3.185c.292-2.185,1.005-4.4,1.806-4.4a.414.414,0,0,1,.06,0c.825.11.951,2.462.648,4.728-.291,2.185-1.006,4.4-1.806,4.4A.418.418,0,0,1,893.876,349.768Zm-.3-4.681a13.566,13.566,0,0,0-.1,3.1c.1.938.326,1.215.442,1.231h.013c.38,0,1.117-1.556,1.455-4.089a13.512,13.512,0,0,0,.1-3.1c-.1-.938-.325-1.215-.442-1.23h-.012C894.653,341,893.916,342.553,893.578,345.087Z" transform="translate(-875.231 -330.874)" fill="#fff"/>
              <g id="eyebrows" transform="translate(11.654 9.192)">
                <g id="Group_7612" data-name="Group 7612">
                  <path id="Path_13498" data-name="Path 13498" d="M871.368,338.337s-4.081-.407-4.868-.33a1.958,1.958,0,0,0-1.795,1.439,24.98,24.98,0,0,0,6.112.4C871.6,339.566,871.368,338.337,871.368,338.337Z" transform="translate(-864.705 -337.997)" fill="#424242"/>
                </g>
              </g>
              <path id="Path_13499" data-name="Path 13499" d="M814.022,308.681c2.091-6.578,4.615-12.8,9.263-12.8,5.473,0,6.372,7.812,5.871,10.912,0,0-.134,5.387-.134,5.727,0,.925-.036,2.031-.138,3.191,0,0-.885,7.774-2.767,7.907a22.35,22.35,0,0,1-11.9-3.814c-2.451-1.906-2.91-3.491-2.91-5.2a34.53,34.53,0,0,0,2.052-3.946C813.6,309.96,813.834,309.272,814.022,308.681Z" transform="translate(-811.308 -295.881)" fill="#917d70"/>
            </g>
            <g id="eyebrows-2" data-name="eyebrows" transform="translate(10.292 9.092)">
              <g id="Group_7613" data-name="Group 7613">
                <path id="Path_13500" data-name="Path 13500" d="M865.124,337.876s-4.08-.407-4.868-.33a1.956,1.956,0,0,0-1.794,1.439,24.977,24.977,0,0,0,6.111.4C865.358,339.1,865.124,337.876,865.124,337.876Z" transform="translate(-858.462 -337.536)" fill="#424242"/>
              </g>
            </g>
            <path id="Path_13501" data-name="Path 13501" d="M889.771,345.879l1.927,7.95-2.853,1.255Z" transform="translate(-871.923 -334.967)" fill="#917d70"/>
          </g>
          <g id="Group_7614" data-name="Group 7614" transform="translate(2.132 9.795)">
            <path id="Path_13502" data-name="Path 13502" d="M878.353,349.884c-.388-.052-.639-.571-.746-1.543a13.8,13.8,0,0,1,.1-3.185c.291-2.185,1-4.4,1.8-4.4a.535.535,0,0,1,.06,0c.825.11.951,2.462.649,4.728-.292,2.185-1.005,4.4-1.806,4.4A.457.457,0,0,1,878.353,349.884Zm-.3-4.681a13.519,13.519,0,0,0-.1,3.1c.1.938.326,1.215.441,1.23h.013c.38,0,1.117-1.556,1.455-4.089a13.481,13.481,0,0,0,.1-3.1c-.1-.939-.326-1.215-.441-1.23h-.013C879.13,341.113,878.394,342.669,878.056,345.2Z" transform="translate(-865.227 -340.759)" fill="#fff"/>
            <path id="Path_13503" data-name="Path 13503" d="M889.114,354.494a.854.854,0,0,1,.716-.424.791.791,0,0,1,.464.154l.207-.287a1.142,1.142,0,0,0-.671-.221,1.218,1.218,0,0,0-1.014.586Z" transform="translate(-874.031 -350.888)" fill="#fff"/>
            <rect id="Rectangle_4399" data-name="Rectangle 4399" width="0.354" height="12.73" transform="translate(0 3.659) rotate(-88.117)" fill="#fff"/>
          </g>
        </g>
      </g>
      <g id="dress" transform="translate(0 38.167)">
        <g id="Group_7615" data-name="Group 7615" transform="translate(85.615 29.613)">
          <path id="Path_13504" data-name="Path 13504" d="M1103.421,579.241l-6.642,7.052,7.452-4.238-.222-2.609A.341.341,0,0,0,1103.421,579.241Z" transform="translate(-1085.977 -579.133)" fill="#66544d"/>
          <path id="Path_13505" data-name="Path 13505" d="M1057.412,603.632a30.637,30.637,0,0,1,5.309-4.184c.5-.289,1.027-.549,1.51-.873a11.164,11.164,0,0,0,1.16-.918c1.58-1.391,2.791-1.914,3.811-3.756.766-1.383.006-2.409-.254-2.36a3.856,3.856,0,0,0,.7-1.694,1.324,1.324,0,0,0-.915-1.427,2.824,2.824,0,0,0,.636-2.057,1.256,1.256,0,0,0-1.624-1,3.186,3.186,0,0,0,.444-1.855,1.521,1.521,0,0,0-1.2-1.346,2.089,2.089,0,0,0-1.279.375,18.376,18.376,0,0,0-2.194,1.589l-4.135,3.318a8.2,8.2,0,0,0-1.3,1.209c-1.453,1.806-1.2,4.556-2.627,6.38l-8.175,6.068Z" transform="translate(-1047.286 -581.489)" fill="#917d70"/>
          <path id="Path_13506" data-name="Path 13506" d="M1126.751,597.339a1.19,1.19,0,0,0,.944-.02c.161-.072.313-.163.466-.249l.488-.274.549-.308a.093.093,0,0,1,.111.147l-.051.056a.093.093,0,0,1-.13-.133l.051-.056.111.147-1,.564a2.413,2.413,0,0,1-1.007.4,1.319,1.319,0,0,1-.581-.095.1.1,0,0,1-.064-.115.094.094,0,0,1,.115-.064Z" transform="translate(-1109.314 -592.69)" fill="#66544d"/>
          <path id="Path_13507" data-name="Path 13507" d="M1137.119,611.3a8.248,8.248,0,0,0,1.4-.712c.066-.042.159-.117.232-.044a.11.11,0,0,1,.019.132.105.105,0,0,1-.119.05.094.094,0,0,1-.064-.115.1.1,0,0,1,.115-.064h.006l-.072.009,0,0-.034.033,0-.006-.013.047,0,.011.023.041,0-.005.041.024-.01,0h.05a.4.4,0,0,0-.081.049l-.085.053-.185.111q-.189.11-.384.21a8.641,8.641,0,0,1-.8.36.094.094,0,0,1-.114-.066.1.1,0,0,1,.066-.114Z" transform="translate(-1117.458 -603.662)" fill="#66544d"/>
          <path id="Path_13508" data-name="Path 13508" d="M1142.92,625.885c.028-.017.056-.034.084-.053l.042-.029a.2.2,0,0,1,.021-.015l-.005,0,.011-.009a1.617,1.617,0,0,0,.15-.133.094.094,0,0,1,.131,0,.1.1,0,0,1,0,.132,1.743,1.743,0,0,1-.339.264.093.093,0,0,1-.092-.161Z" transform="translate(-1122.012 -615.477)" fill="#66544d"/>
        </g>
        <path id="Path_13509" data-name="Path 13509" d="M836.249,454.589c2.341.077,4.65-.85,6.981-.628,3.466.33,15.96,10.273,18.319,18.9.76,2.777,7.606,23.712,10.868,31.315,6.928-5.621,8.031-5.848,14.96-11.47,0,0,5.824,9.32,8,10.085-3.805,4.78-18.36,17.622-23.007,19.94a6.363,6.363,0,0,1-2.648.783,6.032,6.032,0,0,1-3.208-1.036c-2.905-1.772-13.1-19.063-13.47-20.382Z" transform="translate(-796.694 -451.64)" fill="#2889e2"/>
        <path id="Path_13510" data-name="Path 13510" d="M711.91,450.679c1.655-1.649,9.83-6.656,15.668-7.227.166-.017,11.137.352,11.374.421,2.671.769,11.725,5.438,15.44,9.407h0s6.719,6.264,8.474,18.834c0,0-4.608,23.994-3.714,29.811,2.68,17.451,7.34,63.258,4.919,81.695,0,0-45.193,4.508-54.95.875C706.515,569.7,709.036,470.478,711.91,450.679Z" transform="translate(-696.46 -443.451)" fill="#2889e2"/>
        <path id="Path_13511" data-name="Path 13511" d="M677.482,558.995l-6.854,3.082s-12.43-18.3-14.238-28.361c-2.47-13.738-3.5-41.1,14.078-57.148,5.663,1.561,6.721,12.848,6.32,24.006-.422,11.729-6.208,28.933-6.208,28.933Z" transform="translate(-655.018 -469.34)" fill="#2889e2"/>
        <g id="Group_7616" data-name="Group 7616" transform="translate(9.365 28.392)">
          <path id="Path_13512" data-name="Path 13512" d="M698.122,710.269a12.983,12.983,0,0,1,6.43,0l.2-.672a13.458,13.458,0,0,0-6.822,0Z" transform="translate(-697.926 -679.552)" fill="#166fa5"/>
          <path id="Path_13513" data-name="Path 13513" d="M708.461,636.38l.7-.03c-.234-5.408,1.527-16.13,2.943-24.744.877-5.343,1.571-9.562,1.571-11.187,0-4.165-2.317-25.954-2.415-26.88l-.7.074c.024.226,2.411,22.679,2.411,26.806,0,1.568-.724,5.973-1.562,11.074C709.992,620.139,708.224,630.9,708.461,636.38Z" transform="translate(-706.145 -573.539)" fill="#166fa5"/>
        </g>
      </g>
      <g id="hair-2" data-name="hair" transform="translate(15.811 8.327)">
        <path id="hair-3" data-name="hair" d="M740.731,362.241c-19.419-11.421.143-55.506.143-55.506s11.476,8.837,11.257,10.431c-5.143,37.28,13.2,27.506,10.458,54.1C756.093,366.135,746.236,365.481,740.731,362.241Z" transform="translate(-731.117 -306.735)" fill="#424242"/>
        <path id="Path_13514" data-name="Path 13514" d="M735.748,370.8l.182-.3c-4.357-2.616-6.989-7.108-7.823-13.35-.67-5.017-.189-11.168,1.431-18.281a124.775,124.775,0,0,1,8-23.087l-.319-.153a125.1,125.1,0,0,0-8.025,23.161c-1.63,7.154-2.114,13.347-1.437,18.407C728.605,363.55,731.294,368.128,735.748,370.8Z" transform="translate(-727.46 -313.687)" fill="#424242"/>
        <path id="Path_13515" data-name="Path 13515" d="M804.577,341.445c-.48-.579-1.66-1-2.946.6s-.428,7.605,2.781,7.605S805.885,343.024,804.577,341.445Z" transform="translate(-784.996 -333.463)" fill="#917d70"/>
      </g>
    </g>
    <g id="chair" transform="translate(713.268 381.073)">
      <g id="pillow" transform="translate(39.078 9.899)">
        <path id="Path_13516" data-name="Path 13516" d="M1453.406,874.587s16.032-34.342,17.611-37.368c1.314-2.518,1.744-5.886,4.149-7.49,2.326-1.551,7.309,2.021,10.58,3.345,4.021,1.629,36.245,9.511,36.245,9.511l-17.52,43.927Z" transform="translate(-1453.406 -829.346)" fill="#f2d525"/>
        <path id="Path_13517" data-name="Path 13517" d="M1536.142,868.782a143.645,143.645,0,0,0,13.567,5.382q7.529,2.622,15.291,4.5,4.384,1.059,8.822,1.871c.471.086.673-.635.2-.722q-7.813-1.433-15.461-3.623t-15.032-5.119c-2.672-1.059-4.442-1.754-7.054-2.954C1536.474,868.114,1536.018,868.725,1536.142,868.782Z" transform="translate(-1518.068 -859.653)" fill="#fff"/>
        <path id="Path_13518" data-name="Path 13518" d="M1513.713,918.225c5.849,1.723,10.366,3.3,16.171,5.163q9.142,2.937,18.207,6.107,5.109,1.787,10.192,3.647c.453.166.649-.557.2-.722q-9.046-3.31-18.175-6.389-9.1-3.068-18.275-5.9c-3.1-.956-4.889-1.674-8-2.59C1513.683,917.435,1513.4,918.133,1513.713,918.225Z" transform="translate(-1500.445 -898.282)" fill="#fff"/>
        <path id="Path_13519" data-name="Path 13519" d="M1492.035,967.566q8.94,2.605,17.98,4.852t18.16,4.128q5.126,1.057,10.276,2c.471.086.673-.635.2-.722q-9.16-1.677-18.248-3.718t-18.085-4.446q-5.057-1.351-10.082-2.816a.375.375,0,0,0-.2.722Z" transform="translate(-1483.398 -936.821)" fill="#fff"/>
      </g>
      <path id="Path_13520" data-name="Path 13520" d="M1772.735,1362.843h0a1.6,1.6,0,0,0,1.6-1.6v-32.14h-9.676l6.516,32.454A1.6,1.6,0,0,0,1772.735,1362.843Z" transform="translate(-1657.645 -1210.132)" fill="#424242"/>
      <path id="Path_13521" data-name="Path 13521" d="M1693.7,1347.94h0a1.6,1.6,0,0,0,1.6-1.6v-32.139h-9.677l6.516,32.454A1.6,1.6,0,0,0,1693.7,1347.94Z" transform="translate(-1595.861 -1198.482)" fill="#424242"/>
      <path id="Path_13522" data-name="Path 13522" d="M1300.417,1362.843h0a1.6,1.6,0,0,1-1.6-1.6v-32.14h9.676l-6.516,32.454A1.6,1.6,0,0,1,1300.417,1362.843Z" transform="translate(-1293.482 -1210.132)" fill="#424242"/>
      <path id="Path_13523" data-name="Path 13523" d="M1401.305,791.384a7.392,7.392,0,0,0-7.392-7.393h-11.829c-4.083,0-6.186,3.492-7.393,7.393-2.381,7.691-8.868,30.317-12.043,45.275h-80.9a7.388,7.388,0,0,0-7.393,7.393v54.02a7.392,7.392,0,0,0,7.393,7.392h107.935a7.392,7.392,0,0,0,7.392-7.392V839.923Z" transform="translate(-1274.36 -783.991)" fill="#2889e2"/>
      <g id="blanket" transform="translate(22.172 50.588)">
        <path id="Path_13524" data-name="Path 13524" d="M1375.95,1101.848a.909.909,0,0,0,.938.938c19.78-1.944,56.773,0,56.773,0a.938.938,0,0,0,.938-.938s3.293-44.4,0-85.135a.967.967,0,0,0-.938-.939h-56.773a.916.916,0,0,0-.938.939C1378.83,1055.335,1375.95,1101.848,1375.95,1101.848Z" transform="translate(-1375.948 -1015.774)" fill="#1eb2fc"/>
        <g id="Group_7617" data-name="Group 7617" transform="translate(3.526 2.56)">
          <path id="Path_13525" data-name="Path 13525" d="M1478.754,1189.584a.264.264,0,0,1-.184-.074,5.694,5.694,0,0,1-2.007-4.4.267.267,0,0,1,.532.053,5.276,5.276,0,0,0,1.843,3.958.267.267,0,0,1-.184.461Z" transform="translate(-1458.123 -1150.525)" fill="#fff"/>
          <path id="Path_13526" data-name="Path 13526" d="M1550.335,1285.628a.268.268,0,0,1-.11-.511c2-.9,2.837-3.964,2.845-3.995a.267.267,0,1,1,.517.138c-.036.136-.914,3.342-3.142,4.344A.268.268,0,0,1,1550.335,1285.628Z" transform="translate(-1515.591 -1225.613)" fill="#fff"/>
          <path id="Path_13527" data-name="Path 13527" d="M1429.568,1049.442a.267.267,0,0,1-.379.36c-1.805-1.237-4.862-.36-4.892-.35a.267.267,0,0,1-.151-.513c.135-.04,3.329-.959,5.345.422A.267.267,0,0,1,1429.568,1049.442Z" transform="translate(-1417.002 -1043.997)" fill="#fff"/>
          <path id="Path_13528" data-name="Path 13528" d="M1603.2,1032.208a.267.267,0,0,1-.11-.511c2-.9,2.837-3.964,2.846-4a.267.267,0,0,1,.516.138c-.036.136-.914,3.342-3.143,4.345A.266.266,0,0,1,1603.2,1032.208Z" transform="translate(-1556.915 -1027.504)" fill="#fff"/>
          <path id="Path_13529" data-name="Path 13529" d="M1447.346,1352.416a.268.268,0,0,1-.21-.1l-3.314-4.17a.267.267,0,0,1,.419-.333l3.315,4.17a.267.267,0,0,1-.209.434Z" transform="translate(-1432.488 -1277.824)" fill="#fff"/>
          <path id="Path_13530" data-name="Path 13530" d="M1475.611,1301.76a.267.267,0,0,1-.248-.367,7.111,7.111,0,0,1,4.669-3.9.267.267,0,0,1,.133.518,6.693,6.693,0,0,0-4.307,3.584A.267.267,0,0,1,1475.611,1301.76Z" transform="translate(-1457.176 -1238.559)" fill="#fff"/>
          <path id="Path_13531" data-name="Path 13531" d="M1605.735,1187.222a.259.259,0,0,1-.1-.02.267.267,0,0,1-.147-.348,7.114,7.114,0,0,1,4.669-3.9.267.267,0,1,1,.134.518,6.7,6.7,0,0,0-4.307,3.584A.268.268,0,0,1,1605.735,1187.222Z" transform="translate(-1558.899 -1149.019)" fill="#fff"/>
          <path id="Path_13532" data-name="Path 13532" d="M1516.633,1130.488a.267.267,0,0,1-.262-.218,6.827,6.827,0,0,0-3.382-4.62.267.267,0,0,1,.232-.481,7.239,7.239,0,0,1,3.675,5,.268.268,0,0,1-.213.312A.279.279,0,0,1,1516.633,1130.488Z" transform="translate(-1486.486 -1103.832)" fill="#fff"/>
          <path id="Path_13533" data-name="Path 13533" d="M1425.889,1099.641a4.717,4.717,0,0,1-3.039-1.234,7.54,7.54,0,0,1-1.418-1.6.267.267,0,0,1,.454-.283h0c.019.031,1.936,3.044,4.641,2.516a.268.268,0,0,1,.1.525A3.879,3.879,0,0,1,1425.889,1099.641Z" transform="translate(-1415 -1081.365)" fill="#fff"/>
          <path id="Path_13534" data-name="Path 13534" d="M1545.9,1198.839a.267.267,0,0,1-.266-.246c-.338-4.265-3.352-5.318-3.382-5.327a.267.267,0,1,1,.169-.507c.138.046,3.38,1.178,3.746,5.792a.267.267,0,0,1-.245.288Z" transform="translate(-1509.335 -1156.679)" fill="#fff"/>
          <path id="Path_13535" data-name="Path 13535" d="M1541.662,1350.806l-.034,0a6.509,6.509,0,0,1-4.436-3.008,11.233,11.233,0,0,1-1.344-2.589.267.267,0,1,1,.507-.169c.016.047,1.635,4.765,5.34,5.236a.268.268,0,0,1-.033.533Z" transform="translate(-1504.464 -1275.59)" fill="#fff"/>
          <path id="Path_13536" data-name="Path 13536" d="M1600.91,1364.87a.267.267,0,0,1-.1-.515c2.826-1.144,3.821-5.609,3.831-5.654a.267.267,0,0,1,.523.113,12.786,12.786,0,0,1-.893,2.527,6.659,6.659,0,0,1-3.26,3.51A.27.27,0,0,1,1600.91,1364.87Z" transform="translate(-1555.127 -1286.25)" fill="#fff"/>
          <path id="Path_13537" data-name="Path 13537" d="M1554.419,1068.566a.266.266,0,0,1-.182-.071l-3.92-3.636a.267.267,0,1,1,.364-.392l3.92,3.636a.267.267,0,0,1-.182.463Z" transform="translate(-1515.719 -1056.344)" fill="#fff"/>
          <path id="Path_13538" data-name="Path 13538" d="M1398.77,1301.9a.267.267,0,0,1-.182-.072l-3.921-3.635a.267.267,0,0,1,.364-.392l3.92,3.635a.268.268,0,0,1-.182.464Z" transform="translate(-1394.041 -1238.749)" fill="#fff"/>
          <path id="Path_13539" data-name="Path 13539" d="M1396.291,1222.635a.266.266,0,0,1-.182-.071l-3.921-3.635a.267.267,0,1,1,.364-.392l3.92,3.635a.267.267,0,0,1-.182.463Z" transform="translate(-1392.103 -1176.786)" fill="#fff"/>
          <path id="Path_13540" data-name="Path 13540" d="M1511.011,1030.677a.267.267,0,0,1-.114.159l-4.472,2.929a.267.267,0,0,1-.293-.447l4.473-2.929a.268.268,0,0,1,.37.077A.271.271,0,0,1,1511.011,1030.677Z" transform="translate(-1481.15 -1029.725)" fill="#fff"/>
          <path id="Path_13541" data-name="Path 13541" d="M1453.571,1234.981a.284.284,0,0,1-.057-.006.268.268,0,0,1-.2-.318l1.4-6.429a.267.267,0,0,1,.522.114l-1.4,6.429A.268.268,0,0,1,1453.571,1234.981Z" transform="translate(-1439.946 -1184.254)" fill="#fff"/>
          <path id="Path_13542" data-name="Path 13542" d="M1583.085,1128.4a.3.3,0,0,1-.057-.006.268.268,0,0,1-.2-.318l1.4-6.429a.267.267,0,1,1,.523.114l-1.4,6.429A.268.268,0,0,1,1583.085,1128.4Z" transform="translate(-1541.193 -1100.934)" fill="#fff"/>
          <path id="Path_13543" data-name="Path 13543" d="M1474.58,1082.858a.267.267,0,0,1-.167-.476,10.467,10.467,0,0,1,1.938-1.165,7.067,7.067,0,0,1,4.312-.706.267.267,0,1,1-.1.524c-2.862-.564-5.784,1.741-5.813,1.764A.269.269,0,0,1,1474.58,1082.858Z" transform="translate(-1456.37 -1068.865)" fill="#fff"/>
          <path id="Path_13544" data-name="Path 13544" d="M1397.783,1381.475a.267.267,0,0,1-.189-.456,8.992,8.992,0,0,1,7.2-2.273.267.267,0,0,1-.08.528c-.04-.006-4.05-.573-6.743,2.122A.264.264,0,0,1,1397.783,1381.475Z" transform="translate(-1396.334 -1302.033)" fill="#fff"/>
          <path id="Path_13545" data-name="Path 13545" d="M1521.333,1234.98a.265.265,0,0,1-.151-.047c-4.381-3-3.671-6.556-3.639-6.706a.267.267,0,0,1,.523.112c-.029.139-.65,3.366,3.418,6.153a.267.267,0,0,1-.151.488Z" transform="translate(-1490.118 -1184.254)" fill="#fff"/>
          <path id="Path_13546" data-name="Path 13546" d="M1417.758,1155.369a.267.267,0,0,1-.158-.483,15.89,15.89,0,0,0,1.971-1.775c.836-.9,1.78-2.2,1.529-3.252a.267.267,0,1,1,.52-.124c.575,2.409-3.529,5.454-3.7,5.583A.265.265,0,0,1,1417.758,1155.369Z" transform="translate(-1411.95 -1122.897)" fill="#fff"/>
          <path id="Path_13547" data-name="Path 13547" d="M1612.049,1264.378a.267.267,0,0,1-.43-.272,15.929,15.929,0,0,0,.39-2.623c.071-1.229-.026-2.83-.891-3.482a.267.267,0,1,1,.322-.426c1.977,1.492.75,6.452.7,6.663A.267.267,0,0,1,1612.049,1264.378Z" transform="translate(-1563.234 -1207.318)" fill="#fff"/>
        </g>
        <g id="Group_7618" data-name="Group 7618" transform="translate(0.012 85.068)">
          <path id="Path_13548" data-name="Path 13548" d="M1639.047,1414.774a.614.614,0,0,0,.614.614h0a.614.614,0,0,0,.614-.614v-8.624a.614.614,0,0,0-.614-.614h0a.614.614,0,0,0-.614.614Z" transform="translate(-1581.636 -1405.536)" fill="#1eb2fc"/>
          <path id="Path_13549" data-name="Path 13549" d="M1625.894,1414.774a.615.615,0,0,0,.615.614h0a.614.614,0,0,0,.614-.614v-8.624a.614.614,0,0,0-.614-.614h0a.614.614,0,0,0-.615.614Z" transform="translate(-1571.353 -1405.536)" fill="#1eb2fc"/>
          <path id="Path_13550" data-name="Path 13550" d="M1610.459,1414.774a.614.614,0,0,0,.614.614h0a.614.614,0,0,0,.615-.614l.5-8.624a.614.614,0,0,0-.615-.614h0a.614.614,0,0,0-.614.614Z" transform="translate(-1559.287 -1405.536)" fill="#1eb2fc"/>
          <path id="Path_13551" data-name="Path 13551" d="M1597.305,1414.774a.614.614,0,0,0,.614.614h0a.614.614,0,0,0,.615-.614l.5-8.624a.614.614,0,0,0-.615-.614h0a.614.614,0,0,0-.614.614Z" transform="translate(-1549.004 -1405.536)" fill="#1eb2fc"/>
          <path id="Path_13552" data-name="Path 13552" d="M1586.439,1414.774a.614.614,0,0,0,.615.614h0a.614.614,0,0,0,.614-.614v-8.624a.614.614,0,0,0-.614-.614h0a.614.614,0,0,0-.615.614Z" transform="translate(-1540.51 -1405.536)" fill="#1eb2fc"/>
          <path id="Path_13553" data-name="Path 13553" d="M1573.286,1414.774a.614.614,0,0,0,.614.614h0a.614.614,0,0,0,.615-.614v-8.624a.614.614,0,0,0-.615-.614h0a.614.614,0,0,0-.614.614Z" transform="translate(-1530.228 -1405.536)" fill="#1eb2fc"/>
          <path id="Path_13554" data-name="Path 13554" d="M1560.385,1414.774a.614.614,0,0,0,.614.614h0a.614.614,0,0,0,.615-.614l-.249-8.624a.614.614,0,0,0-.615-.614h0a.614.614,0,0,0-.614.614Z" transform="translate(-1519.947 -1405.536)" fill="#1eb2fc"/>
          <path id="Path_13555" data-name="Path 13555" d="M1547.731,1414.774a.614.614,0,0,0,.614.614h0a.614.614,0,0,0,.614-.614l-.749-8.624a.614.614,0,0,0-.614-.614h0a.614.614,0,0,0-.614.614Z" transform="translate(-1509.664 -1405.536)" fill="#1eb2fc"/>
          <path id="Path_13556" data-name="Path 13556" d="M1533.829,1414.774a.614.614,0,0,0,.614.614h0a.615.615,0,0,0,.615-.614v-8.624a.614.614,0,0,0-.615-.614h0a.614.614,0,0,0-.614.614Z" transform="translate(-1499.382 -1405.536)" fill="#1eb2fc"/>
          <path id="Path_13557" data-name="Path 13557" d="M1521.177,1414.774a.614.614,0,0,0,.614.614h0a.614.614,0,0,0,.615-.614l-.5-8.624a.614.614,0,0,0-.614-.614h0a.614.614,0,0,0-.614.614Z" transform="translate(-1489.101 -1405.536)" fill="#1eb2fc"/>
          <path id="Path_13558" data-name="Path 13558" d="M1507.525,1414.774a.614.614,0,0,0,.615.614h0a.614.614,0,0,0,.614-.614v-8.624a.614.614,0,0,0-.614-.614h0a.614.614,0,0,0-.615.614Z" transform="translate(-1478.819 -1405.536)" fill="#1eb2fc"/>
          <path id="Path_13559" data-name="Path 13559" d="M1494.372,1414.774a.614.614,0,0,0,.615.614h0a.614.614,0,0,0,.614-.614v-8.624a.614.614,0,0,0-.614-.614h0a.614.614,0,0,0-.615.614Z" transform="translate(-1468.537 -1405.536)" fill="#1eb2fc"/>
          <path id="Path_13560" data-name="Path 13560" d="M1481.221,1414.774a.614.614,0,0,0,.614.614h0a.614.614,0,0,0,.614-.614v-8.624a.614.614,0,0,0-.614-.614h0a.614.614,0,0,0-.614.614Z" transform="translate(-1458.256 -1405.536)" fill="#1eb2fc"/>
          <path id="Path_13561" data-name="Path 13561" d="M1464.637,1414.774a.614.614,0,0,0,.615.614h0a.614.614,0,0,0,.614-.614l.749-8.624a.614.614,0,0,0-.614-.614h0a.614.614,0,0,0-.615.614Z" transform="translate(-1445.292 -1405.536)" fill="#1eb2fc"/>
          <path id="Path_13562" data-name="Path 13562" d="M1454.915,1414.774a.614.614,0,0,0,.615.614h0a.614.614,0,0,0,.614-.614v-8.624a.614.614,0,0,0-.614-.614h0a.614.614,0,0,0-.615.614Z" transform="translate(-1437.692 -1405.536)" fill="#1eb2fc"/>
          <path id="Path_13563" data-name="Path 13563" d="M1441.764,1414.774a.614.614,0,0,0,.614.614h0a.614.614,0,0,0,.614-.614v-8.624a.614.614,0,0,0-.614-.614h0a.614.614,0,0,0-.614.614Z" transform="translate(-1427.411 -1405.536)" fill="#1eb2fc"/>
          <path id="Path_13564" data-name="Path 13564" d="M1428.61,1414.774a.614.614,0,0,0,.615.614h0a.614.614,0,0,0,.614-.614v-8.624a.614.614,0,0,0-.614-.614h0a.614.614,0,0,0-.615.614Z" transform="translate(-1417.128 -1405.536)" fill="#1eb2fc"/>
          <path id="Path_13565" data-name="Path 13565" d="M1415.459,1414.774a.614.614,0,0,0,.614.614h0a.614.614,0,0,0,.614-.614v-8.624a.614.614,0,0,0-.614-.614h0a.614.614,0,0,0-.614.614Z" transform="translate(-1406.847 -1405.536)" fill="#1eb2fc"/>
          <path id="Path_13566" data-name="Path 13566" d="M1402.309,1414.774a.614.614,0,0,0,.614.614h0a.614.614,0,0,0,.615-.614v-8.624a.614.614,0,0,0-.615-.614h0a.614.614,0,0,0-.614.614Z" transform="translate(-1396.568 -1405.536)" fill="#1eb2fc"/>
          <path id="Path_13567" data-name="Path 13567" d="M1389.9,1414.774a.614.614,0,0,0,.614.614h0a.614.614,0,0,0,.614-.614l-.749-8.624a.614.614,0,0,0-.614-.614h0a.614.614,0,0,0-.614.614Z" transform="translate(-1386.284 -1405.536)" fill="#1eb2fc"/>
          <path id="Path_13568" data-name="Path 13568" d="M1376,1414.774a.615.615,0,0,0,.614.614h0a.614.614,0,0,0,.614-.614v-8.624a.614.614,0,0,0-.614-.614h0a.614.614,0,0,0-.614.614Z" transform="translate(-1376.002 -1405.536)" fill="#1eb2fc"/>
        </g>
      </g>
      <path id="Path_13569" data-name="Path 13569" d="M1678.873,1022.37h29.147v-.78l-28.925-.039Z" transform="translate(-1590.586 -969.702)" fill="#166fa5"/>
    </g>
  </g>
</svg>
