<svg xmlns="http://www.w3.org/2000/svg" width="702.035" height="224.76" viewBox="0 0 702.035 224.76">
  <g id="Group_7682" data-name="Group 7682" transform="translate(-66 -2031.24)">
    <rect id="Rectangle_4441" data-name="Rectangle 4441" width="702" height="66" transform="translate(66 2190)" fill="#09a74a"/>
    <g id="Group_7692" data-name="Group 7692" transform="translate(70.496 1448.031)">
      <g id="Group_7685" data-name="Group 7685" transform="translate(374.461 583.209)">
        <g id="Group_7682-2" data-name="Group 7682" transform="translate(0 22.276)">
          <path id="Path_13612" data-name="Path 13612" d="M1026.591,425.568s-9.419-23.842-9.886-24.887c-.308-.691-.559-.422-.45.216.18,1.05,5.425,19.738,6.024,20.921a30.911,30.911,0,0,0,3.558,4.366Z" transform="translate(-1009.032 -400.274)" fill="#fff"/>
          <path id="Path_13613" data-name="Path 13613" d="M991.137,551.158s-15.938,20.078-16.61,21.005c-.444.613-.085.695.412.282.82-.681,14.382-14.567,15.106-15.677a30.9,30.9,0,0,0,2-5.264Z" transform="translate(-974.325 -525.242)" fill="#fff"/>
          <path id="Path_13614" data-name="Path 13614" d="M1076.7,544.151s25.357,3.764,26.5,3.882c.753.078.644-.273.038-.5-1-.37-19.806-5.172-21.13-5.244a30.9,30.9,0,0,0-5.56.9Z" transform="translate(-1058.987 -517.895)" fill="#fff"/>
          <path id="Path_13615" data-name="Path 13615" d="M1072.518,547.311a.726.726,0,1,1-.246-1A.726.726,0,0,1,1072.518,547.311Z" transform="translate(-1054.535 -521.143)" fill="#fff"/>
        </g>
        <path id="Path_13616" data-name="Path 13616" d="M1066.017,622.066H1061.7l1.616-71.593h1.474Z" transform="translate(-1046.696 -502.398)" fill="#fff"/>
        <g id="Group_7683" data-name="Group 7683" transform="translate(63.544 20.492)">
          <path id="Path_13617" data-name="Path 13617" d="M1463.409,417.042s-2.285-25.533-2.437-26.668c-.1-.75-.417-.563-.493.08-.125,1.058-.384,20.467-.144,21.77a30.866,30.866,0,0,0,2.177,5.195Z" transform="translate(-1440.319 -389.887)" fill="#fff" opacity="0.9"/>
          <path id="Path_13618" data-name="Path 13618" d="M1366.473,550.226s-20.97,14.745-21.877,15.445c-.6.462-.279.641.316.386.979-.421,17.917-9.9,18.926-10.76a30.919,30.919,0,0,0,3.41-4.483Z" transform="translate(-1344.276 -522.686)" fill="#fff"/>
          <path id="Path_13619" data-name="Path 13619" d="M1477.981,548.959s23.254,10.788,24.313,11.224c.7.288.7-.08.177-.466-.854-.638-17.532-10.566-18.782-11.01a30.89,30.89,0,0,0-5.587-.712Z" transform="translate(-1455.015 -520.837)" fill="#fff" opacity="0.9"/>
          <path id="Path_13620" data-name="Path 13620" d="M1473.762,547.473a.726.726,0,1,1,.046-1.025A.726.726,0,0,1,1473.762,547.473Z" transform="translate(-1450.514 -519.36)" fill="#fff"/>
        </g>
        <path id="Path_13621" data-name="Path 13621" d="M1467.394,622.066h-4.312l1.616-71.593h1.474Z" transform="translate(-1379.131 -502.398)" fill="#fff"/>
        <g id="Group_7684" data-name="Group 7684" transform="translate(16.146 0)">
          <path id="Path_13622" data-name="Path 13622" d="M1288.459,303.564s17.254-30.817,17.964-32.225c.469-.931-.037-.964-.623-.292-.965,1.106-16.351,22.979-17.091,24.648-.863,1.945-1.563,7.6-1.563,7.6Z" transform="translate(-1249.56 -270.585)" fill="#fff"/>
          <path id="Path_13623" data-name="Path 13623" d="M1105.907,461.1s-35.316.466-36.89.556c-1.041.059-.816.514.058.685,1.441.283,28.076,2.671,29.893,2.478,2.115-.225,7.364-2.447,7.364-2.447Z" transform="translate(-1068.324 -428.374)" fill="#fff"/>
          <path id="Path_13624" data-name="Path 13624" d="M1289.588,463.594s18.061,30.35,18.926,31.669c.572.872.853.45.564-.392-.476-1.389-11.724-25.65-12.8-27.126-1.252-1.719-5.8-5.154-5.8-5.154Z" transform="translate(-1251.583 -429.612)" fill="#fff"/>
          <path id="Path_13625" data-name="Path 13625" d="M1286,460.047a1,1,0,1,1,.849-1.131A1,1,0,0,1,1286,460.047Z" transform="translate(-1247.667 -425.855)" fill="#fff"/>
        </g>
        <path id="Path_13626" data-name="Path 13626" d="M1277.759,563.214h-5.941l2.226-99.285h2.031Z" transform="translate(-1220.719 -430.719)" fill="#fff"/>
      </g>
      <path id="Path_13627" data-name="Path 13627" d="M313,904.567s41.607-16.743,56.936-19.213,113.871-35.592,113.871-35.592l106.731,7.184,90.219-30.5,73.062,7.05,20.962,8.485v62.582Z" transform="translate(-77.242 -161.859)" fill="#00c853"/>
      <path id="Path_13628" data-name="Path 13628" d="M273.177,850.125l-118.693-15L95.75,811.681l-72.195-12.8L0,801.895v80.854H353.784Z" transform="translate(-3.146 -140.041)" fill="#008c3a"/>
      <path id="Path_13629" data-name="Path 13629" d="M492.87,1699.89c0,1.423-27.266,2.575-48.078,2.575s-27.287-1.153-27.287-2.575,6.476-2.575,27.287-2.575S492.87,1698.468,492.87,1699.89Z" transform="translate(-181.748 -912.099)" opacity="0.252"/>
      <g id="Group_7691" data-name="Group 7691" transform="translate(236.108 664.59)">
        <g id="Group_7690" data-name="Group 7690" transform="translate(0 0)">
          <g id="Group_7689" data-name="Group 7689">
            <g id="_02_3_4" data-name="02 3/4">
              <g id="_02_Standing" data-name="02 Standing" transform="translate(4.331)">
                <g id="leg" transform="translate(14.079 53.793)">
                  <path id="Path_13630" data-name="Path 13630" d="M573.615,1136.491s4.731,30.31,4.984,32.708-1.861,7.882,1.054,24.555l3.884.2c.2-7.2.541-19.834.587-22.763.066-4.156.845-26.18.845-26.18S575.994,1130.724,573.615,1136.491Z" transform="translate(-573.615 -1135.12)" fill="#fff"/>
                  <g id="Group_7686" data-name="Group 7686" transform="translate(6.038 58.635)">
                    <path id="Path_13631" data-name="Path 13631" d="M628.872,1632.961H624.96l-.925-8.191,3.884.2Z" transform="translate(-624.035 -1624.771)" fill="#e0c3af"/>
                  </g>
                </g>
                <g id="hoodie">
                  <g id="head" transform="translate(6.33)">
                    <path id="Path_13632" data-name="Path 13632" d="M532.213,744.794c2.392-1.038,5.92-1.1,7.314,2.967.977,2.849,2.4,7.833.661,8.784a18.024,18.024,0,0,1-3.953.646l1.228,3.375-5.742.938.126-5.143S524.33,748.214,532.213,744.794Z" transform="translate(-526.251 -737.217)" fill="#e0c3af"/>
                    <path id="Path_13633" data-name="Path 13633" d="M519.776,736l-2.867,6.158c-.873-1.142-1.83-.648-2.2.453-.45,1.353,1.2,2.177,1.129,2.62a7.513,7.513,0,0,1-1.35,2.575c-.319.1-7.022-1.718-5.319-9.329C509.96,734.971,515.45,732.887,519.776,736Z" transform="translate(-508.898 -728.662)" fill="#424242"/>
                    <path id="Path_13634" data-name="Path 13634" d="M515.048,688.364a3.061,3.061,0,0,1-1.648,4.3c-1.732.714-3.034-.2-3.819-2.108s-.46-3.71,1.272-4.424S514.263,686.46,515.048,688.364Z" transform="translate(-509.144 -685.903)" fill="#424242"/>
                  </g>
                  <path id="Path_13635" data-name="Path 13635" d="M477.855,840.946l-21.087-4.494s-3.648,11.379,5.393,11.911c5.412.318,11.543-1.208,14.329-3.444A4.3,4.3,0,0,0,477.855,840.946Z" transform="translate(-456.041 -818.424)" fill="#1e87e5"/>
                </g>
              </g>
              <g id="Group_7687" data-name="Group 7687" transform="translate(33.224 64.765)">
                <path id="Path_13636" data-name="Path 13636" d="M700.32,1226.745s.655,2.1.683,2.277,1.834,4.425,1.882,4.675a22.413,22.413,0,0,1,.009,3c-.086.206-1.769,2.571-1.769,2.571a.371.371,0,0,1-.492-.392c0-.526-.239-.279-.333-.476a14,14,0,0,1,.536-2.335l-.064-1.421-.38-.281-.75,2.961a.281.281,0,0,1-.434-.1,21.739,21.739,0,0,1,.253-3.3s-.657-1.961-.781-2.414a9.806,9.806,0,0,1-.091-1.747l-1.264-2.191Z" transform="translate(-697.324 -1226.745)" fill="#e0c3af"/>
              </g>
              <g id="_02_Front" data-name="02 Front" transform="translate(6.396 22.155)">
                <g id="leg-2" data-name="leg" transform="translate(1.988 37.514)">
                  <path id="Path_13637" data-name="Path 13637" d="M489.881,1187.685s1.412,9.7,1.9,22.263c.428,11.016-1.9,11.07.088,26.565h3.789c.167-10.184.413-10.155,4.549-51.47C500.209,1185.042,492.2,1181.892,489.881,1187.685Z" transform="translate(-489.881 -1184.187)" fill="#fff"/>
                  <path id="Path_13638" data-name="Path 13638" d="M506.533,1630.99l3.5-.573.255-9.27H506.5Z" transform="translate(-504.508 -1568.822)" fill="#e0c3af"/>
                </g>
                <g id="hand" transform="translate(18.381 1.849)">
                  <path id="Path_13639" data-name="Path 13639" d="M626.876,886.358s9.931,2.531,11.673,23.844c1.154,14.121,1.065,19.632,1.065,19.632l-4.045.057s-7.906-19.758-8.622-28.524C626.608,897.224,626.876,886.358,626.876,886.358Z" transform="translate(-626.776 -886.358)" fill="#1e87e5"/>
                </g>
                <g id="hoodie-2" data-name="hoodie">
                  <path id="Path_13640" data-name="Path 13640" d="M476.746,874c-1.277,8.8-3.463,42.747-3.463,42.747,4.206,4.52,24.695.184,24.695.184s-1.515-29.615-4.606-42.663C492.521,870.669,478.412,869.117,476.746,874Z" transform="translate(-473.283 -870.916)" fill="#1e87e5"/>
                </g>
              </g>
              <path id="Path_13641" data-name="Path 13641" d="M428.682,912.1s-10.977,16.937-8.423,22.259,12.54,7.451,12.54,7.451l-1.03-26.834Z" transform="translate(-419.874 -885.016)" fill="#1e87e5"/>
              <path id="Path_13642" data-name="Path 13642" d="M482.467,923.7s5.349,2.752,12.582-.833C495.049,922.87,487.9,929.683,482.467,923.7Z" transform="translate(-474.971 -894.493)" fill="#2a3756" opacity="0.2"/>
              <g id="Group_7688" data-name="Group 7688" transform="translate(9.24 116.171)">
                <path id="Path_13643" data-name="Path 13643" d="M621.83,1661.074c-.277.076-1.03,4.987-.581,5.243s12.987.455,13.715-.258c.382-.375-.025-2.03-.288-2.1a29.085,29.085,0,0,1-8.356-3.9s-1.239.443-1.095,1.107l.148.279a2.417,2.417,0,0,1-1.537.658C623.081,1662.026,622.535,1660.882,621.83,1661.074Z" transform="translate(-606.252 -1659.571)" fill="#fff"/>
                <path id="Path_13644" data-name="Path 13644" d="M497.144,1658.753a2.043,2.043,0,0,1,.576-.946,2.115,2.115,0,0,0,.542-.991c.216-.589,1.036-.767,1.547-.788v0h.037v0c.51.021,1.331.2,1.547.788a2.115,2.115,0,0,0,.542.991,2.048,2.048,0,0,1,.576.946c.046.334.364,4.183-.38,4.245-.357.03-1.334-.031-2.284-.012h-.037c-.95-.019-1.927.042-2.284.012C496.78,1662.936,497.1,1659.087,497.144,1658.753Z" transform="translate(-497.037 -1656.026)" fill="#fff"/>
              </g>
            </g>
          </g>
        </g>
      </g>
    </g>
  </g>
</svg>
