<svg xmlns:xlink="http://www.w3.org/1999/xlink" class="" xmlns="http://www.w3.org/2000/svg" viewBox="0 0 135.7 40" width="160"  height="44" >
  <defs>
    <linearGradient id="i" x1="31.8" x2="15" y1="183.3" y2="166.5" gradientUnits="userSpaceOnUse" gradientTransform="matrix(.8 0 0 -.8 0 161.6)">
      <stop offset="0" stop-color="#00a0ff"></stop>
      <stop offset="0" stop-color="#00a1ff"></stop>
      <stop offset=".3" stop-color="#00beff"></stop>
      <stop offset=".5" stop-color="#00d2ff"></stop>
      <stop offset=".8" stop-color="#00dfff"></stop>
      <stop offset="1" stop-color="#00e3ff"></stop>
    </linearGradient>
    <linearGradient id="j" x1="43.8" x2="19.6" y1="172" y2="172" gradientUnits="userSpaceOnUse" gradientTransform="matrix(.8 0 0 -.8 0 161.6)">
      <stop offset="0" stop-color="#ffe000"></stop>
      <stop offset=".4" stop-color="#ffbd00"></stop>
      <stop offset=".8" stop-color="orange"></stop>
      <stop offset="1" stop-color="#ff9c00"></stop>
    </linearGradient>
    <linearGradient id="k" x1="34.8" x2="12.1" y1="169.7" y2="146.9" gradientUnits="userSpaceOnUse" gradientTransform="matrix(.8 0 0 -.8 0 161.6)">
      <stop offset="0" stop-color="#ff3a44"></stop>
      <stop offset="1" stop-color="#c31162"></stop>
    </linearGradient>
    <linearGradient id="l" x1="17.3" x2="27.5" y1="191.8" y2="181.7" gradientUnits="userSpaceOnUse" gradientTransform="matrix(.8 0 0 -.8 0 161.6)">
      <stop offset="0" stop-color="#32a071"></stop>
      <stop offset=".1" stop-color="#2da771"></stop>
      <stop offset=".5" stop-color="#15cf74"></stop>
      <stop offset=".8" stop-color="#06e775"></stop>
      <stop offset="1" stop-color="#00f076"></stop>
    </linearGradient>
    <clipPath id="a">
      <path d="M0 0h124v48H0V0z"></path>
    </clipPath>
    <mask id="m" width="1" height="1" x="0" y="0" maskUnits="userSpaceOnUse">
      <g clip-path="url(#a)">
        <path fill-opacity=".2" d="M0 0h124v48H0V0z"></path>
      </g>
    </mask>
    <clipPath id="n">
      <path d="M0 0h124v48H0V0z"></path>
    </clipPath>
    <clipPath id="b">
      <path d="M0 0h124v48H0V0z"></path>
    </clipPath>
    <pattern id="o" width="124" height="48" patternTransform="matrix(1 0 0 -1 0 48)" patternUnits="userSpaceOnUse">
      <g clip-path="url(#b)">
        <path d="M29.6 20.7L18 14c-.6-.3-1.2-.2-1.6 0 .4-.4 1-.4 1.6 0l11.7 6.6z"></path>
      </g>
    </pattern>
    <clipPath id="c">
      <path d="M0 0h124v48H0V0z"></path>
    </clipPath>
    <mask id="p" width="1" height="1" x="0" y="0" maskUnits="userSpaceOnUse">
      <g clip-path="url(#c)">
        <path fill-opacity=".1" d="M0 0h124v48H0V0z"></path>
      </g>
    </mask>
    <clipPath id="q">
      <path d="M0 0h124v48H0V0z"></path>
    </clipPath>
    <clipPath id="d">
      <path d="M0 0h124v48H0V0z"></path>
    </clipPath>
    <pattern id="r" width="124" height="48" patternTransform="matrix(1 0 0 -1 0 48)" patternUnits="userSpaceOnUse">
      <g clip-path="url(#d)">
        <path d="M16.3 14c-.2.4-.3.8-.3 1.3 0-.6 0-1 .3-1.3z"></path>
      </g>
    </pattern>
    <clipPath id="e">
      <path d="M0 0h124v48H0V0z"></path>
    </clipPath>
    <mask id="s" width="1" height="1" x="0" y="0" maskUnits="userSpaceOnUse">
      <g clip-path="url(#e)">
        <path fill-opacity=".1" d="M0 0h124v48H0V0z"></path>
      </g>
    </mask>
    <clipPath id="t">
      <path d="M0 0h124v48H0V0z"></path>
    </clipPath>
    <clipPath id="f">
      <path d="M0 0h124v48H0V0z"></path>
    </clipPath>
    <pattern id="u" width="124" height="48" patternTransform="matrix(1 0 0 -1 0 48)" patternUnits="userSpaceOnUse">
      <g clip-path="url(#f)">
        <path d="M33.6 23l-4-2.3 4 2c.6.5.8 1 .8 1.3 0-.4-.3-.8-.8-1z"></path>
      </g>
    </pattern>
    <clipPath id="g">
      <path d="M0 0h124v48H0V0z"></path>
    </clipPath>
    <mask id="v" width="1" height="1" x="0" y="0" maskUnits="userSpaceOnUse">
      <g clip-path="url(#g)">
        <path fill-opacity=".3" d="M0 0h124v48H0V0z"></path>
      </g>
    </mask>
    <clipPath id="w">
      <path d="M0 0h124v48H0V0z"></path>
    </clipPath>
    <clipPath id="h">
      <path d="M0 0h124v48H0V0z"></path>
    </clipPath>
    <pattern id="x" width="124" height="48" patternTransform="matrix(1 0 0 -1 0 48)" patternUnits="userSpaceOnUse">
      <g clip-path="url(#h)">
        <path fill="#fff" d="M18 34l15.6-9c.5-.2.8-.6.8-1 0 .4-.2.8-.8 1.2L18 34c-1 .7-2 0-2-1.2 0 1.2 1 1.7 2 1z"></path>
      </g>
    </pattern>
  <linearGradient id="i" x1="31.8" x2="15" y1="183.3" y2="166.5" gradientUnits="userSpaceOnUse" gradientTransform="matrix(.8 0 0 -.8 0 161.6)">
      <stop offset="0" stop-color="#00a0ff"></stop>
      <stop offset="0" stop-color="#00a1ff"></stop>
      <stop offset=".3" stop-color="#00beff"></stop>
      <stop offset=".5" stop-color="#00d2ff"></stop>
      <stop offset=".8" stop-color="#00dfff"></stop>
      <stop offset="1" stop-color="#00e3ff"></stop>
    </linearGradient><linearGradient id="j" x1="43.8" x2="19.6" y1="172" y2="172" gradientUnits="userSpaceOnUse" gradientTransform="matrix(.8 0 0 -.8 0 161.6)">
      <stop offset="0" stop-color="#ffe000"></stop>
      <stop offset=".4" stop-color="#ffbd00"></stop>
      <stop offset=".8" stop-color="orange"></stop>
      <stop offset="1" stop-color="#ff9c00"></stop>
    </linearGradient><linearGradient id="k" x1="34.8" x2="12.1" y1="169.7" y2="146.9" gradientUnits="userSpaceOnUse" gradientTransform="matrix(.8 0 0 -.8 0 161.6)">
      <stop offset="0" stop-color="#ff3a44"></stop>
      <stop offset="1" stop-color="#c31162"></stop>
    </linearGradient><linearGradient id="l" x1="17.3" x2="27.5" y1="191.8" y2="181.7" gradientUnits="userSpaceOnUse" gradientTransform="matrix(.8 0 0 -.8 0 161.6)">
      <stop offset="0" stop-color="#32a071"></stop>
      <stop offset=".1" stop-color="#2da771"></stop>
      <stop offset=".5" stop-color="#15cf74"></stop>
      <stop offset=".8" stop-color="#06e775"></stop>
      <stop offset="1" stop-color="#00f076"></stop>
    </linearGradient><pattern id="o" width="124" height="48" patternTransform="matrix(1 0 0 -1 0 48)" patternUnits="userSpaceOnUse">
      <g clip-path="url(#b)">
        <path d="M29.6 20.7L18 14c-.6-.3-1.2-.2-1.6 0 .4-.4 1-.4 1.6 0l11.7 6.6z"></path>
      </g>
    </pattern><pattern id="r" width="124" height="48" patternTransform="matrix(1 0 0 -1 0 48)" patternUnits="userSpaceOnUse">
      <g clip-path="url(#d)">
        <path d="M16.3 14c-.2.4-.3.8-.3 1.3 0-.6 0-1 .3-1.3z"></path>
      </g>
    </pattern><pattern id="u" width="124" height="48" patternTransform="matrix(1 0 0 -1 0 48)" patternUnits="userSpaceOnUse">
      <g clip-path="url(#f)">
        <path d="M33.6 23l-4-2.3 4 2c.6.5.8 1 .8 1.3 0-.4-.3-.8-.8-1z"></path>
      </g>
    </pattern><pattern id="x" width="124" height="48" patternTransform="matrix(1 0 0 -1 0 48)" patternUnits="userSpaceOnUse">
      <g clip-path="url(#h)">
        <path fill="#fff" d="M18 34l15.6-9c.5-.2.8-.6.8-1 0 .4-.2.8-.8 1.2L18 34c-1 .7-2 0-2-1.2 0 1.2 1 1.7 2 1z"></path>
      </g>
    </pattern></defs>
  <path d="M130.5 40H5.2c-2.7 0-5-2.3-5-5V5.3c0-2.8 2.3-5 5-5h125.3c2.8 0 5 2.2 5 5V35c0 2.7-2.2 5-5 5z"></path>
  <path fill="#A6A6A6" d="M130.5 1c2.4 0 4.2 2 4.2 4.3V35c0 2.3-1.8 4-4.2 4H5.2C3 39 1 37.4 1 35V5.3C1 3 3 1 5.2 1h125.3m0-.7H5.2c-2.7 0-5 2.2-5 5V35c0 2.7 2.3 5 5 5h125.3c2.8 0 5-2.3 5-5V5.3c0-2.8-2.2-5-5-5z"></path>
  <path fill="#FFFFFF" stroke="#FFFFFF" stroke-width="0.2px" stroke-miterlimit="10" d="M46 16.2c0 .7-.3 1.2-.7 1.6-.4.5-1 .7-1.7.7s-1.3-.2-1.8-.7c-.5-.5-.7-1-.7-1.8 0-.7.3-1.3.8-1.8s1-.7 1.8-.7c.3 0 .6 0 1 .2.3 0 .5.3.7.5l-.4.5c-.4-.4-1-.6-1.4-.6-.5 0-1 .3-1.3.6-.4.4-.6.8-.6 1.4 0 .6.2 1 .6 1.4.3.3.8.5 1.3.5s1-.3 1.3-.6c0-.3.3-.6.3-1h-1.7v-.6H46v.4zM49.6 14.2h-2.2v1.5h2v.6h-2v1.5h2.2v.6h-2.8v-4.8h2.8v.6zM52.2 18.4h-.6v-4.2h-1.3v-.6h3.3v.6h-1.4v4.2zM56 18.4v-4.8h.6v4.8H56zM59.3 18.4h-.6v-4.2h-1.4v-.6h3.3v.6h-1.3v4.2zM67 17.8c-.6.5-1.2.7-2 .7-.6 0-1.2-.2-1.6-.7-.5-.5-.7-1-.7-1.8 0-.7.2-1.3.7-1.8.4-.5 1-.7 1.7-.7.8 0 1.4.2 2 .7.4.5.6 1 .6 1.8 0 .7-.2 1.3-.7 1.8zm-3.2-.4c.4.3.8.5 1.3.5.6 0 1-.3 1.4-.6.4-.4.6-.8.6-1.4 0-.6-.2-1-.6-1.4-.3-.3-.8-.5-1.3-.5-.4 0-.8.3-1.2.6-.3.4-.5.8-.5 1.4 0 .6.2 1 .5 1.4zM68.5 18.4v-4.8h.7l2.3 3.7v-3.7h.7v4.8h-.7l-2.4-4v4h-.5z" transform="matrix(1.3 0 0 1.2 -9.8 -9.6)"></path>
  <path fill="#FFFFFF" d="M68.5 22c-2.3 0-4.3 1.6-4.3 4 0 2.5 2 4.3 4.3 4.3 2.4 0 4.3-1.8 4.3-4.2 0-2.4-2-4-4.3-4zm0 6.6c-1.3 0-2.4-1-2.4-2.5 0-1.4 1.2-2.5 2.5-2.5s2.4 1 2.4 2.6-1.2 2.6-2.5 2.6zM59.2 22c-2.4 0-4.3 1.6-4.3 4 0 2.5 1.8 4.3 4.2 4.3 2.4 0 4.3-1.8 4.3-4.2 0-2.4-2-4-4.3-4zm0 6.6c-1.3 0-2.4-1-2.4-2.5 0-1.4 1-2.5 2.4-2.5 1.3 0 2.4 1 2.4 2.6s-1 2.6-2.4 2.6zm-11-5.4V25h4.2c0 1-.5 1.7-1 2.2-.6.6-1.6 1.3-3.3 1.3-2.6 0-4.7-2-4.7-4.8 0-2.6 2-4.7 4.8-4.7 1.5 0 2.6.5 3.3 1.3l1.3-1.3c-1-1-2.5-1.8-4.5-1.8-3.6 0-6.6 3-6.6 6.5 0 3.7 3 6.6 6.7 6.6 2 0 3.5-.6 4.7-1.8 1.2-1.2 1.6-3 1.6-4.2v-1H48zm45.3 1.3c-.3-1-1.4-2.6-3.6-2.6-2.3 0-4.2 1.6-4.2 4s1.8 4.3 4.3 4.3c2 0 3.2-1.2 3.6-2l-1.4-.8c-.5.7-1.2 1-2 1-1 0-1.8-.3-2.2-1l5.7-2.5-.2-.5zM87.7 26c0-1.7 1.3-2.5 2.2-2.5.7 0 1.3.4 1.5 1l-3.8 1.4zM83 30h2V17.7h-2V30zm-3-7.2c-.5-.5-1.3-1-2.3-1-2.2 0-4 2-4 4.3 0 2.5 1.8 4.3 4 4.3 1 0 1.8-.5 2.2-1v.6c0 1.6-1 2.4-2.3 2.4-1 0-1.8-.8-2-1.5l-1.8.6c.4 1 1.6 2.5 3.7 2.5 2.2 0 4-1.2 4-4.3V22H80v.8zm-2.2 5.8c-1.3 0-2.3-1-2.3-2.5 0-1.4 1-2.5 2.3-2.5 1.3 0 2.3 1 2.3 2.6s-1 2.6-2.2 2.6zm24.5-11h-4.5V30h2v-4.7h2.5c2 0 4-1.4 4-3.8s-2-3.8-4-3.8zm0 6h-2.6v-4.2h2.6c1.4 0 2.2 1 2.2 2s-.8 2.2-2.2 2.2zm11.6-1.8c-1.5 0-3 .6-3.4 2l1.6.6c.4-.7 1-1 1.7-1 1 0 2 .7 2 1.7v.2c-.5-.2-1.2-.4-2-.4-2 0-3.7 1-3.7 2.7 0 1.7 1.5 2.8 3 2.8 1.4 0 2-.6 2.5-1.2v1h2v-4.7c0-2.2-1.8-3.5-4-3.5zm-.3 6.8c-.7 0-1.5-.3-1.5-1 0-1 1-1.3 2-1.3.8 0 1.2 0 1.7.4-.3 1-1.3 2-2.3 2zm10.6-6.5l-2.2 5.5L120 22h-2l3.4 7.6-2 4.2h2l5-11.7h-2zm-17 8h2V17.7h-2V30z"></path>
  <path fill="url(&quot;#i&quot;)" d="M16.3 34c-.2-.3-.3-.7-.3-1.2V15.2c0-.5 0-1 .3-1.2l10 10-10 10z" transform="matrix(1.3 0 0 -1.2 -9.8 49.9)"></path>
  <path fill="url(&quot;#j&quot;)" d="M29.6 20.6L26.3 24l3.3 3.4 4-2.2c1-.7 1-1.7 0-2.4l-4-2.2z" transform="matrix(1.3 0 0 -1.2 -9.8 49.9)"></path>
  <path fill="url(&quot;#k&quot;)" d="M29.7 20.6L26.3 24l-10-10c.4-.4 1-.4 1.7 0l11.7 6.6" transform="matrix(1.3 0 0 -1.2 -9.8 49.9)"></path>
  <path fill="url(&quot;#l&quot;)" d="M29.7 27.4L18 34c-.7.4-1.3.4-1.7 0l10-10 3.4 3.4z" transform="matrix(1.3 0 0 -1.2 -9.8 49.9)"></path>
  <g mask="url(#m)" transform="matrix(1.3 0 0 -1.2 -9.8 49.9)">
    <g clip-path="url(#n)">
      <path fill="url(&quot;#o&quot;)" d="M0 0h124v48H0V0z"></path>
    </g>
  </g>
  <g mask="url(#p)" transform="matrix(1.3 0 0 -1.2 -9.8 49.9)">
    <g clip-path="url(#q)">
      <path fill="url(&quot;#r&quot;)" d="M0 0h124v48H0V0z"></path>
    </g>
  </g>
  <g>
    <g mask="url(#s)" transform="matrix(1.3 0 0 -1.2 -9.8 49.9)">
      <g clip-path="url(#t)">
        <path fill="url(&quot;#u&quot;)" d="M0 0h124v48H0V0z"></path>
      </g>
    </g>
  </g>
  <g>
    <g mask="url(#v)" transform="matrix(1.3 0 0 -1.2 -9.8 49.9)">
      <g clip-path="url(#w)">
        <path fill="url(&quot;#x&quot;)" d="M0 0h124v48H0V0z"></path>
      </g>
    </g>
  </g>
</svg>