<svg xmlns:xlink="http://www.w3.org/1999/xlink" class="" xmlns="http://www.w3.org/2000/svg" viewBox="0 0 351 285.11" width="351"  height="285.11" ><path d="M375.5,91.17a143.85,143.85,0,0,1-41.35,11.38,72.5,72.5,0,0,0,31.7-39.87A143.44,143.44,0,0,1,320,80.15a72,72,0,0,0-124.46,49.27,74.74,74.74,0,0,0,1.84,16.4A204.44,204.44,0,0,1,48.93,70.61,72,72,0,0,0,71.2,166.69a70.87,70.87,0,0,1-32.55-9v.88a72.19,72.19,0,0,0,57.72,70.69,74.21,74.21,0,0,1-18.94,2.44,72.53,72.53,0,0,1-13.61-1.26,72.24,72.24,0,0,0,67.26,50,144.68,144.68,0,0,1-89.44,30.74,154.42,154.42,0,0,1-17.14-1,203.7,203.7,0,0,0,110.42,32.33c132.39,0,204.8-109.68,204.8-204.77l-.22-9.32a145.08,145.08,0,0,0,36-37.29" transform="translate(-24.5 -57.44)" fill="#757575"></path></svg>