<svg xmlns:xlink="http://www.w3.org/1999/xlink" class="" xmlns="http://www.w3.org/2000/svg" viewBox="0 0 103.712 43.88" width="134"  height="53" >
  <g id="Group_3609" data-name="Group 3609" transform="translate(-63.295 -111.725)">
    <path id="Path_2804" data-name="Path 2804" d="M69.656,117.722a1.154,1.154,0,0,0-.242-.8.826.826,0,0,0-.64-.265.841.841,0,0,0-.647.268,1.135,1.135,0,0,0-.248.8v2.171a5.614,5.614,0,0,1-.151,1.661,1.563,1.563,0,0,1-.582.7,1.5,1.5,0,0,1-.85.268,1.074,1.074,0,0,1-.736-.239,1.25,1.25,0,0,1-.376-.66,4.387,4.387,0,0,1-.1-1.043v-2.857a1.138,1.138,0,0,0-.248-.8.851.851,0,0,0-.654-.268.825.825,0,0,0-.64.265,1.152,1.152,0,0,0-.242.8v3.537a3.266,3.266,0,0,0,.334,1.634,1.956,1.956,0,0,0,.794.739,2.47,2.47,0,0,0,1.16.268,3.14,3.14,0,0,0,.955-.134,2.494,2.494,0,0,0,.771-.409,4,4,0,0,0,.673-.68v.228a1.07,1.07,0,0,0,.239.742.826.826,0,0,0,1.2.01,1.1,1.1,0,0,0,.232-.765ZM83.6,115.96a.9.9,0,0,0,.621-.232.816.816,0,0,0,.262-.644.792.792,0,0,0-.268-.647.937.937,0,0,0-.614-.222.911.911,0,0,0-.631.245.888.888,0,0,0-.007,1.271A.942.942,0,0,0,83.6,115.96Zm-9.375,6.463a2.2,2.2,0,0,0-.418.055,2.222,2.222,0,0,1-.425.056.537.537,0,0,1-.415-.141.653.653,0,0,1-.157-.366,5.313,5.313,0,0,1-.029-.644V118.1h.333a1.85,1.85,0,0,0,.814-.143.517.517,0,0,0,.284-.5.6.6,0,0,0-.2-.461.838.838,0,0,0-.579-.18h-.654V115.6a3.786,3.786,0,0,0-.049-.7.761.761,0,0,0-.232-.415.882.882,0,0,0-.615-.255.853.853,0,0,0-.438.114.81.81,0,0,0-.3.3,1,1,0,0,0-.127.421q-.023.245-.023.677v5.786a5.262,5.262,0,0,0,.134,1.327,1.3,1.3,0,0,0,.566.778,2.338,2.338,0,0,0,1.268.281,3.184,3.184,0,0,0,1.353-.229.716.716,0,0,0,.471-.66.582.582,0,0,0-.173-.428A.538.538,0,0,0,74.221,122.423Zm2.341-6.463a.905.905,0,0,0,.621-.232.818.818,0,0,0,.261-.644.792.792,0,0,0-.268-.647.936.936,0,0,0-.614-.222.911.911,0,0,0-.631.245.887.887,0,0,0-.007,1.271A.941.941,0,0,0,76.562,115.96Zm7.014,7.954a.845.845,0,0,0,.647-.274,1.152,1.152,0,0,0,.255-.811V117.67a1.036,1.036,0,0,0-.255-.745.854.854,0,0,0-.647-.268.822.822,0,0,0-.637.268,1.143,1.143,0,0,0-.245.8v5.106a1.185,1.185,0,0,0,.245.8A.805.805,0,0,0,83.576,123.913Zm13.067-2.478q.007-.536.01-.974t0-1.066a3.844,3.844,0,0,0-.278-1.6,1.721,1.721,0,0,0-.951-.88,4.985,4.985,0,0,0-1.85-.278,4.677,4.677,0,0,0-1.758.288,2.386,2.386,0,0,0-1.04.733,1.511,1.511,0,0,0-.333.915.628.628,0,0,0,.219.493.76.76,0,0,0,.52.193.57.57,0,0,0,.435-.121,5.983,5.983,0,0,0,.346-.5,1.66,1.66,0,0,1,.589-.569,2.168,2.168,0,0,1,1.023-.19,1.272,1.272,0,0,1,1.043.33,1.864,1.864,0,0,1,.284,1.036q-.563.163-1.043.278t-1.154.252q-.674.138-.843.176a2.321,2.321,0,0,0-1.275.693,1.8,1.8,0,0,0-.464,1.249,1.908,1.908,0,0,0,.281,1.007,1.985,1.985,0,0,0,.8.736,2.572,2.572,0,0,0,1.206.271,3.51,3.51,0,0,0,1.357-.251,5.542,5.542,0,0,0,1.252-.755,3.85,3.85,0,0,0,.569.749.79.79,0,0,0,.543.258.867.867,0,0,0,.585-.225.659.659,0,0,0,.258-.5,3.3,3.3,0,0,0-.167-.7A3.608,3.608,0,0,1,96.643,121.436Zm-1.739-.856a2.733,2.733,0,0,1-.242,1.333,1.546,1.546,0,0,1-.657.6,2.091,2.091,0,0,1-.978.232,1.138,1.138,0,0,1-.8-.284.905.905,0,0,1-.307-.69.753.753,0,0,1,.261-.611,1.409,1.409,0,0,1,.549-.294q.287-.076,1.036-.235a9,9,0,0,0,1.141-.3Zm-5.047,2.445a.582.582,0,0,0-.173-.428.537.537,0,0,0-.389-.173,2.2,2.2,0,0,0-.418.055,2.222,2.222,0,0,1-.425.056.537.537,0,0,1-.415-.141.657.657,0,0,1-.157-.366,5.385,5.385,0,0,1-.029-.644V118.1h.334a1.848,1.848,0,0,0,.814-.143.517.517,0,0,0,.284-.5.594.594,0,0,0-.2-.461.837.837,0,0,0-.579-.18H87.85V115.6a3.757,3.757,0,0,0-.049-.7.757.757,0,0,0-.232-.415.881.881,0,0,0-.614-.255.853.853,0,0,0-.438.114.8.8,0,0,0-.3.3,1,1,0,0,0-.128.421q-.023.245-.023.677v5.786a5.259,5.259,0,0,0,.135,1.327,1.3,1.3,0,0,0,.565.778,2.338,2.338,0,0,0,1.268.281,3.184,3.184,0,0,0,1.353-.229A.716.716,0,0,0,89.857,123.024Zm19.074-5.3a1.333,1.333,0,0,0-.436-.938l-4.228-4.228a1.691,1.691,0,0,0-2.389,0l-3.584,3.583a.835.835,0,0,0,1.177,1.184l3.585-3.584s.006-.006.017-.007.013,0,.018.007l3.567,3.567a1.688,1.688,0,0,0-.977,1.53v3.375c0,.008-.018.025-.025.025h-5.163a.036.036,0,0,1-.025-.025v-2.436a.832.832,0,1,0-1.664,0v2.443a1.691,1.691,0,0,0,1.689,1.689h5.163a1.691,1.691,0,0,0,1.689-1.689v-3.375a.039.039,0,0,1,.024-.025h.29a1.44,1.44,0,0,0,.759-.19,1.059,1.059,0,0,0,.515-.9v0S108.932,117.729,108.932,117.728Zm-31.742,5.911a1.152,1.152,0,0,0,.255-.811V117.67a1.036,1.036,0,0,0-.255-.745.853.853,0,0,0-.647-.268.824.824,0,0,0-.637.268,1.144,1.144,0,0,0-.245.8v5.106a1.186,1.186,0,0,0,.245.8.807.807,0,0,0,.637.281A.845.845,0,0,0,77.189,123.639Zm2.758-9.407a.81.81,0,0,0-.644.275,1.2,1.2,0,0,0-.239.81v7.511a1.189,1.189,0,0,0,.245.8.807.807,0,0,0,.637.281.847.847,0,0,0,.65-.271,1.159,1.159,0,0,0,.252-.814v-7.511a1.17,1.17,0,0,0-.248-.814A.845.845,0,0,0,79.947,114.232Z" transform="translate(0 -0.32)" fill="#424242"></path>
    <path id="Path_2805" data-name="Path 2805" d="M239.181,144.788a5.758,5.758,0,0,0,4.867-2.339l3.358,1.962a9.529,9.529,0,0,1-8.263,4.112c-6.225,0-10.262-4.263-10.262-9.922a9.622,9.622,0,0,1,9.96-9.922c5.621,0,9.47,4.527,9.47,9.96a12.34,12.34,0,0,1-.151,1.7H233.144C233.786,143.279,236.162,144.788,239.181,144.788Zm5.018-7.772a5.249,5.249,0,0,0-5.395-4.641,5.484,5.484,0,0,0-5.7,4.641Zm40.6-25.291h-9.872l-14.473,19.884-3.283-4.51h-9.851l8.232,11.238-12.63,17.268H252.8l7.683-10.508,3.629,5.005h9.846l-8.569-11.731Zm-14.91,36.307h-4.716l-4.678-6.451-8.74,11.955H247l11.117-15.2-6.715-9.168h4.716l4.339,5.961,15.526-21.335h4.754l-17.9,24.579Zm11.821-14.94v9.055c0,2.415,1.585,2.377,4.678,2.226v3.66c-6.263.755-8.753-.981-8.753-5.885v-9.055h-3.471v-3.924h3.471v-.02l4.075-5.948v5.968h4.678v3.924Zm18.448-4.263v4.414c-2.679-.189-5.81,1.057-5.81,5.282v9.507H290.27V129.168h4.075v3.169A5.936,5.936,0,0,1,300.155,128.829Zm21.165.34v18.864h-4.075v-2.716a7.751,7.751,0,0,1-6.6,3.207,9.937,9.937,0,0,1,0-19.845,7.819,7.819,0,0,1,6.6,3.169v-2.679Zm-4.075,9.432a5.961,5.961,0,1,0-5.961,6.036A5.83,5.83,0,0,0,317.246,138.6Z" transform="translate(-154.313 0)" fill="#424242"></path>
  </g>
</svg>