<svg xmlns:xlink="http://www.w3.org/1999/xlink" class="" xmlns="http://www.w3.org/2000/svg" viewBox="0 0 189.65 350.79" width="189.65"  height="350.79" ><path d="M287.7,24.67l-45.49-.07c-51.11,0-84.14,33.89-84.14,86.33v39.81H112.32a7.14,7.14,0,0,0-7.14,7.14v57.69a7.15,7.15,0,0,0,7.14,7.14h45.74V368.25a7.16,7.16,0,0,0,7.16,7.14h59.66a7.16,7.16,0,0,0,7.16-7.14V222.72h53.48a7.14,7.14,0,0,0,7.14-7.14l0-57.69a7.22,7.22,0,0,0-2.1-5.06,7.14,7.14,0,0,0-5.06-2.08H232V117c0-16.22,3.87-24.46,25-24.46l30.65,0a7.14,7.14,0,0,0,7.14-7.14V31.84a7.16,7.16,0,0,0-7.13-7.17" transform="translate(-105.18 -24.61)" fill="#757575"></path></svg>