<svg xmlns:xlink="http://www.w3.org/1999/xlink" class="" id="Group_5643" data-name="Group 5643" xmlns="http://www.w3.org/2000/svg" width="104" height="43.301" viewBox="0 0 104 43.301">
  <path id="Path_2662" data-name="Path 2662" d="M14.5,12.885a2.629,2.629,0,0,0-.552-1.825,1.882,1.882,0,0,0-1.46-.6,1.918,1.918,0,0,0-1.475.61,2.587,2.587,0,0,0-.566,1.817v4.946a12.788,12.788,0,0,1-.343,3.784A3.561,3.561,0,0,1,8.776,23.21a3.411,3.411,0,0,1-1.936.611,2.447,2.447,0,0,1-1.676-.545,2.847,2.847,0,0,1-.857-1.5A10,10,0,0,1,4.068,19.4V12.885A2.593,2.593,0,0,0,3.5,11.068a1.938,1.938,0,0,0-1.49-.61,1.88,1.88,0,0,0-1.46.6A2.626,2.626,0,0,0,0,12.885v8.06A7.442,7.442,0,0,0,.761,24.67a4.457,4.457,0,0,0,1.81,1.683,5.626,5.626,0,0,0,2.644.611,7.159,7.159,0,0,0,2.176-.305,5.679,5.679,0,0,0,1.758-.931,9.113,9.113,0,0,0,1.534-1.549V24.7a2.437,2.437,0,0,0,.544,1.691,1.881,1.881,0,0,0,2.741.022A2.514,2.514,0,0,0,14.5,24.67ZM46.261,8.868a2.061,2.061,0,0,0,1.415-.529,1.86,1.86,0,0,0,.6-1.467A1.806,1.806,0,0,0,47.661,5.4a2.134,2.134,0,0,0-1.4-.507,2.076,2.076,0,0,0-1.438.559,1.832,1.832,0,0,0-.619,1.423,1.846,1.846,0,0,0,.6,1.475A2.148,2.148,0,0,0,46.261,8.868ZM24.9,23.6a5.013,5.013,0,0,0-.953.126,5.074,5.074,0,0,1-.968.127,1.224,1.224,0,0,1-.946-.32,1.49,1.49,0,0,1-.358-.834,12.113,12.113,0,0,1-.066-1.468V13.749h.758a4.215,4.215,0,0,0,1.855-.327,1.178,1.178,0,0,0,.648-1.148,1.355,1.355,0,0,0-.454-1.051,1.91,1.91,0,0,0-1.318-.409H21.606V8.044a8.619,8.619,0,0,0-.112-1.587,1.736,1.736,0,0,0-.529-.946,2.009,2.009,0,0,0-1.4-.58,1.942,1.942,0,0,0-1,.26,1.847,1.847,0,0,0-.686.678,2.278,2.278,0,0,0-.29.96q-.053.559-.053,1.542V21.556a11.993,11.993,0,0,0,.306,3.024,2.973,2.973,0,0,0,1.289,1.773,5.328,5.328,0,0,0,2.89.641,7.255,7.255,0,0,0,3.084-.522,1.632,1.632,0,0,0,1.072-1.5,1.326,1.326,0,0,0-.395-.976A1.225,1.225,0,0,0,24.9,23.6ZM30.233,8.868a2.063,2.063,0,0,0,1.415-.529,1.863,1.863,0,0,0,.6-1.467A1.806,1.806,0,0,0,31.633,5.4a2.133,2.133,0,0,0-1.4-.507,2.076,2.076,0,0,0-1.437.559,1.832,1.832,0,0,0-.619,1.423,1.844,1.844,0,0,0,.6,1.475A2.146,2.146,0,0,0,30.233,8.868ZM46.216,26.994a1.926,1.926,0,0,0,1.475-.626,2.626,2.626,0,0,0,.581-1.848V12.766a2.361,2.361,0,0,0-.581-1.7,1.946,1.946,0,0,0-1.475-.611,1.874,1.874,0,0,0-1.452.611,2.605,2.605,0,0,0-.559,1.817V24.52a2.7,2.7,0,0,0,.559,1.833A1.835,1.835,0,0,0,46.216,26.994Zm29.778-5.646q.016-1.222.023-2.22t.008-2.429a8.762,8.762,0,0,0-.633-3.635,3.923,3.923,0,0,0-2.167-2,11.365,11.365,0,0,0-4.217-.633A10.662,10.662,0,0,0,65,11.083a5.438,5.438,0,0,0-2.369,1.669,3.442,3.442,0,0,0-.76,2.084,1.432,1.432,0,0,0,.5,1.125,1.732,1.732,0,0,0,1.184.44,1.3,1.3,0,0,0,.992-.276,13.629,13.629,0,0,0,.789-1.139,3.785,3.785,0,0,1,1.341-1.3,4.94,4.94,0,0,1,2.331-.433,2.9,2.9,0,0,1,2.377.753,4.246,4.246,0,0,1,.648,2.361q-1.282.372-2.376.633t-2.629.574q-1.535.314-1.922.4A5.288,5.288,0,0,0,62.2,19.56a4.108,4.108,0,0,0-1.058,2.846,4.351,4.351,0,0,0,.641,2.294,4.525,4.525,0,0,0,1.825,1.676,5.861,5.861,0,0,0,2.748.618,8,8,0,0,0,3.092-.573A12.627,12.627,0,0,0,72.3,24.7a8.777,8.777,0,0,0,1.3,1.706,1.8,1.8,0,0,0,1.237.588,1.976,1.976,0,0,0,1.334-.513,1.5,1.5,0,0,0,.588-1.14,7.512,7.512,0,0,0-.381-1.6A8.221,8.221,0,0,1,75.994,21.348ZM72.032,19.4a6.228,6.228,0,0,1-.551,3.038,3.522,3.522,0,0,1-1.5,1.363,4.763,4.763,0,0,1-2.228.529,2.593,2.593,0,0,1-1.832-.648,2.063,2.063,0,0,1-.7-1.572,1.717,1.717,0,0,1,.6-1.393,3.212,3.212,0,0,1,1.251-.67q.655-.172,2.361-.536a20.487,20.487,0,0,0,2.6-.693Zm-11.5,5.571a1.326,1.326,0,0,0-.4-.976,1.224,1.224,0,0,0-.886-.395,5.028,5.028,0,0,0-.953.126,5.073,5.073,0,0,1-.968.127,1.225,1.225,0,0,1-.946-.32,1.5,1.5,0,0,1-.358-.834,12.246,12.246,0,0,1-.066-1.468V13.749h.76a4.212,4.212,0,0,0,1.854-.327,1.178,1.178,0,0,0,.648-1.148,1.355,1.355,0,0,0-.454-1.051,1.907,1.907,0,0,0-1.318-.409H55.958V8.044a8.562,8.562,0,0,0-.112-1.587,1.726,1.726,0,0,0-.529-.946,2.008,2.008,0,0,0-1.4-.58,1.944,1.944,0,0,0-1,.26,1.834,1.834,0,0,0-.685.678,2.269,2.269,0,0,0-.291.96q-.052.559-.053,1.542V21.556A11.981,11.981,0,0,0,52.2,24.58a2.969,2.969,0,0,0,1.288,1.773,5.328,5.328,0,0,0,2.89.641,7.255,7.255,0,0,0,3.084-.522A1.631,1.631,0,0,0,60.531,24.968ZM104,12.9A3.039,3.039,0,0,0,103,10.761L93.368,1.126a3.852,3.852,0,0,0-5.445,0L79.757,9.293a1.9,1.9,0,1,0,2.682,2.7l8.169-8.169c.011-.011.014-.014.039-.015s.03,0,.04.015l8.128,8.128a3.846,3.846,0,0,0-2.227,3.487v7.691c0,.018-.04.057-.058.057H84.764a.082.082,0,0,1-.057-.057V17.577a1.9,1.9,0,1,0-3.792,0v5.568a3.853,3.853,0,0,0,3.849,3.848H96.529a3.853,3.853,0,0,0,3.848-3.85l0-7.691a.088.088,0,0,1,.055-.057h.66a3.28,3.28,0,0,0,1.729-.432A2.413,2.413,0,0,0,104,12.914v-.005S104,12.9,104,12.9ZM31.663,26.368a2.625,2.625,0,0,0,.582-1.848V12.766a2.361,2.361,0,0,0-.582-1.7,1.945,1.945,0,0,0-1.475-.611,1.877,1.877,0,0,0-1.453.611,2.608,2.608,0,0,0-.559,1.817V24.52a2.7,2.7,0,0,0,.559,1.833,1.838,1.838,0,0,0,1.453.641A1.926,1.926,0,0,0,31.663,26.368ZM37.948,4.93a1.844,1.844,0,0,0-1.467.626A2.737,2.737,0,0,0,35.937,7.4V24.52a2.709,2.709,0,0,0,.559,1.833,1.838,1.838,0,0,0,1.453.641,1.929,1.929,0,0,0,1.482-.619A2.643,2.643,0,0,0,40,24.52V7.4a2.667,2.667,0,0,0-.566-1.855A1.926,1.926,0,0,0,37.948,4.93Z" transform="translate(0 0)" fill="#424242"></path>
  <g id="Group_3483" data-name="Group 3483" transform="translate(44.205 29.98)">
    <path id="Path_2663" data-name="Path 2663" d="M358.571,265v5.81h-1.625v-5.754a2,2,0,0,0-2.055-2.279c-1.308,0-2.3.822-2.3,2.84v5.194h-1.625v-5.754c0-1.476-.766-2.279-1.98-2.279-1.252,0-2.391.822-2.391,2.84v5.194H344.97v-9.341H346.6v1.252a3.126,3.126,0,0,1,2.784-1.494,2.939,2.939,0,0,1,2.746,1.588,3.307,3.307,0,0,1,2.933-1.588A3.429,3.429,0,0,1,358.571,265Z" transform="translate(-344.97 -257.731)" fill="#424242"></path>
    <path id="Path_2664" data-name="Path 2664" d="M464.668,266.137a4.923,4.923,0,1,1,4.913,4.913A4.872,4.872,0,0,1,464.668,266.137Zm8.22,0a3.3,3.3,0,1,0-3.307,3.325A3.259,3.259,0,0,0,472.888,266.137Z" transform="translate(-449.33 -257.731)" fill="#424242"></path>
    <path id="Path_2665" data-name="Path 2665" d="M566.4,242.368a4.8,4.8,0,0,1-4.727,4.913,4.041,4.041,0,0,1-3.531-1.85v1.607h-1.625V233.961h1.625V239.3a4.041,4.041,0,0,1,3.531-1.849A4.8,4.8,0,0,1,566.4,242.368Zm-1.625,0a3.316,3.316,0,1,0-3.307,3.344A3.263,3.263,0,0,0,564.774,242.368Z" transform="translate(-529.409 -233.961)" fill="#424242"></path>
    <path id="Path_2666" data-name="Path 2666" d="M646.618,235.063a1.093,1.093,0,1,1,2.186,0,1.093,1.093,0,0,1-2.186,0Zm.28,2.634h1.625v9.341H646.9Z" transform="translate(-607.964 -233.961)" fill="#424242"></path>
    <path id="Path_2667" data-name="Path 2667" d="M680.878,233.961H682.5v13.077h-1.625Z" transform="translate(-637.834 -233.961)" fill="#424242"></path>
    <path id="Path_2668" data-name="Path 2668" d="M713.911,269.519a3.049,3.049,0,0,0,2.69-1.364l1.383.785a4.715,4.715,0,0,1-4.11,2.111,4.914,4.914,0,1,1-.112-9.827,4.7,4.7,0,0,1,4.652,4.932,4.79,4.79,0,0,1-.056.729H710.53A3.2,3.2,0,0,0,713.911,269.519Zm-3.381-4.054h6.24a2.958,2.958,0,0,0-3.008-2.709A3.1,3.1,0,0,0,710.53,265.465Z" transform="translate(-662.236 -257.731)" fill="#424242"></path>
  </g>
</svg>