<svg xmlns:xlink="http://www.w3.org/1999/xlink" class="" xmlns="http://www.w3.org/2000/svg" viewBox="0 0 306.83 306.83" width="306.83"  height="306.83" ><path d="M268.74,46.58H131.26a84.67,84.67,0,0,0-84.67,84.67V268.74a84.67,84.67,0,0,0,84.67,84.67H268.74a84.67,84.67,0,0,0,84.67-84.67V131.26a84.77,84.77,0,0,0-84.67-84.67m57.45,222.16a57.45,57.45,0,0,1-57.45,57.45H131.26A57.46,57.46,0,0,1,73.8,268.73V131.26a57.45,57.45,0,0,1,57.45-57.45H268.74a57.45,57.45,0,0,1,57.45,57.45Z" transform="translate(-46.58 -46.58)" fill="#757575"></path><path d="M200,120.95a79.14,79.14,0,0,0-79,81.36c1.18,41.21,35.54,75.56,76.76,76.73A79.06,79.06,0,1,0,200,120.95m0,130.88a51.89,51.89,0,0,1-51.84-52.57c.38-27.51,23.54-50.68,51.05-51.1A51.84,51.84,0,1,1,200,251.83" transform="translate(-46.58 -46.58)" fill="#757575"></path><path d="M282.38,97.86a19.94,19.94,0,1,0,14.12,5.84,20,20,0,0,0-14.12-5.84" transform="translate(-46.58 -46.58)" fill="#757575"></path></svg>