<svg xmlns="http://www.w3.org/2000/svg" width="417.033" height="399.292" viewBox="0 0 417.033 399.292">
  <g id="Group_7680" data-name="Group 7680" transform="translate(-743.967 -1257.344)">
    <path id="hand" d="M843.233,1088.519l-.411-.374c-32.87-4.387-86.783-23.927-95.579-31.358-5.162-4.361-7.733-10.977-10.106-17.3L715.97,983.029a9.538,9.538,0,0,1,1.636-2.493c3.994-3.811,9.55-5.414,15-6.288,11.859-1.9,32.812-1.323,32.812-1.323,2.033,17.248,9.129,54.755,9.129,54.755,40.183,14.411,54.021,32.344,88,41.164C873.546,1065.784,853.467,1091.28,843.233,1088.519Z" transform="translate(101.789 513)" fill="#e0c3af"/>
    <rect id="Rectangle_4331" data-name="Rectangle 4331" width="227.507" height="399.289" transform="translate(933.493 1257.344)" fill="#d8d8d8"/>
    <g id="plug" transform="translate(1013.1 1497.02)">
      <rect id="Rectangle_4335" data-name="Rectangle 4335" width="86.932" height="50.875" transform="translate(0 -0.001)" fill="#fff"/>
      <rect id="Rectangle_4336" data-name="Rectangle 4336" width="7.751" height="15.971" transform="translate(35.258 6.091)" fill="#ededed"/>
      <rect id="Rectangle_4338" data-name="Rectangle 4338" width="4.775" height="2.634" transform="translate(10.373 34.081)" fill="#0f0f0f"/>
      <rect id="Rectangle_4339" data-name="Rectangle 4339" width="4.775" height="2.634" transform="translate(24.368 34.081)" fill="#424242"/>
      <rect id="Rectangle_4340" data-name="Rectangle 4340" width="4.61" height="1.976" transform="translate(36.829 6.091)" fill="#2889e2"/>
      <g id="Group_7535" data-name="Group 7535" transform="translate(37.112 17.251)">
        <path id="Path_13238" data-name="Path 13238" d="M1705.666,1094.906a1.025,1.025,0,1,1,1.026,1.025A1.017,1.017,0,0,1,1705.666,1094.906Zm1.6,0a.575.575,0,1,0-.574.586A.561.561,0,0,0,1707.266,1094.906Z" transform="translate(-1705.666 -1093.881)"/>
        <path id="Path_13239" data-name="Path 13239" d="M1717.031,1094.049v1.972h-.338l-.761-1.07v1.07h-.45v-1.972h.338l.76,1.07v-1.07Z" transform="translate(-1713.177 -1094.01)"/>
      </g>
      <rect id="Rectangle_4341" data-name="Rectangle 4341" width="7.751" height="15.971" transform="translate(44.994 6.091)" fill="#ededed"/>
      <rect id="Rectangle_4342" data-name="Rectangle 4342" width="4.61" height="1.976" transform="translate(46.565 20.007)" fill="#2889e2"/>
      <g id="Group_7536" data-name="Group 7536" transform="translate(46.378 9.266)">
        <path id="Path_13240" data-name="Path 13240" d="M1745.118,1060.906a1.025,1.025,0,1,1,1.025,1.025A1.016,1.016,0,0,1,1745.118,1060.906Zm1.6,0a.575.575,0,1,0-.574.586A.561.561,0,0,0,1746.718,1060.906Z" transform="translate(-1745.118 -1059.881)"/>
        <path id="Path_13241" data-name="Path 13241" d="M1755.385,1060.483v.38h.733v.434h-.733v.724h-.45v-1.972h1.2v.434Z" transform="translate(-1752.629 -1060.01)"/>
        <path id="Path_13242" data-name="Path 13242" d="M1761.625,1060.483v.38h.733v.434h-.733v.724h-.451v-1.972h1.2v.434Z" transform="translate(-1757.403 -1060.01)"/>
      </g>
      <path id="Path_13243" data-name="Path 13243" d="M1814.671,1106.364l-6.2-8a4.144,4.144,0,0,0-3.276-1.606h-4.917a4.145,4.145,0,0,0-3.276,1.606l-6.2,8a6.816,6.816,0,0,0-1.421,4.5l.24,5.114a4.926,4.926,0,0,0,4.921,4.695h16.391a4.926,4.926,0,0,0,4.921-4.695l.24-5.114A6.818,6.818,0,0,0,1814.671,1106.364Z" transform="translate(-1732.598 -1078.829)" fill="#424242"/>
      <rect id="Rectangle_4343" data-name="Rectangle 4343" width="4.443" height="27.99" transform="translate(67.915 29.471)" fill="#424242"/>
      <rect id="Rectangle_4344" data-name="Rectangle 4344" width="2.314" height="102.154" transform="translate(68.909 57.46)" fill="#424242"/>
    </g>
    <g id="character" transform="translate(743.967 1292.17)">
      <g id="Group_7541" data-name="Group 7541" transform="translate(0.567 0)">
        <path id="hair" d="M529.9,248.368c-1.409-4.793-11.541-49.052-13.358-55.041-1.975-6.511-4.618-12.747-8.336-16.7-6.475-6.886-21.806-13.228-32.916-7.052-9.932-2.894-21.825,2.387-28.429,10.888-7.73,9.949-10.058,22.936-12.146,35.361-2.3,13.7-4.246,38.584-10.947,56.9-18.44,46.321-34.425,92.618,4.014,120.029,17,12.124,56.9-31.823,89.008-13.169C543.779,345.674,544.871,299.317,529.9,248.368Z" transform="translate(-404.216 -162.65)" fill="#424242"/>
        <g id="neck" transform="translate(53.834 77.712)">
          <path id="Path_13244" data-name="Path 13244" d="M692.159,554.625c0,.137.021-1.187-5.128-8.313a41.561,41.561,0,0,1-7.678-20.515c-.8-8.655-2.07-17.634-1.056-20.585l-37.305-18.58c-.4,8.231-1.766,35.309-7.572,41.158Z" transform="translate(-633.42 -484.868)" fill="#e0c3af"/>
          <path id="Path_13245" data-name="Path 13245" d="M724.49,517.1s-30.31-11.392-31.674-33.025c-1.075-17.045,30.906,15.393,30.906,15.393Z" transform="translate(-678.845 -479.123)" fill="#b29583"/>
        </g>
        <g id="head" transform="translate(42.614 9.231)">
          <g id="head-2" data-name="head">
            <path id="hair-2" data-name="hair" d="M586.048,227.781c2.9,19.06,21.139,34.123,40.361,31.2s32.153-22.733,29.252-41.794a35.208,35.208,0,0,0-69.612,10.6Z" transform="translate(-585.649 -187.56)" fill="#424242"/>
            <path id="Path_13246" data-name="Path 13246" d="M651.2,275.333c-.026-17.275,13.11-28.239,28.564-30.591s24.693,6.625,27.052,22.126c0,0,2.894,19.8,3.04,20.758,1.765,11.594-4.951,34.949-16.112,36.648-12.88,1.96-37.45-11.84-39.149-23C654.451,300.312,651.211,281.873,651.2,275.333Z" transform="translate(-635.805 -231.027)" fill="#e0c3af"/>
            <g id="Group_7538" data-name="Group 7538" transform="translate(25.191 34.555)">
              <g id="eyebrows">
                <g id="Group_7537" data-name="Group 7537">
                  <path id="Path_13247" data-name="Path 13247" d="M711.234,355.7s-11.694.6-13.882,1.158c-3.647.922-4.077,3.442-4.448,4.833-.13.478,15.334-.351,17.426-1.488S711.234,355.7,711.234,355.7Z" transform="translate(-692.903 -350.767)" fill="#424242"/>
                  <path id="Path_13248" data-name="Path 13248" d="M824.1,337.717s11.345-2.9,13.6-3.025a7.724,7.724,0,0,1,1.2.023c1.273.08,1.9,4.192.923,4.472-4.526,1.225-11.932,2.874-13.516,2.56C823.973,341.285,824.1,337.717,824.1,337.717Z" transform="translate(-793.287 -334.68)" fill="#424242"/>
                </g>
              </g>
            </g>
          </g>
          <g id="Group_7539" data-name="Group 7539" transform="translate(4.619 47.35)">
            <path id="Path_13249" data-name="Path 13249" d="M613.783,390.145c-1.524-1.359-4.869-2.012-7.67,2.807s1.961,20.611,10.585,19.3S617.943,393.855,613.783,390.145Z" transform="translate(-605.313 -389.158)" fill="#e0c3af"/>
            <path id="Path_13250" data-name="Path 13250" d="M621.641,412.018s4.034.03,4.743,3.63,1.2,7.876,1.2,7.876Z" transform="translate(-617.806 -406.649)" fill="#b29583"/>
          </g>
        </g>
        <g id="Group_7540" data-name="Group 7540" transform="translate(21.81)">
          <path id="Path_13251" data-name="Path 13251" d="M629.482,193.157a39.941,39.941,0,0,1,15.227,3,35.8,35.8,0,0,0-54.6,44.508,40.087,40.087,0,0,1,39.374-47.506Z" transform="translate(-564.845 -178.329)" fill="#fdd835"/>
          <path id="Path_13252" data-name="Path 13252" d="M512.191,241.154c8.266.207,14.818,6.36,14.818,6.36s-6.851,5.818-15.117,5.611-14.818-6.36-14.818-6.36S503.925,240.948,512.191,241.154Z" transform="translate(-497.074 -219.331)" fill="#fdd835"/>
          <path id="Path_13253" data-name="Path 13253" d="M590.19,161.145c2.162,7.981-1.865,16.017-1.865,16.017s-7.531-4.905-9.693-12.886,1.865-16.016,1.865-16.016S588.028,153.164,590.19,161.145Z" transform="translate(-558.988 -148.259)" fill="#fdd835"/>
        </g>
        <path id="glasses" d="M740.7,369.338l2.065-.288-.251-1.8-2.91.406a7.933,7.933,0,0,0-2.349-1.983,11.111,11.111,0,0,0-5.595-1.162,13.394,13.394,0,0,0-7.437,2.775,8.911,8.911,0,0,0-2.761,3.277,16.614,16.614,0,0,0-5.372-.012,14.877,14.877,0,0,0-5.687,1.793,8.817,8.817,0,0,0-3.732-2.61,13.638,13.638,0,0,0-13.688,2.217,7.924,7.924,0,0,0-1.716,2.55l-2.9.4.251,1.8,2.057-.287a10.026,10.026,0,0,0-.167,2.752,11.539,11.539,0,0,0,5.2,8.468,10.02,10.02,0,0,0,5.79,1.932,9.166,9.166,0,0,0,1.267-.088,9.808,9.808,0,0,0,1.391-.3,11.912,11.912,0,0,0,7.287-6.381,11.2,11.2,0,0,0,.158-8.489,8.464,8.464,0,0,0-.578-1.11,14.045,14.045,0,0,1,5.217-1.6,16.045,16.045,0,0,1,4.833-.037,8.352,8.352,0,0,0-.331,1.476,11.2,11.2,0,0,0,2.474,8.122,10.344,10.344,0,0,0,8.013,4.144h.069a9.524,9.524,0,0,0,7.635-3.8,11.537,11.537,0,0,0,2.684-9.567A10,10,0,0,0,740.7,369.338Zm-30.072,5.392a10.13,10.13,0,0,1-.165,7.67,10.783,10.783,0,0,1-6.606,5.768,8.586,8.586,0,0,1-7.545-1.393,10.506,10.506,0,0,1-4.754-7.688,8.143,8.143,0,0,1,2.162-6.376,12.073,12.073,0,0,1,6.255-2.736,12.532,12.532,0,0,1,1.733-.121,12.7,12.7,0,0,1,4.585.869A7.371,7.371,0,0,1,710.629,374.729Zm19.362-9.045a12.072,12.072,0,0,1,6.765.92,8.143,8.143,0,0,1,3.824,5.542,10.5,10.5,0,0,1-2.469,8.7,8.584,8.584,0,0,1-6.812,3.4h-.064a9.153,9.153,0,0,1-7.19-3.74,10.132,10.132,0,0,1-2.258-7.333,7.372,7.372,0,0,1,3.073-5.041,10.346,10.346,0,0,1,5.131-2.447Z" transform="translate(-621.626 -313.711)" fill="#fff"/>
      </g>
      <g id="Group_7542" data-name="Group 7542" transform="translate(0.001 120.087)">
        <path id="Path_13254" data-name="Path 13254" d="M478.147,1078.652c10.4-41.142,5.869-105.81,5.869-105.81l13.544,107.594S481.376,1082.3,478.147,1078.652Z" transform="translate(-460.216 -899.255)" fill="#2889e2"/>
        <path id="Path_13255" data-name="Path 13255" d="M608.826,794.021c-1.113,11.316-4.149,31.853-4.53,43.217l-103.7-5.159c3.581-18.456,1.2-47.677-1.83-66.371-3.6-22.166-2.99-48.41-2.611-70.864,0,0,1.163-20.126,15.169-29.343s31.616-7.971,49.486,5.3c16.936,12.578,23.48,11.278,23.48,11.278,8.2,15.085,16.1,30.137,23.239,45.649a56.656,56.656,0,0,1,4.913,29.176l-3.615,37.115Z" transform="translate(-473.77 -659.539)" fill="#fff"/>
        <path id="Path_13256" data-name="Path 13256" d="M764.6,1083.114l24.967-103.451,30.672,3.283-8.121,96.255Z" transform="translate(-679.392 -904.474)" fill="#2889e2"/>
        <path id="Path_13257" data-name="Path 13257" d="M797,788.9c8.1-38.192-12.182-67.219-18.9-77.215l7.375,4.633c15.246,16.859,25.949,43.316,29.81,72.9C815.283,789.218,796.909,789.337,797,788.9Z" transform="translate(-689.716 -699.433)" fill="#2889e2"/>
        <path id="Path_13258" data-name="Path 13258" d="M537.483,1449.065a529.64,529.64,0,0,1-2.947-72.877l-4.29.913c-34,5.375-72.816,3.466-106.259-4.678,0,0-19.062,51.524-22.182,76.94Z" transform="translate(-401.805 -1204.984)" fill="#2889e2"/>
      </g>
      <g id="hand-2" data-name="hand" transform="translate(66.538 178.432)">
        <path id="Path_13259" data-name="Path 13259" d="M889.153,936.99c11.56.461,16.9,1.323,29.78,1.645,2.751.069,3.069,1.586,3.318,2.317.6,1.76-1.759,4.146-3.522,4.341,1.5.408,3.46-.32,5.137.391,1.964.832,3.6,3.586,1.229,4.958a3.443,3.443,0,0,1-.715.3c-7.867,2.424-16.691,2.712-24.275,4.139,3.333.444,11.032.57,16.475.972,5.1.377,4.313,5.354,2.149,5.708a148.027,148.027,0,0,1-29.1,1.137c2.6,3.669,16.032,1.277,17.876,2.886a2.789,2.789,0,0,1,.793,3.2c-.509,1.153-1.616,1.3-2.634,1.512-27.888,5.711-53.813-4.375-64.211-2.317l-.535-.154c-31.411,10.63-85.583,18.172-96.761,15.407-6.56-1.623-59.07-44.519-59.07-44.519,7.637-24.753,37.506-30.966,37.506-30.966,11.064,14.537,35.5,38.937,35.5,38.937,42.409-4.883,57.592,2.244,91.963-4.9,8.5-7.615,34.008-10.636,42.972-13.31C893.988,934.9,889.153,936.99,889.153,936.99Z" transform="translate(-685.091 -907.948)" fill="#e0c3af"/>
        <path id="Path_13260" data-name="Path 13260" d="M1559.954,1067.237l-.068-.768c10.979-.969,28-1.158,28.167-1.159l.008.771C1587.891,1066.082,1570.9,1066.271,1559.954,1067.237Z" transform="translate(-1354.418 -1028.349)" fill="#b29583"/>
        <path id="Path_13261" data-name="Path 13261" d="M1480.411,1033.214a31.972,31.972,0,0,1,5.8-1.188c2.231-.3,4.472-.517,6.709-.769,1.143-.129,2.286-.266,3.423-.44.447-.068.256-.748-.187-.679-4.278.656-8.618.848-12.876,1.643a23.135,23.135,0,0,0-3.056.753c-.428.143-.244.823.188.68Z" transform="translate(-1293.28 -1001.435)" fill="#b29583"/>
        <path id="Path_13262" data-name="Path 13262" d="M976.326,1082.814a17.973,17.973,0,0,1,1.469-4.084,11.434,11.434,0,0,1,2.837-3.44c.35-.289-.151-.786-.5-.5a11.932,11.932,0,0,0-2.948,3.583,18.764,18.764,0,0,0-1.539,4.253.352.352,0,0,0,.679.187Z" transform="translate(-907.393 -1035.537)" fill="#b29583"/>
      </g>
    </g>
  </g>
</svg>
