<?xml version="1.0" encoding="utf-8"?>
<!-- Generator: Adobe Illustrator 26.0.1, SVG Export Plug-In . SVG Version: 6.00 Build 0)  -->
<svg version="1.1" id="Layer_1" xmlns="http://www.w3.org/2000/svg" xmlns:xlink="http://www.w3.org/1999/xlink" x="0px" y="0px"
	 viewBox="0 0 331 26.6" style="enable-background:new 0 0 331 26.6;" xml:space="preserve">
<style type="text/css">
	.st0{fill:#00B67A;}
	.st1{fill:#DCDCE6;}
	.st2{fill:#FFFFFF;}
	.st3{fill:#005128;}
	.st4{enable-background:new    ;}
</style>
<g id="Group_7267" transform="translate(-181 -557)">
	<g id="Trustpilot_ratings_4halfstar-RGB" transform="translate(264 557)">
		<rect id="Rectangle-path" y="0" class="st0" width="26.7" height="26.6"/>
		<rect id="Rectangle-path-2" x="29" y="0" class="st0" width="26.7" height="26.6"/>
		<rect id="Rectangle-path-3" x="57.9" y="0" class="st0" width="26.7" height="26.6"/>
		<rect id="Rectangle-path-4" x="86.9" y="0" class="st0" width="26.7" height="26.6"/>
		<g id="Half" transform="translate(115.818)">
			<rect id="Rectangle-path-5" x="13.4" y="0" class="st1" width="13.4" height="26.6"/>
			<rect id="Rectangle-path-6" x="0" y="0" class="st0" width="13.4" height="26.6"/>
		</g>
		<path id="Shape" class="st2" d="M13.4,17.9l4.1-1l1.7,5.2L13.4,17.9z M9.8,15.3L4,11.2h7.2l2.2-6.7l2.2,6.7h7.2L17,15.3l-3.6,2.5
			L7.6,22L9.8,15.3z"/>
		<path id="Shape-2" class="st2" d="M42.3,17.9l4.1-1l1.7,5.2L42.3,17.9z M38.8,15.3L33,11.2h7.2l2.2-6.7l2.2,6.7h7.2l-5.8,4.2
			l-3.6,2.5L36.6,22L38.8,15.3z"/>
		<path id="Shape-3" class="st2" d="M71.3,17.9l4.1-1l1.7,5.2L71.3,17.9z M67.7,15.3l-5.8-4.2h7.2l2.2-6.7l2.2,6.7h7.2l-5.8,4.2
			l-3.6,2.5L65.5,22L67.7,15.3z"/>
		<path id="Shape-4" class="st2" d="M100.2,17.9l4.1-1l1.7,5.2L100.2,17.9z M96.7,15.3l-5.8-4.2H98l2.2-6.7l2.2,6.7h7.2l-5.8,4.2
			l-3.6,2.5L94.5,22L96.7,15.3z"/>
		<path id="Shape-5" class="st2" d="M129.2,17.9l4.1-1l1.7,5.2L129.2,17.9z M125.6,15.3l-5.8-4.2h7.2l2.2-6.7l2.2,6.7h7.2l-5.8,4.2
			l-3.6,2.5l-5.8,4.2L125.6,15.3z"/>
	</g>
	<g id="Group_6550" transform="translate(415.545 558)">
		<g id="Type" transform="translate(25.332 8.393)">
			<g id="Group_6549">
				<path id="Path_10538" d="M0,0h9.8v1.8H5.9v10.2H3.8V1.8H0L0,0L0,0z M9.4,3.3h1.8V5h0c0.1-0.2,0.2-0.5,0.3-0.7
					c0.2-0.2,0.4-0.4,0.6-0.6c0.2-0.2,0.5-0.3,0.8-0.5c0.3-0.1,0.6-0.2,0.9-0.2c0.2,0,0.4,0,0.5,0s0.2,0,0.3,0V5
					c-0.1,0-0.3,0-0.4-0.1c-0.1,0-0.3,0-0.4,0c-0.3,0-0.6,0.1-0.9,0.2c-0.3,0.1-0.5,0.3-0.7,0.6c-0.2,0.3-0.4,0.6-0.5,0.9
					c-0.1,0.4-0.2,0.8-0.2,1.3v4.2H9.3L9.4,3.3L9.4,3.3z M23.3,12.1h-1.9v-1.2h0c-0.2,0.4-0.6,0.8-1.1,1.1c-0.4,0.3-0.9,0.4-1.4,0.4
					c-0.9,0.1-1.8-0.2-2.5-0.9c-0.6-0.7-0.8-1.7-0.8-2.6V3.3h1.9v5.4c-0.1,0.6,0.1,1.2,0.4,1.6c0.3,0.3,0.8,0.5,1.2,0.5
					c0.3,0,0.7-0.1,1-0.2c0.3-0.1,0.5-0.3,0.7-0.5c0.2-0.2,0.3-0.5,0.4-0.7c0.1-0.3,0.1-0.6,0.1-0.9V3.3h1.9L23.3,12.1z M26.6,9.3
					c0,0.5,0.2,0.9,0.6,1.2c0.4,0.2,0.9,0.4,1.3,0.3c0.2,0,0.4,0,0.6,0c0.2,0,0.4-0.1,0.6-0.2c0.2-0.1,0.4-0.2,0.5-0.3
					c0.1-0.2,0.2-0.4,0.2-0.6c0-0.2-0.1-0.4-0.3-0.6c-0.2-0.2-0.4-0.3-0.6-0.4c-0.3-0.1-0.6-0.2-0.9-0.2c-0.3-0.1-0.7-0.1-1-0.2
					c-0.4-0.1-0.7-0.2-1-0.3c-0.3-0.1-0.6-0.3-0.9-0.5c-0.3-0.2-0.5-0.4-0.6-0.7c-0.2-0.3-0.3-0.7-0.2-1.1c0-0.4,0.1-0.8,0.3-1.2
					c0.2-0.3,0.5-0.6,0.9-0.8c0.4-0.2,0.8-0.3,1.2-0.4c0.4-0.1,0.8-0.1,1.2-0.1c0.4,0,0.9,0,1.3,0.1c0.4,0.1,0.8,0.2,1.1,0.5
					c0.3,0.2,0.6,0.5,0.8,0.8c0.2,0.4,0.4,0.8,0.4,1.2h-2c0-0.4-0.3-0.7-0.6-0.9c-0.4-0.2-0.7-0.2-1.1-0.2c-0.2,0-0.3,0-0.5,0
					c-0.2,0-0.4,0.1-0.5,0.1c-0.2,0.1-0.3,0.2-0.4,0.3c-0.1,0.1-0.2,0.3-0.2,0.5c0,0.2,0.1,0.4,0.2,0.6c0.2,0.2,0.4,0.3,0.6,0.4
					c0.3,0.1,0.6,0.2,0.9,0.2c0.3,0.1,0.7,0.1,1,0.2s0.7,0.2,1,0.3c0.3,0.1,0.6,0.3,0.9,0.5c0.3,0.2,0.5,0.4,0.6,0.7
					c0.2,0.3,0.3,0.7,0.2,1.1c0,0.5-0.1,0.9-0.4,1.3c-0.2,0.4-0.6,0.7-0.9,0.9c-0.4,0.2-0.8,0.4-1.3,0.5c-0.4,0.1-0.9,0.2-1.4,0.2
					c-0.5,0-1-0.1-1.5-0.2c-0.4-0.1-0.8-0.3-1.2-0.6c-0.3-0.2-0.6-0.6-0.8-0.9c-0.2-0.4-0.3-0.9-0.3-1.3L26.6,9.3L26.6,9.3z
					 M32.9,3.3h1.5V0.7h1.9v2.6h1.7v1.4h-1.7v4.7c0,0.2,0,0.4,0,0.5c0,0.1,0.1,0.3,0.1,0.4c0.1,0.1,0.2,0.2,0.3,0.2
					c0.2,0.1,0.3,0.1,0.5,0.1c0.1,0,0.3,0,0.4,0c0.1,0,0.3,0,0.4-0.1v1.5c-0.2,0-0.4,0-0.6,0.1c-0.2,0-0.4,0-0.6,0
					c-0.4,0-0.8,0-1.2-0.1c-0.3-0.1-0.5-0.2-0.7-0.4c-0.2-0.2-0.3-0.4-0.4-0.7c-0.1-0.3-0.1-0.6-0.1-1V4.8H33L32.9,3.3L32.9,3.3z
					 M39.4,3.3h1.8v1.2h0c0.2-0.5,0.6-0.9,1.1-1.1c0.5-0.2,1-0.3,1.6-0.3c0.6,0,1.2,0.1,1.8,0.4c0.5,0.2,0.9,0.6,1.3,1
					c0.3,0.4,0.6,0.9,0.8,1.5c0.2,0.6,0.3,1.2,0.3,1.8c0,0.6-0.1,1.1-0.2,1.7c-0.1,0.5-0.4,1-0.7,1.5c-0.3,0.4-0.7,0.8-1.2,1
					c-0.5,0.3-1.1,0.4-1.7,0.4c-0.3,0-0.6,0-0.8-0.1c-0.3-0.1-0.5-0.1-0.8-0.2c-0.3-0.1-0.5-0.3-0.7-0.4c-0.2-0.2-0.4-0.4-0.6-0.6h0
					v4.4h-1.9L39.4,3.3z M46.1,7.7c0-0.4-0.1-0.8-0.2-1.1c-0.1-0.4-0.2-0.7-0.5-1c-0.2-0.3-0.5-0.5-0.8-0.7c-1-0.5-2.2-0.3-2.9,0.6
					c-0.4,0.7-0.7,1.5-0.6,2.2c0,0.4,0,0.8,0.2,1.2c0.1,0.4,0.3,0.7,0.5,1c0.2,0.3,0.5,0.5,0.8,0.6c0.7,0.3,1.5,0.3,2.2,0
					c0.3-0.2,0.6-0.4,0.7-0.7c0.2-0.3,0.3-0.6,0.4-1C46.1,8.5,46.1,8.1,46.1,7.7L46.1,7.7z M49.5,0h1.9v1.8h-1.9L49.5,0z M49.5,3.3
					h1.9v8.7h-1.9L49.5,3.3z M53.2,0h1.9v12.1h-1.9V0z M61,12.3c-0.6,0-1.3-0.1-1.9-0.3c-1.1-0.4-1.9-1.3-2.2-2.4
					c-0.2-0.6-0.3-1.2-0.3-1.9c0-0.6,0.1-1.2,0.3-1.8c0.2-0.5,0.5-1,0.9-1.5c0.4-0.4,0.9-0.7,1.4-1c1.2-0.5,2.5-0.5,3.7,0
					c1.1,0.4,1.9,1.3,2.2,2.4c0.2,0.6,0.3,1.2,0.3,1.8c0,0.6-0.1,1.3-0.3,1.9c-0.2,0.5-0.5,1-0.9,1.5c-0.4,0.4-0.9,0.7-1.4,1
					C62.3,12.2,61.6,12.3,61,12.3L61,12.3z M61,10.8c0.4,0,0.8-0.1,1.1-0.3c0.3-0.2,0.6-0.4,0.8-0.7c0.2-0.3,0.4-0.6,0.5-1
					c0.2-0.7,0.2-1.5,0-2.2c-0.1-0.4-0.2-0.7-0.5-1c-0.2-0.3-0.5-0.5-0.8-0.7c-0.7-0.4-1.5-0.4-2.2,0c-0.3,0.2-0.6,0.4-0.8,0.7
					c-0.2,0.3-0.4,0.6-0.5,1c-0.2,0.7-0.2,1.5,0,2.2c0.1,0.4,0.2,0.7,0.5,1c0.2,0.3,0.5,0.5,0.8,0.7C60.2,10.7,60.6,10.8,61,10.8
					L61,10.8z M66,3.3h1.5V0.7h1.9v2.6h1.7v1.4h-1.7v4.7c0,0.2,0,0.4,0,0.5c0,0.1,0.1,0.3,0.1,0.4c0.1,0.1,0.2,0.2,0.3,0.2
					c0.2,0.1,0.3,0.1,0.5,0.1c0.1,0,0.3,0,0.4,0c0.1,0,0.3,0,0.4-0.1v1.5c-0.2,0-0.4,0-0.6,0.1c-0.2,0-0.4,0-0.6,0
					c-0.4,0-0.8,0-1.2-0.1c-0.3-0.1-0.5-0.2-0.7-0.4c-0.2-0.2-0.3-0.4-0.4-0.7c-0.1-0.3-0.1-0.6-0.1-1V4.8H66L66,3.3L66,3.3z"/>
			</g>
		</g>
		<g id="Star">
			<path id="Path_10539" class="st0" d="M23.1,8.4h-8.8L11.6,0L8.8,8.4L0,8.4l7.1,5.2L4.4,22l7.1-5.2l7.1,5.2L16,13.6L23.1,8.4z"/>
			<path id="Path_10540" class="st3" d="M16.6,15.5L16,13.6l-4.4,3.2L16.6,15.5z"/>
		</g>
	</g>
	<g class="st4">
		<path d="M189.9,574v2h-7.7v-12.6h7.6v2h-5.5v3.3h5v2h-5v3.4H189.9z"/>
		<path d="M197.5,576l-2.2-3.1L193,576h-2.3l3.4-4.6l-3.2-4.4h2.3l2.1,2.8l2.1-2.8h2.3l-3.2,4.4l3.4,4.6H197.5z"/>
		<path d="M199.9,571.5c0-2.7,2-4.7,4.8-4.7c1.8,0,3.3,0.9,4,2.3l-1.7,1c-0.4-0.8-1.3-1.4-2.4-1.4c-1.6,0-2.8,1.2-2.8,2.8
			c0,1.6,1.2,2.8,2.8,2.8c1.1,0,2-0.6,2.4-1.4l1.7,1c-0.8,1.4-2.3,2.3-4.1,2.3C201.9,576.2,199.9,574.2,199.9,571.5z"/>
		<path d="M214.4,574.5c1.1,0,1.9-0.5,2.3-1.1l1.6,0.9c-0.8,1.2-2.2,2-3.9,2c-3,0-4.9-2-4.9-4.7c0-2.7,1.9-4.7,4.8-4.7
			c2.7,0,4.5,2.2,4.5,4.8c0,0.3,0,0.6-0.1,0.8h-7.2C211.8,573.7,212.9,574.5,214.4,574.5z M216.8,570.7c-0.3-1.5-1.4-2.2-2.6-2.2
			c-1.5,0-2.4,0.9-2.7,2.2H216.8z"/>
		<path d="M220.4,562.9h1.9V576h-1.9V562.9z"/>
		<path d="M224.6,562.9h1.9V576h-1.9V562.9z"/>
		<path d="M233.2,574.5c1.1,0,1.9-0.5,2.3-1.1l1.6,0.9c-0.8,1.2-2.2,2-3.9,2c-3,0-4.9-2-4.9-4.7c0-2.7,1.9-4.7,4.8-4.7
			c2.7,0,4.5,2.2,4.5,4.8c0,0.3,0,0.6-0.1,0.8h-7.2C230.6,573.7,231.8,574.5,233.2,574.5z M235.6,570.7c-0.3-1.5-1.4-2.2-2.6-2.2
			c-1.5,0-2.4,0.9-2.7,2.2H235.6z"/>
		<path d="M247.5,570.5v5.5h-1.9v-5.3c0-1.4-0.8-2.1-2-2.1c-1.3,0-2.3,0.8-2.3,2.6v4.8h-1.9v-9h1.9v1.2c0.6-0.9,1.6-1.4,2.8-1.4
			C246,566.8,247.5,568.1,247.5,570.5z"/>
		<path d="M252.4,568.9v4.3c0,1.2,0.8,1.1,2.2,1.1v1.7c-3,0.4-4.2-0.5-4.2-2.8v-4.3h-1.7V567h1.7v-1.9l1.9-0.6v2.5h2.2v1.9H252.4z"
			/>
	</g>
</g>
</svg>
