<svg xmlns="http://www.w3.org/2000/svg" viewBox="0 0 390.95 101.47"><defs><linearGradient id="utilita-gradient" x1="0%" y1="100%" y2="0%" gradientTransform="rotate(10)"><stop offset="10%" stop-color="#00a3e4"/><stop offset="25%" stop-color="#447aba"/><stop offset="40%" stop-color="#885290"/><stop offset="50%" stop-color="#a63872"/><stop offset="65%" stop-color="#d31145"/></linearGradient></defs><path fill="url(#utilita-gradient)" d="M58.85 50.89q0-4.59-2.07-6.86a7.08 7.08 0 0 0-5.49-2.27 7.21 7.21 0 0 0-5.54 2.29q-2.13 2.3-2.13 6.83v18.61q0 11-1.29 14.23a13.39 13.39 0 0 1-5 6A12.82 12.82 0 0 1 30.07 92a9.2 9.2 0 0 1-6.3-2 10.7 10.7 0 0 1-3.22-5.66 37.56 37.56 0 0 1-.89-8.93V50.89q0-4.53-2.13-6.83a7.29 7.29 0 0 0-5.6-2.29A7.07 7.07 0 0 0 6.43 44q-2.07 2.3-2.07 6.89v30.3q0 9.13 2.86 14a16.75 16.75 0 0 0 6.8 6.33 21.15 21.15 0 0 0 9.94 2.3 26.9 26.9 0 0 0 8.18-1.15 21.36 21.36 0 0 0 6.61-3.5 34.28 34.28 0 0 0 5.77-5.82v2a9.16 9.16 0 0 0 2 6.36 7.07 7.07 0 0 0 10.3.08q2-2.19 2-6.55zm119.41-15.1a7.75 7.75 0 0 0 5.32-2 7 7 0 0 0 2.24-5.52 6.79 6.79 0 0 0-2.3-5.54 8 8 0 0 0-5.26-1.91 7.8 7.8 0 0 0-5.4 2.1 6.89 6.89 0 0 0-2.33 5.35 6.94 6.94 0 0 0 2.27 5.54 8.07 8.07 0 0 0 5.46 1.98zM98 91.16a18.81 18.81 0 0 0-3.58.47 19.06 19.06 0 0 1-3.64.48 4.6 4.6 0 0 1-3.56-1.2 5.6 5.6 0 0 1-1.34-3.14 45.5 45.5 0 0 1-.25-5.52V54.14h2.85a15.84 15.84 0 0 0 7-1.23 4.43 4.43 0 0 0 2.44-4.31 5.09 5.09 0 0 0-1.71-3.95 7.18 7.18 0 0 0-5-1.54h-5.6V32.69a32.41 32.41 0 0 0-.42-6 6.52 6.52 0 0 0-2-3.56A7.55 7.55 0 0 0 77.9 21a7.3 7.3 0 0 0-3.75 1 6.94 6.94 0 0 0-2.58 2.55 8.56 8.56 0 0 0-1.09 3.61q-.2 2.1-.2 5.8v49.52a45.07 45.07 0 0 0 1.15 11.37 11.17 11.17 0 0 0 4.84 6.67q3.7 2.41 10.86 2.41 7.56 0 11.59-2t4-5.66a5 5 0 0 0-1.48-3.67A4.61 4.61 0 0 0 98 91.16zm20-55.37a7.76 7.76 0 0 0 5.32-2 7 7 0 0 0 2.24-5.52 6.79 6.79 0 0 0-2.3-5.54 8 8 0 0 0-5.26-1.89 7.8 7.8 0 0 0-5.4 2.1 6.88 6.88 0 0 0-2.33 5.35 6.93 6.93 0 0 0 2.27 5.54 8.07 8.07 0 0 0 5.46 1.96zm60.08 68.14a7.24 7.24 0 0 0 5.54-2.35q2.19-2.35 2.19-6.95V50.44a8.88 8.88 0 0 0-2.19-6.38 7.31 7.31 0 0 0-5.54-2.3 7 7 0 0 0-5.46 2.3q-2.1 2.29-2.1 6.83v43.74q0 4.48 2.1 6.89a6.9 6.9 0 0 0 5.47 2.41zM290 82.7q.06-4.59.09-8.35t0-9.13q0-8.51-2.38-13.66a14.75 14.75 0 0 0-8.09-7.56q-5.77-2.38-15.85-2.38a40.08 40.08 0 0 0-15.06 2.46q-6 2.47-8.91 6.28a12.94 12.94 0 0 0-2.86 7.84 5.38 5.38 0 0 0 1.88 4.23 6.51 6.51 0 0 0 4.45 1.65q2.86 0 3.73-1a51.42 51.42 0 0 0 3-4.28 14.22 14.22 0 0 1 5-4.87q2.93-1.63 8.76-1.63 6.77 0 8.93 2.83t2.45 8.87q-4.82 1.4-8.93 2.38t-9.88 2.16q-5.77 1.18-7.22 1.51A19.88 19.88 0 0 0 238.17 76a15.44 15.44 0 0 0-4 10.7 16.35 16.35 0 0 0 2.41 8.62 17 17 0 0 0 6.86 6.3 22 22 0 0 0 10.33 2.32 30.07 30.07 0 0 0 11.62-2.15 47.47 47.47 0 0 0 10.72-6.47 33 33 0 0 0 4.87 6.41 6.77 6.77 0 0 0 4.65 2.21 7.43 7.43 0 0 0 5-1.93 5.65 5.65 0 0 0 2.21-4.28 28.24 28.24 0 0 0-1.43-6A30.91 30.91 0 0 1 290 82.7zm-14.89-7.34q0 7.95-2.07 11.42a13.24 13.24 0 0 1-5.63 5.13 17.9 17.9 0 0 1-8.37 2 9.74 9.74 0 0 1-6.89-2.44 7.75 7.75 0 0 1-2.63-5.91 6.45 6.45 0 0 1 2.24-5.24 12.07 12.07 0 0 1 4.7-2.52q2.46-.65 8.88-2a77.08 77.08 0 0 0 9.77-2.6zM231.9 96.31a5 5 0 0 0-1.49-3.67 4.6 4.6 0 0 0-3.33-1.48 18.87 18.87 0 0 0-3.58.47 19.06 19.06 0 0 1-3.64.48 4.6 4.6 0 0 1-3.56-1.2 5.63 5.63 0 0 1-1.3-3.14 46.06 46.06 0 0 1-.25-5.52V54.14h2.86a15.83 15.83 0 0 0 7-1.23A4.43 4.43 0 0 0 227 48.6a5.09 5.09 0 0 0-1.71-3.95 7.17 7.17 0 0 0-5-1.54h-5.6V32.69a32.16 32.16 0 0 0-.42-6 6.49 6.49 0 0 0-2-3.56A7.55 7.55 0 0 0 207 21a7.31 7.31 0 0 0-3.75 1 6.89 6.89 0 0 0-2.58 2.55 8.53 8.53 0 0 0-1.09 3.61q-.2 2.1-.2 5.8v49.52a45 45 0 0 0 1.15 11.37 11.16 11.16 0 0 0 4.84 6.67q3.7 2.41 10.86 2.41 7.56 0 11.59-2t4.08-5.62zm163.4-45.37a11.42 11.42 0 0 0-3.74-8L355.34 6.69a14.48 14.48 0 0 0-20.47 0l-30.7 30.7a7.15 7.15 0 1 0 10.08 10.14L345 16.83s.05-.05.15-.06.11 0 .15.06l30.55 30.55a14.46 14.46 0 0 0-8.37 13.11V89.4c0 .07-.15.21-.22.22H323a.31.31 0 0 1-.22-.21V68.53a7.13 7.13 0 1 0-14.25 0v20.93A14.48 14.48 0 0 0 323 103.92h44.23a14.48 14.48 0 0 0 14.47-14.47v-28.9a.33.33 0 0 1 .21-.22h2.48a12.34 12.34 0 0 0 6.5-1.62A9.07 9.07 0 0 0 395.3 51v-.06zm-271.92 50.64q2.19-2.35 2.19-6.95V50.44a8.87 8.87 0 0 0-2.19-6.38 7.31 7.31 0 0 0-5.54-2.3 7.06 7.06 0 0 0-5.46 2.3q-2.1 2.29-2.1 6.83v43.74q0 4.48 2.1 6.89a6.91 6.91 0 0 0 5.46 2.41 7.24 7.24 0 0 0 5.54-2.35zM147 21a6.93 6.93 0 0 0-5.52 2.35q-2 2.35-2 6.94v64.34q0 4.48 2.1 6.89a6.91 6.91 0 0 0 5.46 2.41 7.25 7.25 0 0 0 5.57-2.33q2.15-2.32 2.16-7V30.28q0-4.65-2.13-7A7.24 7.24 0 0 0 147 21z" transform="translate(-4.36 -2.45)"/></svg>