<svg xmlns="http://www.w3.org/2000/svg" viewBox="0 0 811.6 321.84"><defs><linearGradient id="utilita-gradient" x1="114.99" x2="626.67" y1="418.5" y2="-93.18" gradientUnits="userSpaceOnUse"><stop offset=".1" stop-color="#009bdd"/><stop offset=".13" stop-color="#118fd1"/><stop offset=".32" stop-color="#665297"/><stop offset=".48" stop-color="#a4266c"/><stop offset=".59" stop-color="#ca0a52"/><stop offset=".65" stop-color="#d90048"/></linearGradient></defs><path fill="url(#utilita-gradient)" d="M113.13 100.55q0-9.53-4.3-14.24a14.69 14.69 0 0 0-11.39-4.71 15 15 0 0 0-11.51 4.76q-4.42 4.77-4.42 14.18v38.6q0 22.79-2.68 29.53a27.79 27.79 0 0 1-10.34 12.44 26.61 26.61 0 0 1-15.11 4.77q-8.26 0-13.08-4.25a22.21 22.21 0 0 1-6.7-11.73 78 78 0 0 1-1.86-18.54v-50.81q0-9.41-4.42-14.18a15.13 15.13 0 0 0-11.62-4.76 14.67 14.67 0 0 0-11.39 4.7Q0 91 0 100.55v62.9q0 18.95 5.94 29.07a34.78 34.78 0 0 0 14.12 13.14 43.92 43.92 0 0 0 20.63 4.77 55.85 55.85 0 0 0 17-2.38 44.34 44.34 0 0 0 13.72-7.27 71.15 71.15 0 0 0 12-12.09v4.06q0 8.49 4.25 13.2a14.68 14.68 0 0 0 21.39.17q4.13-4.54 4.13-13.6zM361 69.21a16.09 16.09 0 0 0 11-4.13q4.66-4.13 4.66-11.45 0-7.56-4.77-11.51a16.66 16.66 0 0 0-10.93-4 16.2 16.2 0 0 0-11.22 4.36A14.3 14.3 0 0 0 345 53.63q0 7.44 4.7 11.51a16.76 16.76 0 0 0 11.3 4.07zM194.3 184.15a39.05 39.05 0 0 0-7.44 1 39.58 39.58 0 0 1-7.56 1q-5.12 0-7.38-2.5a11.62 11.62 0 0 1-2.79-6.51 94.46 94.46 0 0 1-.52-11.46v-58.39h5.92q9.43 0 14.48-2.55t5.06-9a10.57 10.57 0 0 0-3.54-8.2q-3.53-3.14-10.3-3.14h-11.62V62.77a67.28 67.28 0 0 0-.87-12.38A13.54 13.54 0 0 0 163.6 43a15.67 15.67 0 0 0-10.93-4.53 15.16 15.16 0 0 0-7.78 2 14.41 14.41 0 0 0-5.35 5.29 17.77 17.77 0 0 0-2.26 7.49q-.41 4.36-.41 12v102.97q0 14.78 2.39 23.6a23.2 23.2 0 0 0 10.06 13.84q7.67 5 22.55 5 15.69 0 24.07-4.07t8.37-11.74a10.34 10.34 0 0 0-3.08-7.62 9.56 9.56 0 0 0-6.93-3.08zm41.63-114.94a16.1 16.1 0 0 0 11-4.13q4.64-4.13 4.65-11.45 0-7.56-4.77-11.51a16.65 16.65 0 0 0-10.93-4 16.2 16.2 0 0 0-11.22 4.36 14.29 14.29 0 0 0-4.83 11.1q0 7.44 4.71 11.51a16.75 16.75 0 0 0 11.39 4.12zm124.74 141.45a15 15 0 0 0 11.51-4.88q4.54-4.89 4.54-14.42V99.63q0-8.49-4.54-13.25a15.18 15.18 0 0 0-11.51-4.77 14.62 14.62 0 0 0-11.33 4.77Q345 91.14 345 100.55v90.8q0 9.31 4.36 14.3a14.32 14.32 0 0 0 11.31 5.01zM593 166.6q.12-9.53.18-17.33t.06-19q0-17.67-4.94-28.37t-16.87-15.59q-12-4.93-32.91-4.94-18.71 0-31.27 5.12t-18.49 13q-5.92 7.91-5.93 16.27a11.18 11.18 0 0 0 3.89 8.78A13.52 13.52 0 0 0 496 128q5.93 0 7.74-2.15a106.74 106.74 0 0 0 6.16-8.89 29.53 29.53 0 0 1 10.47-10.12q6.09-3.38 18.19-3.38 14.06 0 18.55 5.88t5.06 18.43q-10 2.9-18.54 4.94t-20.52 4.48q-12 2.45-15 3.14-14.42 3.14-22.67 12.32a32.06 32.06 0 0 0-8.26 22.21 34 34 0 0 0 5 17.9 35.31 35.31 0 0 0 14.24 13.08 45.74 45.74 0 0 0 21.45 4.82 62.42 62.42 0 0 0 24.13-4.47 98.55 98.55 0 0 0 22.26-13.43 68.48 68.48 0 0 0 10.12 13.31q4.76 4.58 9.65 4.59a15.42 15.42 0 0 0 10.41-4q4.59-4 4.59-8.9 0-2.8-3-12.5A64.17 64.17 0 0 1 593 166.6zm-30.92-15.23q0 16.5-4.3 23.71a27.49 27.49 0 0 1-11.69 10.64 37.17 37.17 0 0 1-17.39 4.13q-8.82 0-14.3-5.06a16.1 16.1 0 0 1-5.4-12.27q0-7 4.65-10.87a25.07 25.07 0 0 1 9.77-5.23q5.11-1.34 18.43-4.19a160 160 0 0 0 20.29-5.41zm-89.75 43.48a10.35 10.35 0 0 0-3.08-7.62 9.55 9.55 0 0 0-6.92-3.08 39.17 39.17 0 0 0-7.44 1 39.58 39.58 0 0 1-7.56 1q-5.11 0-7.38-2.5a11.69 11.69 0 0 1-2.79-6.51 95.62 95.62 0 0 1-.52-11.46v-58.39h5.93q9.41 0 14.47-2.55t5.06-9a10.57 10.57 0 0 0-3.54-8.2Q455 84.4 448.31 84.4h-11.62V62.77a66.76 66.76 0 0 0-.87-12.38 13.47 13.47 0 0 0-4.14-7.39 15.67 15.67 0 0 0-10.92-4.53 15.17 15.17 0 0 0-7.79 2 14.31 14.31 0 0 0-5.35 5.29 17.7 17.7 0 0 0-2.27 7.49q-.4 4.36-.41 12v102.97q0 14.78 2.39 23.6a23.17 23.17 0 0 0 10.05 13.84q7.67 5 22.55 5 15.69 0 24.07-4.07t8.38-11.75zm339.21-94.19c-.27-8.12-4.07-12.81-7.76-16.68l-75.15-75.2a30.06 30.06 0 0 0-42.49 0l-63.73 63.74a14.84 14.84 0 1 0 20.93 21.06l63.75-63.75c.09-.09.11-.11.31-.12s.23 0 .31.12l63.43 63.43a30 30 0 0 0-17.38 27.21v60c0 .14-.31.44-.45.45h-91.82a.64.64 0 0 1-.45-.44v-43.31a14.79 14.79 0 1 0-29.59 0v43.45a30.06 30.06 0 0 0 30 30h91.85a30.07 30.07 0 0 0 30-30v-60a.68.68 0 0 1 .43-.45h5.15a25.61 25.61 0 0 0 13.49-3.37c4.84-2.53 9.46-9.53 9.16-16s.05-.12.05-.15zM247.09 205.77q4.54-4.89 4.54-14.42V99.63q0-8.49-4.54-13.25a15.18 15.18 0 0 0-11.51-4.77 14.65 14.65 0 0 0-11.34 4.77q-4.36 4.76-4.36 14.18v90.8q0 9.31 4.36 14.3a14.35 14.35 0 0 0 11.34 5 15 15 0 0 0 11.51-4.89zm49-167.3a14.39 14.39 0 0 0-11.45 4.89q-4.25 4.88-4.25 14.41v133.58q0 9.3 4.36 14.3a14.35 14.35 0 0 0 11.34 5 15.06 15.06 0 0 0 11.57-4.83q4.47-4.82 4.48-14.47V57.77q0-9.65-4.42-14.47a15 15 0 0 0-11.58-4.82zM0 236.64h8v66.87H0zm18.78 7.42a5.36 5.36 0 1 1 10.72 0 5.36 5.36 0 0 1-10.72 0zm1.37 13.65h8v45.8h-8zm31.6-1.37v1.37h12.1v7.69h-12.1v38.11h-8v-38.1h-7.29v-7.69h7.33v-1.37c0-12.18 7-19.05 20.06-18.14v7.69c-7.97-.65-12.1 2.47-12.1 10.44zm37.83 40.86c6.32 0 10.9-2.93 13.19-6.69l6.78 3.85c-4 6.23-11 10.35-20.15 10.35-14.75 0-24.55-10.35-24.55-24.09 0-13.56 9.71-24.09 24-24.09 13.83 0 22.81 11.36 22.81 24.18a23.48 23.48 0 0 1-.27 3.57H73c1.56 8.24 8.07 12.91 16.59 12.91zM73 277.32h30.6c-1.37-9.07-7.88-13.32-14.75-13.32-8.61 0-14.56 5.34-15.85 13.32zm133-19.6l-14.2 45.8h-8.15l-10.72-33.9-10.72 33.9h-8.15l-14.2-45.8h8.34l10.08 34.81 10.81-34.81h7.7l10.81 34.9 10.08-34.9zm6.86-13.65a5.36 5.36 0 1 1 10.72 0 5.36 5.36 0 0 1-10.72 0zm1.37 13.65h8v45.8h-8zm32.88 7.69v24.83c0 7 4 6.5 12.18 6.14v7.15c-13.74 1.83-20.15-1.83-20.15-13.28v-24.84h-9.04v-7.69h9.07v-14.54h8v14.53h12.18v7.69zm62.2 10v28.12h-8v-27.68c0-7.51-4.31-11.73-11.36-11.73-7.33 0-13.28 4.3-13.28 15.11v24.28h-8V236h8v28.34c3.39-5.4 8.43-7.79 14.84-7.79 10.78-.03 17.83 7.12 17.83 18.84zm82.44 5.22c0 13.56-10.44 24.09-23.18 24.09-7.79 0-13.65-3.48-17.31-9.07v26.2h-8v-64.14h8v7.88c3.66-5.59 9.53-9.07 17.31-9.07 12.77 0 23.21 10.54 23.21 24.09zm-8 0A16.26 16.26 0 1 0 367.6 297a16 16 0 0 0 16.21-16.39zm14.93 0a24.14 24.14 0 1 1 24.09 24.09 23.89 23.89 0 0 1-24.03-24.11zm40.31 0a16.17 16.17 0 1 0-16.21 16.31A16 16 0 0 0 439 280.61zm77.86-22.9l-14.2 45.8h-8.15l-10.72-33.9-10.72 33.9H465l-14.2-45.8h8.34l10.08 34.81L480 257.71h7.69l10.81 34.9 10.08-34.9zm28.58 39.48c6.32 0 10.9-2.93 13.19-6.69l6.78 3.85c-4 6.23-11 10.35-20.15 10.35-14.75 0-24.55-10.35-24.55-24.09 0-13.56 9.71-24.09 24-24.09 13.83 0 22.81 11.36 22.81 24.18a23.54 23.54 0 0 1-.27 3.57h-38.33c1.55 8.23 8.09 12.9 16.58 12.9zm-16.58-19.88h30.6c-1.37-9.07-7.88-13.28-14.75-13.28-8.56-.05-14.51 5.29-15.79 13.27zM599 256.89v8.34c-6.87-.27-14.29 3.21-14.29 14v24.28h-8v-45.8h8v7.69c2.91-6.4 8.5-8.51 14.29-8.51z"/></svg>